<?xml version="1.0" encoding="UTF-8" standalone="no"?>
<!-- Created with Inkscape (http://www.inkscape.org/) -->

<svg
   xmlns:dc="http://purl.org/dc/elements/1.1/"
   xmlns:cc="http://creativecommons.org/ns#"
   xmlns:rdf="http://www.w3.org/1999/02/22-rdf-syntax-ns#"
   xmlns:svg="http://www.w3.org/2000/svg"
   xmlns="http://www.w3.org/2000/svg"
   xmlns:sodipodi="http://sodipodi.sourceforge.net/DTD/sodipodi-0.dtd"
   xmlns:inkscape="http://www.inkscape.org/namespaces/inkscape"
   id="svg3355"
   version="1.1"
   inkscape:version="0.91 r13725"
   xml:space="preserve"
   width="354.32501"
   height="354.32501"
   viewBox="0 0 354.32501 354.32501"
   sodipodi:docname="HIV_v2-1.svg"><metadata
     id="metadata3361"><rdf:RDF><cc:Work
         rdf:about=""><dc:format>image/svg+xml</dc:format><dc:type
           rdf:resource="http://purl.org/dc/dcmitype/StillImage" /><dc:title></dc:title></cc:Work></rdf:RDF></metadata><defs
     id="defs3359"><clipPath
       clipPathUnits="userSpaceOnUse"
       id="clipPath3369"><path
         d="m 0,283.46 283.46,0 L 283.46,0 0,0 0,283.46 Z"
         id="path3371"
         inkscape:connector-curvature="0" /></clipPath></defs><sodipodi:namedview
     pagecolor="#ffffff"
     bordercolor="#666666"
     borderopacity="1"
     objecttolerance="10"
     gridtolerance="10"
     guidetolerance="10"
     inkscape:pageopacity="0"
     inkscape:pageshadow="2"
     inkscape:window-width="1916"
     inkscape:window-height="1161"
     id="namedview3357"
     showgrid="false"
     inkscape:zoom="1.4153672"
     inkscape:cx="177.16251"
     inkscape:cy="177.16251"
     inkscape:window-x="0"
     inkscape:window-y="18"
     inkscape:window-maximized="0"
     inkscape:current-layer="g3363" /><g
     id="g3363"
     inkscape:groupmode="layer"
     inkscape:label="HIV_v2-1"
     transform="matrix(1.25,0,0,-1.25,0,354.325)"><g
       id="g3365"><g
         id="g3367"
         clip-path="url(#clipPath3369)"><g
           id="g3373"
           transform="translate(210.3291,38.5596)"><path
             d="M 0,0 C -0.186,-0.215 -7.525,-6.305 -17.89,-12.609"
             style="fill:none;stroke:#6d6e70;stroke-width:5;stroke-linecap:round;stroke-linejoin:round;stroke-miterlimit:10;stroke-dasharray:none;stroke-opacity:1"
             id="path3375"
             inkscape:connector-curvature="0" /></g><g
           id="g3377"
           transform="translate(192.1777,25.7979)"><path
             d="M 0,0 6.108,-10.617"
             style="fill:none;stroke:#6d6e70;stroke-width:5;stroke-linecap:round;stroke-linejoin:round;stroke-miterlimit:10;stroke-dasharray:none;stroke-opacity:1"
             id="path3379"
             inkscape:connector-curvature="0" /></g><g
           id="g3381"
           transform="translate(189.0371,178.7358)"><path
             d="M 0,0 21.596,15.411"
             style="fill:#231f20;fill-opacity:1;fill-rule:nonzero;stroke:#5097ba;stroke-width:7;stroke-linecap:round;stroke-linejoin:miter;stroke-miterlimit:10;stroke-dasharray:none;stroke-opacity:1"
             id="path3383"
             inkscape:connector-curvature="0" /></g><g
           id="g3385"
           transform="translate(210.9756,194.7129)"><path
             d="M 0,0 14.127,48.208"
             style="fill:#231f20;fill-opacity:1;fill-rule:nonzero;stroke:#5097ba;stroke-width:7;stroke-linecap:round;stroke-linejoin:miter;stroke-miterlimit:10;stroke-dasharray:none;stroke-opacity:1"
             id="path3387"
             inkscape:connector-curvature="0" /></g><g
           id="g3389"
           transform="translate(217.4971,216.9678)"><path
             d="M 0,0 22.709,9.121"
             style="fill:#231f20;fill-opacity:1;fill-rule:nonzero;stroke:#5097ba;stroke-width:7;stroke-linecap:round;stroke-linejoin:miter;stroke-miterlimit:10;stroke-dasharray:none;stroke-opacity:1"
             id="path3391"
             inkscape:connector-curvature="0" /></g><g
           id="g3393"
           transform="translate(210.9756,194.7129)"><path
             d="M 0,0 20.088,-2"
             style="fill:#231f20;fill-opacity:1;fill-rule:nonzero;stroke:#5097ba;stroke-width:7;stroke-linecap:round;stroke-linejoin:miter;stroke-miterlimit:10;stroke-dasharray:none;stroke-opacity:1"
             id="path3395"
             inkscape:connector-curvature="0" /></g><g
           id="g3397"
           transform="translate(246.6357,216.9678)"><path
             d="M 0,0 -15.572,-24.255"
             style="fill:#231f20;fill-opacity:1;fill-rule:nonzero;stroke:#5097ba;stroke-width:7;stroke-linecap:round;stroke-linejoin:miter;stroke-miterlimit:10;stroke-dasharray:none;stroke-opacity:1"
             id="path3399"
             inkscape:connector-curvature="0" /></g><g
           id="g3401"
           transform="translate(241.1562,185.5366)"><path
             d="M 0,0 -10.093,7.176"
             style="fill:#231f20;fill-opacity:1;fill-rule:nonzero;stroke:#5097ba;stroke-width:7;stroke-linecap:round;stroke-linejoin:miter;stroke-miterlimit:10;stroke-dasharray:none;stroke-opacity:1"
             id="path3403"
             inkscape:connector-curvature="0" /></g><g
           id="g3405"
           transform="translate(244.4658,185.6558)"><path
             d="M 0,0 10.943,17.705"
             style="fill:#231f20;fill-opacity:1;fill-rule:nonzero;stroke:#5097ba;stroke-width:7;stroke-linecap:round;stroke-linejoin:miter;stroke-miterlimit:10;stroke-dasharray:none;stroke-opacity:1"
             id="path3407"
             inkscape:connector-curvature="0" /></g><g
           id="g3409"
           transform="translate(241.1562,185.5366)"><path
             d="M 0,0 21.044,-4.839"
             style="fill:#231f20;fill-opacity:1;fill-rule:nonzero;stroke:#5097ba;stroke-width:7;stroke-linecap:round;stroke-linejoin:miter;stroke-miterlimit:10;stroke-dasharray:none;stroke-opacity:1"
             id="path3411"
             inkscape:connector-curvature="0" /></g><g
           id="g3413"
           transform="translate(80.5122,99.3291)"><path
             d="m 0,0 c 15.367,10.437 17.843,30.175 18.555,47.192 0.453,10.834 -0.087,22.308 2.243,32.942 0.734,3.348 3.207,10.852 7.471,6.698 2.603,-2.536 3.346,-7.289 4.123,-10.668 4.032,-17.534 1.198,-39.441 16.743,-51.952 6.723,-5.411 15.816,-5.509 24.036,-5.393 10.299,0.147 20.579,0.898 30.878,0.956 4.835,0.028 4.838,7.528 0,7.5 C 93.753,27.217 83.465,26.535 73.171,26.319 62.756,26.102 54.2,27.117 48.221,36.522 42.781,45.079 42.942,56.654 41.653,66.399 40.595,74.391 39.656,84.758 34.287,91.268 29.854,96.644 22.583,97.207 17.975,91.77 12.106,84.846 12.279,74.033 11.795,65.52 10.741,46.967 14.157,18.661 -3.785,6.477 -7.761,3.776 -4.013,-2.726 0,0"
             style="fill:#5097ba;fill-opacity:1;fill-rule:nonzero;stroke:none"
             id="path3415"
             inkscape:connector-curvature="0" /></g><g
           id="g3417"
           transform="translate(176.9785,132.2139)"><path
             d="M 0,0 9.427,-9.426 0,-18.852"
             style="fill:none;stroke:#5097ba;stroke-width:7;stroke-linecap:round;stroke-linejoin:round;stroke-miterlimit:10;stroke-dasharray:none;stroke-opacity:1"
             id="path3419"
             inkscape:connector-curvature="0" /></g><g
           id="g3421"
           transform="translate(210.7578,38.9209)"><path
             d="M 0,0 7.972,-9.785"
             style="fill:none;stroke:#6d6e70;stroke-width:5;stroke-linecap:round;stroke-linejoin:round;stroke-miterlimit:10;stroke-dasharray:none;stroke-opacity:1"
             id="path3423"
             inkscape:connector-curvature="0" /></g><g
           id="g3425"
           transform="translate(198.5713,139.2764)"><path
             d="m 0,0 c 0,-40.141 -32.541,-72.682 -72.682,-72.682 -40.141,0 -72.681,32.541 -72.681,72.682 0,40.14 32.54,72.681 72.681,72.681 C -32.541,72.681 0,40.14 0,0 Z"
             style="fill:none;stroke:#6d6e70;stroke-width:8;stroke-linecap:butt;stroke-linejoin:miter;stroke-miterlimit:10;stroke-dasharray:none;stroke-opacity:1"
             id="path3427"
             inkscape:connector-curvature="0" /></g><g
           id="g3429"
           transform="translate(64.8887,210.3696)"><path
             d="m 0,0 c 0,-4.376 -3.548,-7.924 -7.924,-7.924 -4.376,0 -7.924,3.548 -7.924,7.924 0,4.376 3.548,7.924 7.924,7.924 C -3.548,7.924 0,4.376 0,0 Z"
             style="fill:none;stroke:#6d6e70;stroke-width:5;stroke-linecap:butt;stroke-linejoin:miter;stroke-miterlimit:10;stroke-dasharray:none;stroke-opacity:1"
             id="path3431"
             inkscape:connector-curvature="0" /></g><g
           id="g3433"
           transform="translate(109.1963,235.853)"><path
             d="m 0,0 c 0,-4.376 -3.547,-7.924 -7.924,-7.924 -4.376,0 -7.924,3.548 -7.924,7.924 0,4.376 3.548,7.924 7.924,7.924 C -3.547,7.924 0,4.376 0,0 Z"
             style="fill:none;stroke:#6d6e70;stroke-width:5;stroke-linecap:butt;stroke-linejoin:miter;stroke-miterlimit:10;stroke-dasharray:none;stroke-opacity:1"
             id="path3435"
             inkscape:connector-curvature="0" /></g><g
           id="g3437"
           transform="translate(37.9653,166.3452)"><path
             d="m 0,0 c 0,-4.376 -3.548,-7.924 -7.924,-7.924 -4.376,0 -7.924,3.548 -7.924,7.924 0,4.376 3.548,7.924 7.924,7.924 C -3.548,7.924 0,4.376 0,0 Z"
             style="fill:none;stroke:#6d6e70;stroke-width:5;stroke-linecap:butt;stroke-linejoin:miter;stroke-miterlimit:10;stroke-dasharray:none;stroke-opacity:1"
             id="path3439"
             inkscape:connector-curvature="0" /></g><g
           id="g3441"
           transform="translate(38.9653,111.3662)"><path
             d="m 0,0 c 0,-4.377 -3.548,-7.924 -7.924,-7.924 -4.376,0 -7.924,3.547 -7.924,7.924 0,4.375 3.548,7.924 7.924,7.924 C -3.548,7.924 0,4.375 0,0 Z"
             style="fill:none;stroke:#6d6e70;stroke-width:5;stroke-linecap:butt;stroke-linejoin:miter;stroke-miterlimit:10;stroke-dasharray:none;stroke-opacity:1"
             id="path3443"
             inkscape:connector-curvature="0" /></g><g
           id="g3445"
           transform="translate(63.3076,69.5361)"><path
             d="m 0,0 c 0,-4.375 -3.547,-7.922 -7.924,-7.922 -4.376,0 -7.924,3.547 -7.924,7.922 0,4.377 3.548,7.926 7.924,7.926 C -3.547,7.926 0,4.377 0,0 Z"
             style="fill:none;stroke:#6d6e70;stroke-width:5;stroke-linecap:butt;stroke-linejoin:miter;stroke-miterlimit:10;stroke-dasharray:none;stroke-opacity:1"
             id="path3447"
             inkscape:connector-curvature="0" /></g><g
           id="g3449"
           transform="translate(114.1401,42.4697)"><path
             d="m 0,0 c 0,-4.375 -3.548,-7.922 -7.924,-7.922 -4.376,0 -7.924,3.547 -7.924,7.922 0,4.377 3.548,7.926 7.924,7.926 C -3.548,7.926 0,4.377 0,0 Z"
             style="fill:none;stroke:#6d6e70;stroke-width:5;stroke-linecap:butt;stroke-linejoin:miter;stroke-miterlimit:10;stroke-dasharray:none;stroke-opacity:1"
             id="path3451"
             inkscape:connector-curvature="0" /></g><g
           id="g3453"
           transform="translate(103.1582,228.1646)"><path
             d="M 0,0 4.387,-17.318"
             style="fill:none;stroke:#6d6e70;stroke-width:5;stroke-linecap:round;stroke-linejoin:miter;stroke-miterlimit:10;stroke-dasharray:none;stroke-opacity:1"
             id="path3455"
             inkscape:connector-curvature="0" /></g><g
           id="g3457"
           transform="translate(62.5615,204.7607)"><path
             d="M 0,0 12.438,-12.562"
             style="fill:none;stroke:#6d6e70;stroke-width:5;stroke-linecap:round;stroke-linejoin:miter;stroke-miterlimit:10;stroke-dasharray:none;stroke-opacity:1"
             id="path3459"
             inkscape:connector-curvature="0" /></g><g
           id="g3461"
           transform="translate(163.3506,75.583)"><path
             d="M 0,0 5.818,-9.951"
             style="fill:none;stroke:#6d6e70;stroke-width:5;stroke-linecap:round;stroke-linejoin:miter;stroke-miterlimit:10;stroke-dasharray:none;stroke-opacity:1"
             id="path3463"
             inkscape:connector-curvature="0" /></g><g
           id="g3465"
           transform="translate(37.6372,164.0991)"><path
             d="M 0,0 17.728,-5.177"
             style="fill:none;stroke:#6d6e70;stroke-width:5;stroke-linecap:round;stroke-linejoin:miter;stroke-miterlimit:10;stroke-dasharray:none;stroke-opacity:1"
             id="path3467"
             inkscape:connector-curvature="0" /></g><g
           id="g3469"
           transform="translate(38.6411,113.5967)"><path
             d="M 0,0 16.655,5.186"
             style="fill:none;stroke:#6d6e70;stroke-width:5;stroke-linecap:round;stroke-linejoin:miter;stroke-miterlimit:10;stroke-dasharray:none;stroke-opacity:1"
             id="path3471"
             inkscape:connector-curvature="0" /></g><g
           id="g3473"
           transform="translate(61.271,74.835)"><path
             d="M 0,0 12.742,12.801"
             style="fill:none;stroke:#6d6e70;stroke-width:5;stroke-linecap:round;stroke-linejoin:miter;stroke-miterlimit:10;stroke-dasharray:none;stroke-opacity:1"
             id="path3475"
             inkscape:connector-curvature="0" /></g><g
           id="g3477"
           transform="translate(108.3291,50.1025)"><path
             d="M 0,0 3.516,17.85"
             style="fill:none;stroke:#6d6e70;stroke-width:5;stroke-linecap:round;stroke-linejoin:miter;stroke-miterlimit:10;stroke-dasharray:none;stroke-opacity:1"
             id="path3479"
             inkscape:connector-curvature="0" /></g><g
           id="g3481"
           transform="translate(181.3398,73.7334)"><path
             d="M 0,0 C -12.627,-9.283 -12.445,-8.943 -25.766,-14.715"
             style="fill:none;stroke:#6d6e70;stroke-width:5;stroke-linecap:round;stroke-linejoin:round;stroke-miterlimit:10;stroke-dasharray:none;stroke-opacity:1"
             id="path3483"
             inkscape:connector-curvature="0" /></g><g
           id="g3485"
           transform="translate(202.7314,63.7314)"><path
             d="M 0,0 C 0,0 -5.849,-6.068 -14.927,-12.193"
             style="fill:none;stroke:#6d6e70;stroke-width:5;stroke-linecap:round;stroke-linejoin:round;stroke-miterlimit:10;stroke-dasharray:none;stroke-opacity:1"
             id="path3487"
             inkscape:connector-curvature="0" /></g><g
           id="g3489"
           transform="translate(241.8721,107.8701)"><path
             d="M 0,0 22.752,-6.102"
             style="fill:none;stroke:#6d6e70;stroke-width:5;stroke-linecap:round;stroke-linejoin:round;stroke-miterlimit:10;stroke-dasharray:none;stroke-opacity:1"
             id="path3491"
             inkscape:connector-curvature="0" /></g><g
           id="g3493"
           transform="translate(229.7471,79.5459)"><path
             d="M 0,0 20.61,-12.123"
             style="fill:none;stroke:#6d6e70;stroke-width:5;stroke-linecap:round;stroke-linejoin:round;stroke-miterlimit:10;stroke-dasharray:none;stroke-opacity:1"
             id="path3495"
             inkscape:connector-curvature="0" /></g><g
           id="g3497"
           transform="translate(181.5752,73.7334)"><path
             d="M 0,0 13.919,-16.486"
             style="fill:none;stroke:#6d6e70;stroke-width:5;stroke-linecap:round;stroke-linejoin:round;stroke-miterlimit:10;stroke-dasharray:none;stroke-opacity:1"
             id="path3499"
             inkscape:connector-curvature="0" /></g><g
           id="g3501"
           transform="translate(203.0049,63.458)"><path
             d="M 0,0 25.132,-25.131"
             style="fill:none;stroke:#6d6e70;stroke-width:5;stroke-linecap:round;stroke-linejoin:round;stroke-miterlimit:10;stroke-dasharray:none;stroke-opacity:1"
             id="path3503"
             inkscape:connector-curvature="0" /></g><g
           id="g3505"
           transform="translate(187.8047,51.5381)"><path
             d="M 0,0 13.442,-19.283"
             style="fill:none;stroke:#6d6e70;stroke-width:5;stroke-linecap:round;stroke-linejoin:round;stroke-miterlimit:10;stroke-dasharray:none;stroke-opacity:1"
             id="path3507"
             inkscape:connector-curvature="0" /></g><g
           id="g3509"
           transform="translate(155.5742,59.0186)"><path
             d="M 0,0 19.863,-54.574"
             style="fill:none;stroke:#6d6e70;stroke-width:5;stroke-linecap:round;stroke-linejoin:round;stroke-miterlimit:10;stroke-dasharray:none;stroke-opacity:1"
             id="path3511"
             inkscape:connector-curvature="0" /></g><g
           id="g3513"
           transform="translate(196.582,235.5264)"><path
             d="M 0,0 14.394,18.979"
             style="fill:none;stroke:#6d6e70;stroke-width:5;stroke-linecap:round;stroke-linejoin:round;stroke-miterlimit:10;stroke-dasharray:none;stroke-opacity:1"
             id="path3515"
             inkscape:connector-curvature="0" /></g><g
           id="g3517"
           transform="translate(166.2197,251.4126)"><path
             d="M 0,0 C 0,0 19.673,-7.241 30.056,-15.984"
             style="fill:none;stroke:#6d6e70;stroke-width:5;stroke-linecap:round;stroke-linejoin:round;stroke-miterlimit:10;stroke-dasharray:none;stroke-opacity:1"
             id="path3519"
             inkscape:connector-curvature="0" /></g><g
           id="g3521"
           transform="translate(166.3555,251.8228)"><path
             d="M 0,0 8.006,22.016"
             style="fill:none;stroke:#6d6e70;stroke-width:5;stroke-linecap:round;stroke-linejoin:round;stroke-miterlimit:10;stroke-dasharray:none;stroke-opacity:1"
             id="path3523"
             inkscape:connector-curvature="0" /></g><g
           id="g3525"
           transform="translate(168.2988,218.8457)"><path
             d="M 0,0 13.782,25.562"
             style="fill:none;stroke:#6d6e70;stroke-width:5;stroke-linecap:round;stroke-linejoin:round;stroke-miterlimit:10;stroke-dasharray:none;stroke-opacity:1"
             id="path3527"
             inkscape:connector-curvature="0" /></g><g
           id="g3529"
           transform="translate(141.5503,228.6982)"><path
             d="M 0,0 9.182,51.473"
             style="fill:none;stroke:#6d6e70;stroke-width:5;stroke-linecap:round;stroke-linejoin:round;stroke-miterlimit:10;stroke-dasharray:none;stroke-opacity:1"
             id="path3531"
             inkscape:connector-curvature="0" /></g><g
           id="g3533"
           transform="translate(141.5503,228.1045)"><path
             d="M 0,0 C 0,0 14.577,-2.469 26.574,-9.259"
             style="fill:none;stroke:#6d6e70;stroke-width:5;stroke-linecap:round;stroke-linejoin:round;stroke-miterlimit:10;stroke-dasharray:none;stroke-opacity:1"
             id="path3535"
             inkscape:connector-curvature="0" /></g><g
           id="g3537"
           transform="translate(150.1895,207.6953)"><path
             d="M 0,0 5.81,16.027"
             style="fill:none;stroke:#6d6e70;stroke-width:5;stroke-linecap:round;stroke-linejoin:miter;stroke-miterlimit:10;stroke-dasharray:none;stroke-opacity:1"
             id="path3539"
             inkscape:connector-curvature="0" /></g><g
           id="g3541"
           transform="translate(243.7275,160.0605)"><path
             d="M 0,0 23.66,4.352"
             style="fill:none;stroke:#6d6e70;stroke-width:5;stroke-linecap:round;stroke-linejoin:round;stroke-miterlimit:10;stroke-dasharray:none;stroke-opacity:1"
             id="path3543"
             inkscape:connector-curvature="0" /></g><g
           id="g3545"
           transform="translate(243.8184,118.8018)"><path
             d="M 0,0 23.569,-4.281"
             style="fill:none;stroke:#6d6e70;stroke-width:5;stroke-linecap:round;stroke-linejoin:round;stroke-miterlimit:10;stroke-dasharray:none;stroke-opacity:1"
             id="path3547"
             inkscape:connector-curvature="0" /></g><g
           id="g3549"
           transform="translate(222.3516,139.4307)"><path
             d="M 0,0 22.561,-0.08"
             style="fill:none;stroke:#6d6e70;stroke-width:5;stroke-linecap:round;stroke-linejoin:round;stroke-miterlimit:10;stroke-dasharray:none;stroke-opacity:1"
             id="path3551"
             inkscape:connector-curvature="0" /></g><g
           id="g3553"
           transform="translate(214.6357,103.2842)"><path
             d="M 0,0 21.948,-8.826"
             style="fill:none;stroke:#6d6e70;stroke-width:5;stroke-linecap:round;stroke-linejoin:round;stroke-miterlimit:10;stroke-dasharray:none;stroke-opacity:1"
             id="path3555"
             inkscape:connector-curvature="0" /></g><g
           id="g3557"
           transform="translate(241.4512,107.9619)"><path
             d="M 0,0 C 0,0 -4.463,-16.941 -11.749,-28.143"
             style="fill:none;stroke:#6d6e70;stroke-width:5;stroke-linecap:round;stroke-linejoin:round;stroke-miterlimit:10;stroke-dasharray:none;stroke-opacity:1"
             id="path3559"
             inkscape:connector-curvature="0" /></g><g
           id="g3561"
           transform="translate(221.8574,139.4307)"><path
             d="M 0,0 C 0,0 0.717,-17.123 -7.222,-36.146"
             style="fill:none;stroke:#6d6e70;stroke-width:5;stroke-linecap:round;stroke-linejoin:round;stroke-miterlimit:10;stroke-dasharray:none;stroke-opacity:1"
             id="path3563"
             inkscape:connector-curvature="0" /></g><g
           id="g3565"
           transform="translate(197.4375,125.1084)"><path
             d="M 0,0 22.486,-4.553"
             style="fill:none;stroke:#6d6e70;stroke-width:5;stroke-linecap:round;stroke-linejoin:miter;stroke-miterlimit:10;stroke-dasharray:none;stroke-opacity:1"
             id="path3567"
             inkscape:connector-curvature="0" /></g><g
           id="g3569"
           transform="translate(243.7275,159.9697)"><path
             d="M 0,0 C 0,0 3.461,-26.049 0,-41.076"
             style="fill:none;stroke:#6d6e70;stroke-width:5;stroke-linecap:round;stroke-linejoin:round;stroke-miterlimit:10;stroke-dasharray:none;stroke-opacity:1"
             id="path3571"
             inkscape:connector-curvature="0" /></g></g></g></g></svg>