<?xml version="1.0" encoding="UTF-8" standalone="no"?>
<!-- Created with Inkscape (http://www.inkscape.org/) -->

<svg
   xmlns:dc="http://purl.org/dc/elements/1.1/"
   xmlns:cc="http://creativecommons.org/ns#"
   xmlns:rdf="http://www.w3.org/1999/02/22-rdf-syntax-ns#"
   xmlns:svg="http://www.w3.org/2000/svg"
   xmlns="http://www.w3.org/2000/svg"
   xmlns:sodipodi="http://sodipodi.sourceforge.net/DTD/sodipodi-0.dtd"
   xmlns:inkscape="http://www.inkscape.org/namespaces/inkscape"
   id="svg3355"
   version="1.1"
   inkscape:version="0.91 r13725"
   xml:space="preserve"
   width="354.32501"
   height="354.32501"
   viewBox="0 0 354.32501 354.32501"
   sodipodi:docname="HIV_v2-1b.svg"><metadata
     id="metadata3361"><rdf:RDF><cc:Work
         rdf:about=""><dc:format>image/svg+xml</dc:format><dc:type
           rdf:resource="http://purl.org/dc/dcmitype/StillImage" /><dc:title></dc:title></cc:Work></rdf:RDF></metadata><defs
     id="defs3359"><clipPath
       clipPathUnits="userSpaceOnUse"
       id="clipPath3369"><path
         d="m 0,283.46 283.46,0 L 283.46,0 0,0 0,283.46 Z"
         id="path3371"
         inkscape:connector-curvature="0" /></clipPath></defs><sodipodi:namedview
     pagecolor="#ffffff"
     bordercolor="#666666"
     borderopacity="1"
     objecttolerance="10"
     gridtolerance="10"
     guidetolerance="10"
     inkscape:pageopacity="0"
     inkscape:pageshadow="2"
     inkscape:window-width="1916"
     inkscape:window-height="1161"
     id="namedview3357"
     showgrid="false"
     inkscape:zoom="1.4153672"
     inkscape:cx="122.75966"
     inkscape:cy="177.16251"
     inkscape:window-x="0"
     inkscape:window-y="18"
     inkscape:window-maximized="0"
     inkscape:current-layer="g3363" /><g
     id="g3363"
     inkscape:groupmode="layer"
     inkscape:label="HIV_v2-1"
     transform="matrix(1.25,0,0,-1.25,0,354.325)"><path
       inkscape:connector-curvature="0"
       id="path3391"
       style="fill:#231f20;fill-opacity:1;fill-rule:nonzero;stroke:#cd5c5c;stroke-width:7;stroke-linecap:round;stroke-linejoin:miter;stroke-miterlimit:10;stroke-dasharray:none;stroke-opacity:1"
       d="m 217.4971,216.9678 22.709,9.121" /><path
       inkscape:connector-curvature="0"
       id="path3375"
       style="fill:none;stroke:#6d6e70;stroke-width:5;stroke-linecap:round;stroke-linejoin:round;stroke-miterlimit:10;stroke-dasharray:none;stroke-opacity:1"
       d="m 210.3291,38.5596 c -0.186,-0.215 -7.525,-6.305 -17.89,-12.609" /><path
       inkscape:connector-curvature="0"
       id="path3379"
       style="fill:none;stroke:#6d6e70;stroke-width:5;stroke-linecap:round;stroke-linejoin:round;stroke-miterlimit:10;stroke-dasharray:none;stroke-opacity:1"
       d="m 192.1777,25.7979 6.108,-10.617" /><path
       inkscape:connector-curvature="0"
       id="path3383"
       style="fill:#231f20;fill-opacity:1;fill-rule:nonzero;stroke:#cd5c5c;stroke-width:7;stroke-linecap:round;stroke-linejoin:miter;stroke-miterlimit:10;stroke-dasharray:none;stroke-opacity:1"
       d="m 189.0371,178.7358 21.596,15.411" /><path
       inkscape:connector-curvature="0"
       id="path3387"
       style="fill:#231f20;fill-opacity:1;fill-rule:nonzero;stroke:#cd5c5c;stroke-width:7;stroke-linecap:round;stroke-linejoin:miter;stroke-miterlimit:10;stroke-dasharray:none;stroke-opacity:1"
       d="m 210.9756,194.7129 14.127,48.208" /><path
       inkscape:connector-curvature="0"
       id="path3395"
       style="fill:#231f20;fill-opacity:1;fill-rule:nonzero;stroke:#cd5c5c;stroke-width:7;stroke-linecap:round;stroke-linejoin:miter;stroke-miterlimit:10;stroke-dasharray:none;stroke-opacity:1"
       d="m 210.9756,194.7129 20.088,-2" /><path
       inkscape:connector-curvature="0"
       id="path3399"
       style="fill:#231f20;fill-opacity:1;fill-rule:nonzero;stroke:#5097ba;stroke-width:7;stroke-linecap:round;stroke-linejoin:miter;stroke-miterlimit:10;stroke-dasharray:none;stroke-opacity:1"
       d="m 246.6357,216.9678 -15.572,-24.255" /><path
       inkscape:connector-curvature="0"
       id="path3403"
       style="fill:#231f20;fill-opacity:1;fill-rule:nonzero;stroke:#cd5c5c;stroke-width:7.18085527;stroke-linecap:round;stroke-linejoin:miter;stroke-miterlimit:10;stroke-dasharray:none;stroke-opacity:1"
       d="m 241.06465,185.62785 -10.47513,7.27612" /><path
       inkscape:connector-curvature="0"
       id="path3407"
       style="fill:#231f20;fill-opacity:1;fill-rule:nonzero;stroke:#cd5c5c;stroke-width:7;stroke-linecap:round;stroke-linejoin:miter;stroke-miterlimit:10;stroke-dasharray:none;stroke-opacity:1"
       d="m 244.4658,185.6558 10.943,17.705" /><path
       inkscape:connector-curvature="0"
       id="path3411"
       style="fill:#231f20;fill-opacity:1;fill-rule:nonzero;stroke:#cd5c5c;stroke-width:7;stroke-linecap:round;stroke-linejoin:miter;stroke-miterlimit:10;stroke-dasharray:none;stroke-opacity:1"
       d="m 241.1562,185.5366 21.044,-4.839" /><path
       inkscape:connector-curvature="0"
       id="path3415"
       style="fill:#cd5c5c;fill-opacity:1;fill-rule:nonzero;stroke:none"
       d="m 80.5122,99.3291 c 15.367,10.437 17.843,30.175 18.555,47.192 0.453,10.834 -0.087,22.308 2.243,32.942 0.734,3.348 3.207,10.852 7.471,6.698 2.603,-2.536 3.346,-7.289 4.123,-10.668 4.032,-17.534 1.198,-39.441 16.743,-51.952 6.723,-5.411 15.816,-5.509 24.036,-5.393 10.299,0.147 20.579,0.898 30.878,0.956 4.835,0.028 4.838,7.528 0,7.5 -10.296,-0.058 -20.584,-0.74 -30.878,-0.956 -10.415,-0.217 -18.971,0.798 -24.95,10.203 -5.44,8.557 -5.279,20.132 -6.568,29.877 -1.058,7.992 -1.997,18.359 -7.366,24.869 -4.433,5.376 -11.704,5.939 -16.312,0.502 -5.869,-6.924 -5.696,-17.737 -6.18,-26.25 -1.054,-18.553 2.362,-46.859 -15.58,-59.043 -3.976,-2.701 -0.228,-9.203 3.785,-6.477" /><path
       inkscape:connector-curvature="0"
       id="path3419"
       style="fill:none;stroke:#cd5c5c;stroke-width:7;stroke-linecap:round;stroke-linejoin:round;stroke-miterlimit:10;stroke-dasharray:none;stroke-opacity:1"
       d="m 176.9785,132.2139 9.427,-9.426 -9.427,-9.426" /><path
       inkscape:connector-curvature="0"
       id="path3423"
       style="fill:none;stroke:#6d6e70;stroke-width:5;stroke-linecap:round;stroke-linejoin:round;stroke-miterlimit:10;stroke-dasharray:none;stroke-opacity:1"
       d="m 210.7578,38.9209 7.972,-9.785" /><path
       inkscape:connector-curvature="0"
       id="path3427"
       style="fill:none;stroke:#6d6e70;stroke-width:8;stroke-linecap:butt;stroke-linejoin:miter;stroke-miterlimit:10;stroke-dasharray:none;stroke-opacity:1"
       d="m 198.5713,139.2764 c 0,-40.141 -32.541,-72.682 -72.682,-72.682 -40.141,0 -72.681,32.541 -72.681,72.682 0,40.14 32.54,72.681 72.681,72.681 40.141,0 72.682,-32.541 72.682,-72.681 z" /><path
       inkscape:connector-curvature="0"
       id="path3431"
       style="fill:none;stroke:#6d6e70;stroke-width:5;stroke-linecap:butt;stroke-linejoin:miter;stroke-miterlimit:10;stroke-dasharray:none;stroke-opacity:1"
       d="m 64.8887,210.3696 c 0,-4.376 -3.548,-7.924 -7.924,-7.924 -4.376,0 -7.924,3.548 -7.924,7.924 0,4.376 3.548,7.924 7.924,7.924 4.376,0 7.924,-3.548 7.924,-7.924 z" /><path
       inkscape:connector-curvature="0"
       id="path3435"
       style="fill:none;stroke:#6d6e70;stroke-width:5;stroke-linecap:butt;stroke-linejoin:miter;stroke-miterlimit:10;stroke-dasharray:none;stroke-opacity:1"
       d="m 109.1963,235.853 c 0,-4.376 -3.547,-7.924 -7.924,-7.924 -4.376,0 -7.924,3.548 -7.924,7.924 0,4.376 3.548,7.924 7.924,7.924 4.377,0 7.924,-3.548 7.924,-7.924 z" /><path
       inkscape:connector-curvature="0"
       id="path3439"
       style="fill:none;stroke:#6d6e70;stroke-width:5;stroke-linecap:butt;stroke-linejoin:miter;stroke-miterlimit:10;stroke-dasharray:none;stroke-opacity:1"
       d="m 37.9653,166.3452 c 0,-4.376 -3.548,-7.924 -7.924,-7.924 -4.376,0 -7.924,3.548 -7.924,7.924 0,4.376 3.548,7.924 7.924,7.924 4.376,0 7.924,-3.548 7.924,-7.924 z" /><path
       inkscape:connector-curvature="0"
       id="path3443"
       style="fill:none;stroke:#6d6e70;stroke-width:5;stroke-linecap:butt;stroke-linejoin:miter;stroke-miterlimit:10;stroke-dasharray:none;stroke-opacity:1"
       d="m 38.9653,111.3662 c 0,-4.377 -3.548,-7.924 -7.924,-7.924 -4.376,0 -7.924,3.547 -7.924,7.924 0,4.375 3.548,7.924 7.924,7.924 4.376,0 7.924,-3.549 7.924,-7.924 z" /><path
       inkscape:connector-curvature="0"
       id="path3447"
       style="fill:none;stroke:#6d6e70;stroke-width:5;stroke-linecap:butt;stroke-linejoin:miter;stroke-miterlimit:10;stroke-dasharray:none;stroke-opacity:1"
       d="m 63.3076,69.5361 c 0,-4.375 -3.547,-7.922 -7.924,-7.922 -4.376,0 -7.924,3.547 -7.924,7.922 0,4.377 3.548,7.926 7.924,7.926 4.377,0 7.924,-3.549 7.924,-7.926 z" /><path
       inkscape:connector-curvature="0"
       id="path3451"
       style="fill:none;stroke:#6d6e70;stroke-width:5;stroke-linecap:butt;stroke-linejoin:miter;stroke-miterlimit:10;stroke-dasharray:none;stroke-opacity:1"
       d="m 114.1401,42.4697 c 0,-4.375 -3.548,-7.922 -7.924,-7.922 -4.376,0 -7.924,3.547 -7.924,7.922 0,4.377 3.548,7.926 7.924,7.926 4.376,0 7.924,-3.549 7.924,-7.926 z" /><path
       inkscape:connector-curvature="0"
       id="path3455"
       style="fill:none;stroke:#6d6e70;stroke-width:5;stroke-linecap:round;stroke-linejoin:miter;stroke-miterlimit:10;stroke-dasharray:none;stroke-opacity:1"
       d="m 103.1582,228.1646 4.387,-17.318" /><path
       inkscape:connector-curvature="0"
       id="path3459"
       style="fill:none;stroke:#6d6e70;stroke-width:5;stroke-linecap:round;stroke-linejoin:miter;stroke-miterlimit:10;stroke-dasharray:none;stroke-opacity:1"
       d="m 62.5615,204.7607 12.438,-12.562" /><path
       inkscape:connector-curvature="0"
       id="path3463"
       style="fill:none;stroke:#6d6e70;stroke-width:5;stroke-linecap:round;stroke-linejoin:miter;stroke-miterlimit:10;stroke-dasharray:none;stroke-opacity:1"
       d="m 163.3506,75.583 5.818,-9.951" /><path
       inkscape:connector-curvature="0"
       id="path3467"
       style="fill:none;stroke:#6d6e70;stroke-width:5;stroke-linecap:round;stroke-linejoin:miter;stroke-miterlimit:10;stroke-dasharray:none;stroke-opacity:1"
       d="m 37.6372,164.0991 17.728,-5.177" /><path
       inkscape:connector-curvature="0"
       id="path3471"
       style="fill:none;stroke:#6d6e70;stroke-width:5;stroke-linecap:round;stroke-linejoin:miter;stroke-miterlimit:10;stroke-dasharray:none;stroke-opacity:1"
       d="m 38.6411,113.5967 16.655,5.186" /><path
       inkscape:connector-curvature="0"
       id="path3475"
       style="fill:none;stroke:#6d6e70;stroke-width:5;stroke-linecap:round;stroke-linejoin:miter;stroke-miterlimit:10;stroke-dasharray:none;stroke-opacity:1"
       d="M 61.271,74.835 74.013,87.636" /><path
       inkscape:connector-curvature="0"
       id="path3479"
       style="fill:none;stroke:#6d6e70;stroke-width:5;stroke-linecap:round;stroke-linejoin:miter;stroke-miterlimit:10;stroke-dasharray:none;stroke-opacity:1"
       d="m 108.3291,50.1025 3.516,17.85" /><path
       inkscape:connector-curvature="0"
       id="path3483"
       style="fill:none;stroke:#6d6e70;stroke-width:5;stroke-linecap:round;stroke-linejoin:round;stroke-miterlimit:10;stroke-dasharray:none;stroke-opacity:1"
       d="m 181.3398,73.7334 c -12.627,-9.283 -12.445,-8.943 -25.766,-14.715" /><path
       inkscape:connector-curvature="0"
       id="path3487"
       style="fill:none;stroke:#6d6e70;stroke-width:5;stroke-linecap:round;stroke-linejoin:round;stroke-miterlimit:10;stroke-dasharray:none;stroke-opacity:1"
       d="m 202.7314,63.7314 c 0,0 -5.849,-6.068 -14.927,-12.193" /><path
       inkscape:connector-curvature="0"
       id="path3491"
       style="fill:none;stroke:#6d6e70;stroke-width:5;stroke-linecap:round;stroke-linejoin:round;stroke-miterlimit:10;stroke-dasharray:none;stroke-opacity:1"
       d="m 241.8721,107.8701 22.752,-6.102" /><path
       inkscape:connector-curvature="0"
       id="path3495"
       style="fill:none;stroke:#6d6e70;stroke-width:5;stroke-linecap:round;stroke-linejoin:round;stroke-miterlimit:10;stroke-dasharray:none;stroke-opacity:1"
       d="m 229.7471,79.5459 20.61,-12.123" /><path
       inkscape:connector-curvature="0"
       id="path3499"
       style="fill:none;stroke:#6d6e70;stroke-width:5;stroke-linecap:round;stroke-linejoin:round;stroke-miterlimit:10;stroke-dasharray:none;stroke-opacity:1"
       d="m 181.5752,73.7334 13.919,-16.486" /><path
       inkscape:connector-curvature="0"
       id="path3503"
       style="fill:none;stroke:#6d6e70;stroke-width:5;stroke-linecap:round;stroke-linejoin:round;stroke-miterlimit:10;stroke-dasharray:none;stroke-opacity:1"
       d="m 203.0049,63.458 25.132,-25.131" /><path
       inkscape:connector-curvature="0"
       id="path3507"
       style="fill:none;stroke:#6d6e70;stroke-width:5;stroke-linecap:round;stroke-linejoin:round;stroke-miterlimit:10;stroke-dasharray:none;stroke-opacity:1"
       d="m 187.8047,51.5381 13.442,-19.283" /><path
       inkscape:connector-curvature="0"
       id="path3511"
       style="fill:none;stroke:#6d6e70;stroke-width:5;stroke-linecap:round;stroke-linejoin:round;stroke-miterlimit:10;stroke-dasharray:none;stroke-opacity:1"
       d="m 155.5742,59.0186 19.863,-54.574" /><path
       inkscape:connector-curvature="0"
       id="path3515"
       style="fill:none;stroke:#6d6e70;stroke-width:5;stroke-linecap:round;stroke-linejoin:round;stroke-miterlimit:10;stroke-dasharray:none;stroke-opacity:1"
       d="m 196.582,235.5264 14.394,18.979" /><path
       inkscape:connector-curvature="0"
       id="path3519"
       style="fill:none;stroke:#6d6e70;stroke-width:5;stroke-linecap:round;stroke-linejoin:round;stroke-miterlimit:10;stroke-dasharray:none;stroke-opacity:1"
       d="m 166.2197,251.4126 c 0,0 19.673,-7.241 30.056,-15.984" /><path
       inkscape:connector-curvature="0"
       id="path3523"
       style="fill:none;stroke:#6d6e70;stroke-width:5;stroke-linecap:round;stroke-linejoin:round;stroke-miterlimit:10;stroke-dasharray:none;stroke-opacity:1"
       d="m 166.3555,251.8228 8.006,22.016" /><path
       inkscape:connector-curvature="0"
       id="path3527"
       style="fill:none;stroke:#6d6e70;stroke-width:5;stroke-linecap:round;stroke-linejoin:round;stroke-miterlimit:10;stroke-dasharray:none;stroke-opacity:1"
       d="m 168.2988,218.8457 13.782,25.562" /><path
       inkscape:connector-curvature="0"
       id="path3531"
       style="fill:none;stroke:#6d6e70;stroke-width:5;stroke-linecap:round;stroke-linejoin:round;stroke-miterlimit:10;stroke-dasharray:none;stroke-opacity:1"
       d="m 141.5503,228.6982 9.182,51.473" /><path
       inkscape:connector-curvature="0"
       id="path3535"
       style="fill:none;stroke:#6d6e70;stroke-width:5;stroke-linecap:round;stroke-linejoin:round;stroke-miterlimit:10;stroke-dasharray:none;stroke-opacity:1"
       d="m 141.5503,228.1045 c 0,0 14.577,-2.469 26.574,-9.259" /><path
       inkscape:connector-curvature="0"
       id="path3539"
       style="fill:none;stroke:#6d6e70;stroke-width:5;stroke-linecap:round;stroke-linejoin:miter;stroke-miterlimit:10;stroke-dasharray:none;stroke-opacity:1"
       d="m 150.1895,207.6953 5.81,16.027" /><path
       inkscape:connector-curvature="0"
       id="path3543"
       style="fill:none;stroke:#6d6e70;stroke-width:5;stroke-linecap:round;stroke-linejoin:round;stroke-miterlimit:10;stroke-dasharray:none;stroke-opacity:1"
       d="m 243.7275,160.0605 23.66,4.352" /><path
       inkscape:connector-curvature="0"
       id="path3547"
       style="fill:none;stroke:#6d6e70;stroke-width:5;stroke-linecap:round;stroke-linejoin:round;stroke-miterlimit:10;stroke-dasharray:none;stroke-opacity:1"
       d="m 243.8184,118.8018 23.569,-4.281" /><path
       inkscape:connector-curvature="0"
       id="path3551"
       style="fill:none;stroke:#6d6e70;stroke-width:5;stroke-linecap:round;stroke-linejoin:round;stroke-miterlimit:10;stroke-dasharray:none;stroke-opacity:1"
       d="m 222.3516,139.4307 22.561,-0.08" /><path
       inkscape:connector-curvature="0"
       id="path3555"
       style="fill:none;stroke:#6d6e70;stroke-width:5;stroke-linecap:round;stroke-linejoin:round;stroke-miterlimit:10;stroke-dasharray:none;stroke-opacity:1"
       d="m 214.6357,103.2842 21.948,-8.826" /><path
       inkscape:connector-curvature="0"
       id="path3559"
       style="fill:none;stroke:#6d6e70;stroke-width:5;stroke-linecap:round;stroke-linejoin:round;stroke-miterlimit:10;stroke-dasharray:none;stroke-opacity:1"
       d="m 241.4512,107.9619 c 0,0 -4.463,-16.941 -11.749,-28.143" /><path
       inkscape:connector-curvature="0"
       id="path3563"
       style="fill:none;stroke:#6d6e70;stroke-width:5;stroke-linecap:round;stroke-linejoin:round;stroke-miterlimit:10;stroke-dasharray:none;stroke-opacity:1"
       d="m 221.8574,139.4307 c 0,0 0.717,-17.123 -7.222,-36.146" /><path
       inkscape:connector-curvature="0"
       id="path3567"
       style="fill:none;stroke:#6d6e70;stroke-width:5;stroke-linecap:round;stroke-linejoin:miter;stroke-miterlimit:10;stroke-dasharray:none;stroke-opacity:1"
       d="m 197.4375,125.1084 22.486,-4.553" /><path
       inkscape:connector-curvature="0"
       id="path3571"
       style="fill:none;stroke:#6d6e70;stroke-width:5;stroke-linecap:round;stroke-linejoin:round;stroke-miterlimit:10;stroke-dasharray:none;stroke-opacity:1"
       d="m 243.7275,159.9697 c 0,0 3.461,-26.049 0,-41.076" /></g></svg>