<?xml version="1.0" encoding="utf-8"?>
<!-- Generator: Adobe Illustrator 16.0.4, SVG Export Plug-In . SVG Version: 6.00 Build 0)  -->
<!DOCTYPE svg PUBLIC "-//W3C//DTD SVG 1.1//EN" "http://www.w3.org/Graphics/SVG/1.1/DTD/svg11.dtd">
<svg version="1.1" id="Layer_1" xmlns="http://www.w3.org/2000/svg" xmlns:xlink="http://www.w3.org/1999/xlink" x="0px" y="0px"
	 width="688px" height="289px" viewBox="0 0 688 289" enable-background="new 0 0 688 289" xml:space="preserve">
<path fill="none" stroke="#CD5C5C" stroke-width="5" stroke-miterlimit="10" d="M282.923,100.71"/>
<path fill="none" stroke="#CD5C5C" stroke-width="5" stroke-miterlimit="10" d="M275.108,195.145"/>
<line fill="none" stroke="#3081A1" stroke-width="7" stroke-linecap="round" stroke-miterlimit="10" x1="232.636" y1="70.323" x2="217.063" y2="94.578"/>
<line fill="none" stroke="#CD5C5C" stroke-width="7" stroke-linecap="round" stroke-miterlimit="10" x1="175.037" y1="108.555" x2="196.633" y2="93.145"/>
<line fill="none" stroke="#CD5C5C" stroke-width="7" stroke-linecap="round" stroke-miterlimit="10" x1="196.976" y1="92.578" x2="211.103" y2="44.37"/>
<line fill="none" stroke="#CD5C5C" stroke-width="7" stroke-linecap="round" stroke-miterlimit="10" x1="203.497" y1="70.323" x2="226.206" y2="61.202"/>
<line fill="none" stroke="#CD5C5C" stroke-width="7" stroke-linecap="round" stroke-miterlimit="10" x1="196.976" y1="92.578" x2="217.063" y2="94.578"/>
<line fill="none" stroke="#CD5C5C" stroke-width="7" stroke-linecap="round" stroke-miterlimit="10" x1="227.156" y1="101.754" x2="217.063" y2="94.578"/>
<line fill="none" stroke="#CD5C5C" stroke-width="7" stroke-linecap="round" stroke-miterlimit="10" x1="230.466" y1="101.635" x2="241.409" y2="83.93"/>
<line fill="none" stroke="#CD5C5C" stroke-width="7" stroke-linecap="round" stroke-miterlimit="10" x1="227.156" y1="101.754" x2="248.2" y2="106.593"/>
<g>
	<g>
		<path fill="#CD5C5C" d="M66.512,187.962c15.367-10.437,17.843-30.175,18.555-47.192c0.453-10.834-0.087-22.307,2.243-32.941
			c0.734-3.349,3.207-10.853,7.471-6.698c2.604,2.536,3.347,7.288,4.123,10.667c4.032,17.534,1.198,39.44,16.743,51.952
			c6.724,5.411,15.815,5.509,24.036,5.393c10.299-0.146,20.579-0.896,30.878-0.955c4.835-0.027,4.838-7.527,0-7.5
			c-10.296,0.059-20.584,0.74-30.878,0.955c-10.416,0.219-18.972-0.797-24.95-10.203c-5.439-8.557-5.278-20.131-6.567-29.876
			c-1.059-7.992-1.997-18.359-7.366-24.869c-4.433-5.375-11.705-5.938-16.312-0.502c-5.867,6.924-5.694,17.737-6.179,26.25
			c-1.055,18.554,2.362,46.859-15.581,59.044C58.751,184.186,62.499,190.688,66.512,187.962L66.512,187.962z"/>
	</g>
</g>
<polyline fill="none" stroke="#CD5C5C" stroke-width="7" stroke-linecap="round" stroke-linejoin="round" stroke-miterlimit="10" points="
	162.979,155.077 172.405,164.503 162.979,173.93 "/>
<circle fill="none" stroke="#777777" stroke-width="8" stroke-miterlimit="10" cx="111.89" cy="148.015" r="72.682"/>
<g>
	<path fill="none" stroke="#777777" stroke-width="5" stroke-linecap="round" stroke-miterlimit="10" d="M255.62,148.221"/>
	<path fill="none" stroke="#777777" stroke-width="5" stroke-linecap="round" stroke-miterlimit="10" d="M196.329,248.73
		c-0.187,0.215-7.525,6.306-17.891,12.609"/>
	
		<line fill="none" stroke="#777777" stroke-width="5" stroke-linecap="round" stroke-miterlimit="10" x1="178.178" y1="261.493" x2="184.286" y2="272.109"/>
	
		<line fill="none" stroke="#777777" stroke-width="5" stroke-linecap="round" stroke-miterlimit="10" x1="196.758" y1="248.37" x2="204.729" y2="258.154"/>
	<path fill="none" stroke="#777777" stroke-width="5" stroke-linecap="round" stroke-miterlimit="10" d="M250.026,147.745"/>
	<path fill="none" stroke="#777777" stroke-width="5" stroke-linecap="round" stroke-miterlimit="10" d="M112.23,4.831"/>
	
		<circle fill="none" stroke="#777777" stroke-width="5" stroke-linecap="round" stroke-miterlimit="10" cx="42.965" cy="76.921" r="7.924"/>
	
		<circle fill="none" stroke="#777777" stroke-width="5" stroke-linecap="round" stroke-miterlimit="10" cx="87.272" cy="51.438" r="7.924"/>
	
		<circle fill="none" stroke="#777777" stroke-width="5" stroke-linecap="round" stroke-miterlimit="10" cx="16.041" cy="120.945" r="7.924"/>
	
		<circle fill="none" stroke="#777777" stroke-width="5" stroke-linecap="round" stroke-miterlimit="10" cx="17.041" cy="175.925" r="7.924"/>
	
		<circle fill="none" stroke="#777777" stroke-width="5" stroke-linecap="round" stroke-miterlimit="10" cx="41.384" cy="217.755" r="7.924"/>
	
		<circle fill="none" stroke="#777777" stroke-width="5" stroke-linecap="round" stroke-miterlimit="10" cx="92.216" cy="244.821" r="7.924"/>
	
		<line fill="none" stroke="#777777" stroke-width="5" stroke-linecap="round" stroke-miterlimit="10" x1="89.158" y1="59.126" x2="93.545" y2="76.444"/>
	
		<line fill="none" stroke="#777777" stroke-width="5" stroke-linecap="round" stroke-miterlimit="10" x1="48.562" y1="82.53" x2="61" y2="95.092"/>
	
		<line fill="none" stroke="#777777" stroke-width="5" stroke-linecap="round" stroke-miterlimit="10" x1="149.351" y1="211.708" x2="155.169" y2="221.659"/>
	
		<line fill="none" stroke="#777777" stroke-width="5" stroke-linecap="round" stroke-miterlimit="10" x1="23.637" y1="123.191" x2="41.365" y2="128.369"/>
	
		<line fill="none" stroke="#777777" stroke-width="5" stroke-linecap="round" stroke-miterlimit="10" x1="24.641" y1="173.693" x2="41.296" y2="168.509"/>
	
		<line fill="none" stroke="#777777" stroke-width="5" stroke-linecap="round" stroke-miterlimit="10" x1="47.271" y1="212.456" x2="60.013" y2="199.654"/>
	
		<line fill="none" stroke="#777777" stroke-width="5" stroke-linecap="round" stroke-miterlimit="10" x1="94.329" y1="237.188" x2="97.845" y2="219.339"/>
	<path fill="none" stroke="#777777" stroke-width="5" stroke-linecap="round" stroke-miterlimit="10" d="M167.34,213.559
		c-12.627,9.282-12.445,8.942-25.766,14.715"/>
	<path fill="none" stroke="#777777" stroke-width="5" stroke-linecap="round" stroke-miterlimit="10" d="M188.731,223.561
		c0,0-5.849,6.067-14.927,12.192"/>
	
		<line fill="none" stroke="#777777" stroke-width="5" stroke-linecap="round" stroke-miterlimit="10" x1="227.872" y1="179.421" x2="250.624" y2="185.521"/>
	
		<line fill="none" stroke="#777777" stroke-width="5" stroke-linecap="round" stroke-miterlimit="10" x1="215.747" y1="207.745" x2="236.357" y2="219.868"/>
	
		<line fill="none" stroke="#777777" stroke-width="5" stroke-linecap="round" stroke-miterlimit="10" x1="167.575" y1="213.559" x2="181.494" y2="230.044"/>
	
		<line fill="none" stroke="#777777" stroke-width="5" stroke-linecap="round" stroke-miterlimit="10" x1="189.005" y1="223.833" x2="214.137" y2="248.964"/>
	
		<line fill="none" stroke="#777777" stroke-width="5" stroke-linecap="round" stroke-miterlimit="10" x1="173.805" y1="235.753" x2="187.247" y2="255.036"/>
	
		<line fill="none" stroke="#777777" stroke-width="5" stroke-linecap="round" stroke-miterlimit="10" x1="141.574" y1="228.271" x2="161.438" y2="282.848"/>
	<path fill="none" stroke="#777777" stroke-width="5" stroke-linecap="round" stroke-miterlimit="10" d="M154.553,169.503"/>
	
		<line fill="none" stroke="#777777" stroke-width="5" stroke-linecap="round" stroke-miterlimit="10" x1="182.582" y1="51.765" x2="196.976" y2="32.786"/>
	<path fill="none" stroke="#777777" stroke-width="5" stroke-linecap="round" stroke-miterlimit="10" d="M152.22,35.878
		c0,0,19.673,7.241,30.056,15.984"/>
	
		<line fill="none" stroke="#777777" stroke-width="5" stroke-linecap="round" stroke-miterlimit="10" x1="152.355" y1="35.468" x2="160.361" y2="13.452"/>
	
		<line fill="none" stroke="#777777" stroke-width="5" stroke-linecap="round" stroke-miterlimit="10" x1="154.299" y1="68.445" x2="168.081" y2="42.883"/>
	
		<line fill="none" stroke="#777777" stroke-width="5" stroke-linecap="round" stroke-miterlimit="10" x1="127.551" y1="58.593" x2="136.732" y2="7.12"/>
	<path fill="none" stroke="#777777" stroke-width="5" stroke-linecap="round" stroke-miterlimit="10" d="M127.551,59.187
		c0,0,14.576,2.469,26.573,9.259"/>
	
		<line fill="none" stroke="#777777" stroke-width="5" stroke-linecap="round" stroke-miterlimit="10" x1="136.189" y1="79.596" x2="141.999" y2="63.568"/>
	
		<line fill="none" stroke="#777777" stroke-width="5" stroke-linecap="round" stroke-miterlimit="10" x1="229.728" y1="127.23" x2="253.388" y2="122.879"/>
	<path fill="none" stroke="#777777" stroke-width="5" stroke-linecap="round" stroke-miterlimit="10" d="M231.292,149.794"/>
	
		<line fill="none" stroke="#777777" stroke-width="5" stroke-linecap="round" stroke-miterlimit="10" x1="229.818" y1="168.488" x2="253.388" y2="172.771"/>
	
		<line fill="none" stroke="#777777" stroke-width="5" stroke-linecap="round" stroke-miterlimit="10" x1="208.352" y1="147.859" x2="230.912" y2="147.939"/>
	
		<line fill="none" stroke="#777777" stroke-width="5" stroke-linecap="round" stroke-miterlimit="10" x1="200.636" y1="184.007" x2="222.584" y2="192.833"/>
	<path fill="none" stroke="#777777" stroke-width="5" stroke-linecap="round" stroke-miterlimit="10" d="M227.451,179.329
		c0,0-4.464,16.94-11.749,28.144"/>
	<path fill="none" stroke="#777777" stroke-width="5" stroke-linecap="round" stroke-miterlimit="10" d="M207.857,147.859
		c0,0,0.718,17.123-7.222,36.146"/>
	
		<line fill="none" stroke="#777777" stroke-width="5" stroke-linecap="round" stroke-miterlimit="10" x1="183.438" y1="162.184" x2="205.924" y2="166.734"/>
	<path fill="none" stroke="#777777" stroke-width="5" stroke-linecap="round" stroke-miterlimit="10" d="M229.728,127.321
		c0,0,3.461,26.049,0,41.076"/>
</g>
<path fill="none" stroke="#3081A0" stroke-miterlimit="10" d="M303.834,157.71"/>
<path fill="none" stroke="#3081A0" stroke-miterlimit="10" d="M322.413,157.71"/>
<path fill="none" stroke="#3081A0" stroke-width="2" stroke-miterlimit="10" d="M516.477,157.71"/>
<path fill="none" stroke="#3081A0" stroke-width="2" stroke-miterlimit="10" d="M481.508,157.71"/>
<path fill="none" stroke="#CD5C5C" stroke-width="6" stroke-miterlimit="10" d="M306.931,157.71"/>
<path fill="none" stroke="#CD5C5C" stroke-width="6" stroke-linecap="round" stroke-miterlimit="10" d="M321.64,157.71"/>
<path fill="none" stroke="#CD5C5C" stroke-width="6" stroke-linecap="round" stroke-miterlimit="10" d="M345.446,157.71"/>
<g>
	
		<line fill="none" stroke="#CD5C5C" stroke-width="9" stroke-linecap="round" stroke-miterlimit="10" x1="398.541" y1="157.709" x2="430.67" y2="219.93"/>
	
		<line fill="none" stroke="#CD5C5C" stroke-width="9" stroke-linecap="round" stroke-miterlimit="10" x1="463.186" y1="157.709" x2="431.058" y2="219.93"/>
	
		<line fill="none" stroke="#FFFFFF" stroke-width="0.5" stroke-linecap="round" stroke-miterlimit="10" x1="398.541" y1="157.709" x2="430.67" y2="219.93"/>
	
		<line fill="none" stroke="#FFFFFF" stroke-width="0.5" stroke-linecap="round" stroke-miterlimit="10" x1="463.186" y1="157.709" x2="431.058" y2="219.93"/>
</g>
<g>
	
		<line fill="none" stroke="#CD5C5C" stroke-width="9" stroke-linecap="round" stroke-miterlimit="10" x1="549.636" y1="157.709" x2="581.765" y2="219.93"/>
	
		<line fill="none" stroke="#CD5C5C" stroke-width="9" stroke-linecap="round" stroke-miterlimit="10" x1="614.279" y1="157.709" x2="582.151" y2="219.93"/>
	
		<line fill="none" stroke="#FFFFFF" stroke-width="0.5" stroke-linecap="round" stroke-miterlimit="10" x1="549.636" y1="157.709" x2="581.765" y2="219.93"/>
	
		<line fill="none" stroke="#FFFFFF" stroke-width="0.5" stroke-linecap="round" stroke-miterlimit="10" x1="614.279" y1="157.709" x2="582.151" y2="219.93"/>
</g>
<g>
	
		<line fill="none" stroke="#CD5C5C" stroke-width="9" stroke-linecap="round" stroke-miterlimit="10" x1="380.316" y1="179.166" x2="380.316" y2="219.741"/>
	
		<line fill="none" stroke="#FFFFFF" stroke-width="0.5" stroke-linecap="round" stroke-miterlimit="10" x1="380.316" y1="179.166" x2="380.316" y2="219.741"/>
</g>
<g>
	<circle fill="none" stroke="#CD5C5C" stroke-width="7" stroke-miterlimit="10" cx="380.316" cy="162.904" r="6.194"/>
	<circle fill="none" stroke="#FFFFFF" stroke-width="0.5" stroke-miterlimit="10" cx="380.316" cy="162.904" r="6.194"/>
</g>
<g>
	<path fill="none" stroke="#CD5C5C" stroke-width="9" stroke-miterlimit="10" d="M680.316,188.16
		c0,16.82-13.988,30.453-31.226,30.453c-17.238,0-31.227-13.633-31.227-30.453c0-16.819,13.988-30.45,31.227-30.45
		C666.327,157.71,680.316,171.341,680.316,188.16z"/>
	<path fill="none" stroke="#FFFFFF" stroke-width="0.5" stroke-miterlimit="10" d="M680.316,188.16
		c0,16.82-13.988,30.453-31.226,30.453c-17.238,0-31.227-13.633-31.227-30.453c0-16.819,13.988-30.45,31.227-30.45
		C666.327,157.71,680.316,171.341,680.316,188.16z"/>
</g>
<g>
	
		<line fill="none" stroke="#CD5C5C" stroke-width="9" stroke-linecap="round" stroke-miterlimit="10" x1="498.927" y1="195.018" x2="532.217" y2="195.018"/>
	<path fill="none" stroke="#CD5C5C" stroke-width="9" stroke-linecap="round" stroke-miterlimit="10" d="M536.604,157.709h-26.706
		c-10.262,0-11.422,8.066-11.422,22.09v18.537v-0.33c0,14.025,1.16,22.092,11.422,22.092h28.853"/>
	<path fill="none" stroke="#FFFFFF" stroke-width="0.5" stroke-linecap="round" stroke-miterlimit="10" d="M536.604,157.709h-26.706
		c-10.262,0-11.422,8.066-11.422,22.09v18.537v-0.33c0,14.025,1.16,22.092,11.422,22.092h28.853"/>
	
		<line fill="none" stroke="#FFFFFF" stroke-width="0.5" stroke-linecap="round" stroke-miterlimit="10" x1="498.927" y1="195.018" x2="532.217" y2="195.018"/>
</g>
<g>
	<g>
		<path fill="none" stroke="#CD5C5C" stroke-width="6" stroke-miterlimit="10" d="M309.931,190.092"/>
		
			<line fill="none" stroke="#CD5C5C" stroke-width="6" stroke-linecap="round" stroke-miterlimit="10" x1="318.859" y1="157.71" x2="318.859" y2="219.376"/>
		
			<line fill="none" stroke="#CD5C5C" stroke-width="6" stroke-linecap="round" stroke-miterlimit="10" x1="360.613" y1="157.71" x2="360.613" y2="219.376"/>
		<path fill="none" stroke="#CD5C5C" stroke-width="6" stroke-linecap="round" stroke-miterlimit="10" d="M327.736,182.342"/>
		<path fill="none" stroke="#CD5C5C" stroke-width="6" stroke-linecap="round" stroke-miterlimit="10" d="M351.543,182.342"/>
		<path fill="none" stroke="#CD5C5C" stroke-width="6" stroke-miterlimit="10" d="M318.882,195.354
			c0-13.515,5.486-20.455,16.169-20.455h10.479c10.683,0,15.11,6.879,15.11,20.393c0,6.021,0,24.086,0,24.086"/>
	</g>
	
		<line fill="none" stroke="#CD5C5C" stroke-width="9" stroke-linecap="round" stroke-miterlimit="10" x1="318.859" y1="157.71" x2="318.859" y2="219.376"/>
	
		<line fill="none" stroke="#CD5C5C" stroke-width="9" stroke-linecap="round" stroke-miterlimit="10" x1="360.613" y1="157.71" x2="360.613" y2="219.376"/>
	<path fill="none" stroke="#CD5C5C" stroke-width="9" stroke-miterlimit="10" d="M318.882,195.354
		c0-13.515,5.486-20.455,16.169-20.455h10.479c10.683,0,15.11,6.879,15.11,20.393c0,6.021,0,24.086,0,24.086"/>
	<path fill="none" stroke="#FFFFFF" stroke-width="0.5" stroke-miterlimit="10" d="M318.882,188.047
		c0-8.688,5.486-13.148,16.169-13.148h10.479c10.683,0,15.11,4.422,15.11,13.107c0,3.87,0,15.48,0,15.48"/>
	
		<line fill="none" stroke="#FFFFFF" stroke-width="0.5" stroke-miterlimit="10" x1="318.859" y1="157.71" x2="318.859" y2="219.376"/>
	
		<line fill="none" stroke="#FFFFFF" stroke-width="0.5" stroke-miterlimit="10" x1="360.613" y1="157.71" x2="360.613" y2="219.376"/>
</g>
</svg>
