<?xml version="1.0" encoding="utf-8" standalone="no"?>
<!DOCTYPE svg PUBLIC "-//W3C//DTD SVG 1.1//EN"
  "http://www.w3.org/Graphics/SVG/1.1/DTD/svg11.dtd">
<!-- Created with matplotlib (http://matplotlib.org/) -->
<svg height="369pt" version="1.1" viewBox="0 0 441 369" width="441pt" xmlns="http://www.w3.org/2000/svg" xmlns:xlink="http://www.w3.org/1999/xlink">
 <defs>
  <style type="text/css">
*{stroke-linecap:butt;stroke-linejoin:round;}
  </style>
 </defs>
 <g id="figure_1">
  <g id="patch_1">
   <path d="
M0 369
L441 369
L441 0
L0 0
z
" style="fill:#ffffff;"/>
  </g>
  <g id="axes_1">
   <g id="patch_2">
    <path d="
M55.125 332.1
L396.9 332.1
L396.9 36.9
L55.125 36.9
z
" style="fill:#ffffff;"/>
   </g>
   <g id="matplotlib.axis_1">
    <g id="xtick_1">
     <g id="line2d_1">
      <path clip-path="url(#p27b2980692)" d="
M55.125 332.1
L55.125 36.9" style="fill:none;stroke:#cccccc;stroke-linecap:round;"/>
     </g>
     <g id="line2d_2">
      <defs>
       <path d="
M0 0
L0 0" id="m219da94a98" style="stroke:#262626;"/>
      </defs>
      <g>
       <use style="fill:#262626;stroke:#262626;" x="55.125" xlink:href="#m219da94a98" y="332.1"/>
      </g>
     </g>
     <g id="line2d_3">
      <g>
       <use style="fill:#262626;stroke:#262626;" x="55.125" xlink:href="#m219da94a98" y="36.9"/>
      </g>
     </g>
     <g id="text_1">
      <!-- 0 -->
      <defs>
       <path d="
M51.7031 34.4219
Q51.7031 24.5156 49.8281 17.75
Q47.9531 10.9844 44.7031 6.8125
Q41.4531 2.64062 37.0625 0.828125
Q32.6719 -0.984375 27.6875 -0.984375
Q22.6562 -0.984375 18.3125 0.828125
Q13.9688 2.64062 10.7656 6.78125
Q7.5625 10.9375 5.73438 17.7031
Q3.90625 24.4688 3.90625 34.4219
Q3.90625 44.8281 5.73438 51.6406
Q7.5625 58.4531 10.7812 62.5
Q14.0156 66.5469 18.4062 68.1875
Q22.7969 69.8281 27.9844 69.8281
Q32.9062 69.8281 37.2188 68.1875
Q41.5469 66.5469 44.7656 62.5
Q48 58.4531 49.8438 51.6406
Q51.7031 44.8281 51.7031 34.4219
M42.7812 34.4219
Q42.7812 42.625 41.7969 48.0625
Q40.8281 53.5156 38.9219 56.7656
Q37.0156 60.0156 34.25 61.3594
Q31.5 62.7031 27.9844 62.7031
Q24.2656 62.7031 21.4375 61.3281
Q18.6094 59.9688 16.6719 56.7188
Q14.75 53.4688 13.7656 48.0156
Q12.7969 42.5781 12.7969 34.4219
Q12.7969 26.5156 13.7969 21.0938
Q14.7969 15.6719 16.7188 12.375
Q18.6562 9.07812 21.4375 7.64062
Q24.2188 6.20312 27.7812 6.20312
Q31.25 6.20312 34.0312 7.64062
Q36.8125 9.07812 38.7344 12.375
Q40.6719 15.6719 41.7188 21.0938
Q42.7812 26.5156 42.7812 34.4219" id="LiberationSans-30"/>
      </defs>
      <g style="fill:#262626;" transform="translate(52.73515625 346.346875)scale(0.1 -0.1)">
       <use xlink:href="#LiberationSans-30"/>
      </g>
     </g>
    </g>
    <g id="xtick_2">
     <g id="line2d_4">
      <path clip-path="url(#p27b2980692)" d="
M93.1 332.1
L93.1 36.9" style="fill:none;stroke:#cccccc;stroke-linecap:round;"/>
     </g>
     <g id="line2d_5">
      <g>
       <use style="fill:#262626;stroke:#262626;" x="93.1" xlink:href="#m219da94a98" y="332.1"/>
      </g>
     </g>
     <g id="line2d_6">
      <g>
       <use style="fill:#262626;stroke:#262626;" x="93.1" xlink:href="#m219da94a98" y="36.9"/>
      </g>
     </g>
     <g id="text_2">
      <!-- 5 -->
      <defs>
       <path d="
M51.4219 22.4062
Q51.4219 17.2344 49.8594 12.9375
Q48.2969 8.64062 45.2188 5.53125
Q42.1406 2.4375 37.5781 0.71875
Q33.0156 -0.984375 27 -0.984375
Q21.5781 -0.984375 17.5469 0.28125
Q13.5312 1.5625 10.7344 3.78125
Q7.95312 6 6.3125 8.98438
Q4.6875 11.9688 4 15.375
L12.8906 16.4062
Q13.4219 14.4531 14.3906 12.625
Q15.375 10.7969 17.0625 9.34375
Q18.75 7.90625 21.2188 7.04688
Q23.6875 6.20312 27.2031 6.20312
Q30.6094 6.20312 33.3906 7.25
Q36.1875 8.29688 38.1562 10.3438
Q40.1406 12.4062 41.2031 15.375
Q42.2812 18.3594 42.2812 22.2188
Q42.2812 25.3906 41.25 28.0469
Q40.2344 30.7188 38.3281 32.6406
Q36.4219 34.5781 33.6562 35.6406
Q30.9062 36.7188 27.3906 36.7188
Q25.2031 36.7188 23.3438 36.3281
Q21.4844 35.9375 19.8906 35.25
Q18.3125 34.5781 17.0156 33.6719
Q15.7188 32.7656 14.5938 31.7812
L6 31.7812
L8.29688 68.7969
L47.4062 68.7969
L47.4062 61.3281
L16.3125 61.3281
L14.9844 39.5
Q17.3281 41.3125 20.8438 42.5938
Q24.3594 43.8906 29.2031 43.8906
Q34.3281 43.8906 38.4219 42.3281
Q42.5312 40.7656 45.4062 37.9062
Q48.2969 35.0625 49.8594 31.1094
Q51.4219 27.1562 51.4219 22.4062" id="LiberationSans-35"/>
      </defs>
      <g style="fill:#262626;" transform="translate(90.72890625 346.346875)scale(0.1 -0.1)">
       <use xlink:href="#LiberationSans-35"/>
      </g>
     </g>
    </g>
    <g id="xtick_3">
     <g id="line2d_7">
      <path clip-path="url(#p27b2980692)" d="
M131.075 332.1
L131.075 36.9" style="fill:none;stroke:#cccccc;stroke-linecap:round;"/>
     </g>
     <g id="line2d_8">
      <g>
       <use style="fill:#262626;stroke:#262626;" x="131.075" xlink:href="#m219da94a98" y="332.1"/>
      </g>
     </g>
     <g id="line2d_9">
      <g>
       <use style="fill:#262626;stroke:#262626;" x="131.075" xlink:href="#m219da94a98" y="36.9"/>
      </g>
     </g>
     <g id="text_3">
      <!-- 10 -->
      <defs>
       <path d="
M7.625 0
L7.625 7.46875
L25.1406 7.46875
L25.1406 60.4062
L9.625 49.3125
L9.625 57.625
L25.875 68.7969
L33.9844 68.7969
L33.9844 7.46875
L50.7344 7.46875
L50.7344 0
z
" id="LiberationSans-31"/>
      </defs>
      <g style="fill:#262626;" transform="translate(126.090625 346.346875)scale(0.1 -0.1)">
       <use xlink:href="#LiberationSans-31"/>
       <use x="55.615234375" xlink:href="#LiberationSans-30"/>
      </g>
     </g>
    </g>
    <g id="xtick_4">
     <g id="line2d_10">
      <path clip-path="url(#p27b2980692)" d="
M169.05 332.1
L169.05 36.9" style="fill:none;stroke:#cccccc;stroke-linecap:round;"/>
     </g>
     <g id="line2d_11">
      <g>
       <use style="fill:#262626;stroke:#262626;" x="169.05" xlink:href="#m219da94a98" y="332.1"/>
      </g>
     </g>
     <g id="line2d_12">
      <g>
       <use style="fill:#262626;stroke:#262626;" x="169.05" xlink:href="#m219da94a98" y="36.9"/>
      </g>
     </g>
     <g id="text_4">
      <!-- 15 -->
      <g style="fill:#262626;" transform="translate(164.0796875 346.346875)scale(0.1 -0.1)">
       <use xlink:href="#LiberationSans-31"/>
       <use x="55.615234375" xlink:href="#LiberationSans-35"/>
      </g>
     </g>
    </g>
    <g id="xtick_5">
     <g id="line2d_13">
      <path clip-path="url(#p27b2980692)" d="
M207.025 332.1
L207.025 36.9" style="fill:none;stroke:#cccccc;stroke-linecap:round;"/>
     </g>
     <g id="line2d_14">
      <g>
       <use style="fill:#262626;stroke:#262626;" x="207.025" xlink:href="#m219da94a98" y="332.1"/>
      </g>
     </g>
     <g id="line2d_15">
      <g>
       <use style="fill:#262626;stroke:#262626;" x="207.025" xlink:href="#m219da94a98" y="36.9"/>
      </g>
     </g>
     <g id="text_5">
      <!-- 20 -->
      <defs>
       <path d="
M5.03125 0
L5.03125 6.20312
Q7.51562 11.9219 11.1094 16.2812
Q14.7031 20.6562 18.6562 24.1875
Q22.6094 27.7344 26.4844 30.7656
Q30.375 33.7969 33.5 36.8125
Q36.625 39.8438 38.5469 43.1562
Q40.4844 46.4844 40.4844 50.6875
Q40.4844 53.6094 39.5938 55.8281
Q38.7188 58.0625 37.0625 59.5625
Q35.4062 61.0781 33.0781 61.8281
Q30.7656 62.5938 27.9375 62.5938
Q25.2969 62.5938 22.9688 61.8594
Q20.6562 61.1406 18.8438 59.6719
Q17.0469 58.2031 15.8906 56.0312
Q14.75 53.8594 14.4062 50.9844
L5.42188 51.8125
Q5.85938 55.5156 7.46875 58.7812
Q9.07812 62.0625 11.9062 64.5312
Q14.75 67 18.7188 68.4062
Q22.7031 69.8281 27.9375 69.8281
Q33.0625 69.8281 37.0625 68.6094
Q41.0625 67.3906 43.8125 64.9844
Q46.5781 62.5938 48.0469 59.0781
Q49.5156 55.5625 49.5156 50.9844
Q49.5156 47.5156 48.2656 44.3906
Q47.0156 41.2656 44.9375 38.4219
Q42.875 35.5938 40.1406 32.9531
Q37.4062 30.3281 34.4219 27.8125
Q31.4531 25.2969 28.4219 22.8281
Q25.3906 20.3594 22.7188 17.8594
Q20.0625 15.375 17.9688 12.8125
Q15.875 10.25 14.7031 7.46875
L50.5938 7.46875
L50.5938 0
z
" id="LiberationSans-32"/>
      </defs>
      <g style="fill:#262626;" transform="translate(201.9109375 346.346875)scale(0.1 -0.1)">
       <use xlink:href="#LiberationSans-32"/>
       <use x="55.615234375" xlink:href="#LiberationSans-30"/>
      </g>
     </g>
    </g>
    <g id="xtick_6">
     <g id="line2d_16">
      <path clip-path="url(#p27b2980692)" d="
M245 332.1
L245 36.9" style="fill:none;stroke:#cccccc;stroke-linecap:round;"/>
     </g>
     <g id="line2d_17">
      <g>
       <use style="fill:#262626;stroke:#262626;" x="245.0" xlink:href="#m219da94a98" y="332.1"/>
      </g>
     </g>
     <g id="line2d_18">
      <g>
       <use style="fill:#262626;stroke:#262626;" x="245.0" xlink:href="#m219da94a98" y="36.9"/>
      </g>
     </g>
     <g id="text_6">
      <!-- 25 -->
      <g style="fill:#262626;" transform="translate(239.9 346.346875)scale(0.1 -0.1)">
       <use xlink:href="#LiberationSans-32"/>
       <use x="55.615234375" xlink:href="#LiberationSans-35"/>
      </g>
     </g>
    </g>
    <g id="xtick_7">
     <g id="line2d_19">
      <path clip-path="url(#p27b2980692)" d="
M282.975 332.1
L282.975 36.9" style="fill:none;stroke:#cccccc;stroke-linecap:round;"/>
     </g>
     <g id="line2d_20">
      <g>
       <use style="fill:#262626;stroke:#262626;" x="282.975" xlink:href="#m219da94a98" y="332.1"/>
      </g>
     </g>
     <g id="line2d_21">
      <g>
       <use style="fill:#262626;stroke:#262626;" x="282.975" xlink:href="#m219da94a98" y="36.9"/>
      </g>
     </g>
     <g id="text_7">
      <!-- 30 -->
      <defs>
       <path d="
M51.2188 19
Q51.2188 14.2656 49.6719 10.5469
Q48.1406 6.84375 45.1875 4.26562
Q42.2344 1.70312 37.8594 0.359375
Q33.5 -0.984375 27.875 -0.984375
Q21.4844 -0.984375 17.1094 0.609375
Q12.75 2.20312 9.90625 4.8125
Q7.07812 7.42188 5.65625 10.7656
Q4.25 14.1094 3.8125 17.6719
L12.8906 18.5
Q13.2812 15.7656 14.3281 13.5156
Q15.375 11.2812 17.1875 9.67188
Q19 8.0625 21.625 7.17188
Q24.2656 6.29688 27.875 6.29688
Q34.5156 6.29688 38.2969 9.5625
Q42.0938 12.8438 42.0938 19.2812
Q42.0938 23.0938 40.4062 25.4062
Q38.7188 27.7344 36.2031 29.0312
Q33.6875 30.3281 30.7344 30.7656
Q27.7812 31.2031 25.2969 31.2031
L20.3125 31.2031
L20.3125 38.8125
L25.0938 38.8125
Q27.5938 38.8125 30.2656 39.3281
Q32.9531 39.8438 35.1719 41.1875
Q37.4062 42.5312 38.8438 44.8281
Q40.2812 47.125 40.2812 50.6875
Q40.2812 56.2031 37.0312 59.3906
Q33.7969 62.5938 27.3906 62.5938
Q21.5781 62.5938 17.9844 59.6094
Q14.4062 56.6406 13.8125 51.2188
L4.98438 51.9062
Q5.51562 56.4531 7.46875 59.8125
Q9.42188 63.1875 12.4219 65.4062
Q15.4375 67.625 19.2812 68.7188
Q23.1406 69.8281 27.4844 69.8281
Q33.25 69.8281 37.3906 68.375
Q41.5469 66.9375 44.1875 64.4688
Q46.8281 62.0156 48.0625 58.6875
Q49.3125 55.375 49.3125 51.6094
Q49.3125 48.5781 48.4844 45.9375
Q47.6562 43.3125 45.8906 41.2031
Q44.1406 39.1094 41.4219 37.5938
Q38.7188 36.0781 34.9062 35.2969
L34.9062 35.1094
Q39.0625 34.6719 42.1406 33.2188
Q45.2188 31.7812 47.2188 29.625
Q49.2188 27.4844 50.2188 24.75
Q51.2188 22.0156 51.2188 19" id="LiberationSans-33"/>
      </defs>
      <g style="fill:#262626;" transform="translate(277.8 346.346875)scale(0.1 -0.1)">
       <use xlink:href="#LiberationSans-33"/>
       <use x="55.615234375" xlink:href="#LiberationSans-30"/>
      </g>
     </g>
    </g>
    <g id="xtick_8">
     <g id="line2d_22">
      <path clip-path="url(#p27b2980692)" d="
M320.95 332.1
L320.95 36.9" style="fill:none;stroke:#cccccc;stroke-linecap:round;"/>
     </g>
     <g id="line2d_23">
      <g>
       <use style="fill:#262626;stroke:#262626;" x="320.95" xlink:href="#m219da94a98" y="332.1"/>
      </g>
     </g>
     <g id="line2d_24">
      <g>
       <use style="fill:#262626;stroke:#262626;" x="320.95" xlink:href="#m219da94a98" y="36.9"/>
      </g>
     </g>
     <g id="text_8">
      <!-- 35 -->
      <g style="fill:#262626;" transform="translate(315.7890625 346.346875)scale(0.1 -0.1)">
       <use xlink:href="#LiberationSans-33"/>
       <use x="55.615234375" xlink:href="#LiberationSans-35"/>
      </g>
     </g>
    </g>
    <g id="xtick_9">
     <g id="line2d_25">
      <path clip-path="url(#p27b2980692)" d="
M358.925 332.1
L358.925 36.9" style="fill:none;stroke:#cccccc;stroke-linecap:round;"/>
     </g>
     <g id="line2d_26">
      <g>
       <use style="fill:#262626;stroke:#262626;" x="358.925" xlink:href="#m219da94a98" y="332.1"/>
      </g>
     </g>
     <g id="line2d_27">
      <g>
       <use style="fill:#262626;stroke:#262626;" x="358.925" xlink:href="#m219da94a98" y="36.9"/>
      </g>
     </g>
     <g id="text_9">
      <!-- 40 -->
      <defs>
       <path d="
M43.0156 15.5781
L43.0156 0
L34.7188 0
L34.7188 15.5781
L2.29688 15.5781
L2.29688 22.4062
L33.7969 68.7969
L43.0156 68.7969
L43.0156 22.5156
L52.6875 22.5156
L52.6875 15.5781
z

M34.7188 58.8906
Q34.625 58.6406 34.2344 57.9375
Q33.8438 57.2344 33.3438 56.3438
Q32.8594 55.4688 32.3438 54.5625
Q31.8438 53.6562 31.4531 53.0781
L13.8125 27.0938
Q13.5781 26.7031 13.1094 26.0625
Q12.6406 25.4375 12.1562 24.7812
Q11.6719 24.125 11.1719 23.4844
Q10.6875 22.8594 10.4062 22.5156
L34.7188 22.5156
z
" id="LiberationSans-34"/>
      </defs>
      <g style="fill:#262626;" transform="translate(353.67421875 346.346875)scale(0.1 -0.1)">
       <use xlink:href="#LiberationSans-34"/>
       <use x="55.615234375" xlink:href="#LiberationSans-30"/>
      </g>
     </g>
    </g>
    <g id="xtick_10">
     <g id="line2d_28">
      <path clip-path="url(#p27b2980692)" d="
M396.9 332.1
L396.9 36.9" style="fill:none;stroke:#cccccc;stroke-linecap:round;"/>
     </g>
     <g id="line2d_29">
      <g>
       <use style="fill:#262626;stroke:#262626;" x="396.9" xlink:href="#m219da94a98" y="332.1"/>
      </g>
     </g>
     <g id="line2d_30">
      <g>
       <use style="fill:#262626;stroke:#262626;" x="396.9" xlink:href="#m219da94a98" y="36.9"/>
      </g>
     </g>
     <g id="text_10">
      <!-- 45 -->
      <g style="fill:#262626;" transform="translate(391.66328125 346.346875)scale(0.1 -0.1)">
       <use xlink:href="#LiberationSans-34"/>
       <use x="55.615234375" xlink:href="#LiberationSans-35"/>
      </g>
     </g>
    </g>
    <g id="text_11">
     <!-- Phred score -->
     <defs>
      <path d="
M40.0938 8.5
Q37.6406 3.42188 33.6094 1.21875
Q29.5938 -0.984375 23.6406 -0.984375
Q13.625 -0.984375 8.90625 5.75
Q4.20312 12.5 4.20312 26.1719
Q4.20312 53.8125 23.6406 53.8125
Q29.6406 53.8125 33.6406 51.6094
Q37.6406 49.4219 40.0938 44.625
L40.1875 44.625
Q40.1875 45.125 40.1562 46.1719
Q40.1406 47.2188 40.1094 48.3594
Q40.0938 49.5156 40.0938 50.5312
Q40.0938 51.5625 40.0938 52
L40.0938 72.4688
L48.875 72.4688
L48.875 10.8906
Q48.875 8.98438 48.8906 7.21875
Q48.9219 5.46875 48.9688 4
Q49.0312 2.54688 49.0781 1.48438
Q49.125 0.4375 49.1719 0
L40.7656 0
Q40.6719 0.484375 40.5938 1.39062
Q40.5312 2.29688 40.4531 3.46875
Q40.375 4.64062 40.3281 5.9375
Q40.2812 7.23438 40.2812 8.5
z

M13.4219 26.4688
Q13.4219 21 14.1094 17.0938
Q14.7969 13.1875 16.3125 10.6719
Q17.8281 8.15625 20.1719 6.98438
Q22.5156 5.8125 25.875 5.8125
Q29.3438 5.8125 32 6.9375
Q34.6719 8.0625 36.4531 10.5781
Q38.2344 13.0938 39.1562 17.1406
Q40.0938 21.1875 40.0938 27.0469
Q40.0938 32.6719 39.1562 36.5469
Q38.2344 40.4375 36.4219 42.8281
Q34.625 45.2188 32 46.2656
Q29.3906 47.3125 25.9844 47.3125
Q22.75 47.3125 20.4062 46.1875
Q18.0625 45.0625 16.5 42.5781
Q14.9375 40.0938 14.1719 36.1094
Q13.4219 32.125 13.4219 26.4688" id="LiberationSans-64"/>
      <path d="
M6.9375 0
L6.9375 40.5312
Q6.9375 42.1875 6.90625 43.9219
Q6.89062 45.6562 6.82812 47.2656
Q6.78125 48.875 6.73438 50.2812
Q6.6875 51.7031 6.64062 52.8281
L14.9375 52.8281
Q14.9844 51.7031 15.0625 50.2656
Q15.1406 48.8281 15.2031 47.3125
Q15.2812 45.7969 15.2969 44.4062
Q15.3281 43.0156 15.3281 42.0469
L15.5312 42.0469
Q16.4531 45.0625 17.5 47.2812
Q18.5625 49.5156 19.9688 50.9531
Q21.3906 52.3906 23.3438 53.0938
Q25.2969 53.8125 28.0781 53.8125
Q29.1562 53.8125 30.125 53.6406
Q31.1094 53.4688 31.6406 53.3281
L31.6406 45.2656
Q30.7656 45.5156 29.5938 45.625
Q28.4219 45.75 26.9531 45.75
Q23.9219 45.75 21.7969 44.375
Q19.6719 43.0156 18.3281 40.5938
Q17 38.1875 16.3594 34.8438
Q15.7188 31.5 15.7188 27.5469
L15.7188 0
z
" id="LiberationSans-72"/>
      <path d="
M46.3906 14.5938
Q46.3906 10.8906 44.9375 7.98438
Q43.5 5.07812 40.7656 3.09375
Q38.0312 1.125 34.0469 0.0625
Q30.0781 -0.984375 24.9531 -0.984375
Q20.3594 -0.984375 16.6719 -0.265625
Q12.9844 0.4375 10.2031 2
Q7.42188 3.5625 5.53125 6.125
Q3.65625 8.6875 2.78125 12.4062
L10.5469 13.9219
Q11.6719 9.67188 15.1875 7.6875
Q18.7031 5.71875 24.9531 5.71875
Q27.7812 5.71875 30.1406 6.10938
Q32.5156 6.5 34.2188 7.45312
Q35.9375 8.40625 36.8906 9.98438
Q37.8438 11.5781 37.8438 13.9219
Q37.8438 16.3125 36.7188 17.8438
Q35.5938 19.3906 33.5938 20.4062
Q31.5938 21.4375 28.7344 22.1875
Q25.875 22.9531 22.4688 23.875
Q19.2812 24.7031 16.1562 25.7344
Q13.0312 26.7656 10.5156 28.4375
Q8.01562 30.125 6.45312 32.6094
Q4.89062 35.1094 4.89062 38.875
Q4.89062 46.0938 10.0312 49.875
Q15.1875 53.6562 25.0469 53.6562
Q33.7969 53.6562 38.9375 50.5781
Q44.0938 47.5156 45.4531 40.7188
L37.5469 39.75
Q37.1094 41.7969 35.9375 43.1875
Q34.7656 44.5781 33.1094 45.4375
Q31.4531 46.2969 29.375 46.6562
Q27.2969 47.0156 25.0469 47.0156
Q19.0938 47.0156 16.25 45.2031
Q13.4219 43.4062 13.4219 39.75
Q13.4219 37.5938 14.4688 36.2031
Q15.5312 34.8125 17.4062 33.8594
Q19.2812 32.9062 21.9219 32.2031
Q24.5625 31.5 27.7344 30.7188
Q29.8281 30.1719 32.0312 29.5625
Q34.2344 28.9531 36.2969 28.0938
Q38.375 27.25 40.2031 26.0938
Q42.0469 24.9531 43.4062 23.3438
Q44.7812 21.7344 45.5781 19.5781
Q46.3906 17.4375 46.3906 14.5938" id="LiberationSans-73"/>
      <path d="
M13.4844 24.5625
Q13.4844 20.4062 14.3281 16.9062
Q15.1875 13.4219 16.9688 10.9062
Q18.75 8.40625 21.5312 7
Q24.3125 5.60938 28.2188 5.60938
Q33.9375 5.60938 37.375 7.90625
Q40.8281 10.2031 42.0469 13.7188
L49.75 11.5312
Q48.9219 9.32812 47.4375 7.10938
Q45.9531 4.89062 43.4531 3.09375
Q40.9688 1.3125 37.2344 0.15625
Q33.5 -0.984375 28.2188 -0.984375
Q16.5 -0.984375 10.375 6
Q4.25 12.9844 4.25 26.7656
Q4.25 34.1875 6.09375 39.3281
Q7.95312 44.4844 11.1719 47.7031
Q14.4062 50.9219 18.7031 52.3594
Q23 53.8125 27.875 53.8125
Q34.5156 53.8125 38.9844 51.6562
Q43.4531 49.5156 46.1562 45.7188
Q48.875 41.9375 50.0156 36.8125
Q51.1719 31.6875 51.1719 25.7344
L51.1719 24.5625
z

M42.0938 31.2969
Q41.3594 39.6562 37.8438 43.4844
Q34.3281 47.3125 27.7344 47.3125
Q25.5312 47.3125 23.1094 46.6094
Q20.7031 45.9062 18.6562 44.0938
Q16.6094 42.2812 15.1875 39.1719
Q13.7656 36.0781 13.5781 31.2969
z
" id="LiberationSans-65"/>
      <path d="
M13.4219 26.6562
Q13.4219 22.125 14.0781 18.3125
Q14.75 14.5 16.3125 11.7344
Q17.875 8.98438 20.4375 7.46875
Q23 5.95312 26.7656 5.95312
Q31.4531 5.95312 34.5938 8.48438
Q37.75 11.0312 38.4844 16.3125
L47.3594 15.7188
Q46.9219 12.4531 45.4531 9.42188
Q44 6.39062 41.4844 4.09375
Q38.9688 1.8125 35.3438 0.40625
Q31.7344 -0.984375 27 -0.984375
Q20.7969 -0.984375 16.4531 1.10938
Q12.1094 3.21875 9.39062 6.90625
Q6.6875 10.5938 5.46875 15.5938
Q4.25 20.6094 4.25 26.4688
Q4.25 31.7812 5.125 35.8594
Q6 39.9375 7.59375 42.9844
Q9.1875 46.0469 11.3281 48.125
Q13.4844 50.2031 15.9844 51.4375
Q18.5 52.6875 21.2812 53.25
Q24.0781 53.8125 26.9062 53.8125
Q31.3438 53.8125 34.8125 52.5938
Q38.2812 51.375 40.7969 49.25
Q43.3125 47.125 44.875 44.2344
Q46.4375 41.3594 47.0781 38.0312
L38.0312 37.3594
Q37.3594 41.75 34.5625 44.3281
Q31.7812 46.9219 26.6562 46.9219
Q22.9062 46.9219 20.3906 45.6719
Q17.875 44.4375 16.3125 41.9219
Q14.75 39.4062 14.0781 35.5938
Q13.4219 31.7812 13.4219 26.6562" id="LiberationSans-63"/>
      <path d="
M15.4844 43.7969
Q16.9375 46.4844 18.6406 48.3594
Q20.3594 50.25 22.4062 51.4688
Q24.4688 52.6875 26.9062 53.25
Q29.3438 53.8125 32.375 53.8125
Q37.4531 53.8125 40.7031 52.4375
Q43.9531 51.0781 45.8281 48.6094
Q47.7031 46.1406 48.4062 42.7188
Q49.125 39.3125 49.125 35.2031
L49.125 0
L40.2812 0
L40.2812 33.5
Q40.2812 36.8594 39.8594 39.3906
Q39.4531 41.9375 38.2812 43.625
Q37.1094 45.3125 34.9531 46.1562
Q32.8125 47.0156 29.3906 47.0156
Q26.2656 47.0156 23.75 45.8906
Q21.2344 44.7812 19.4531 42.7188
Q17.6719 40.6719 16.6875 37.7344
Q15.7188 34.8125 15.7188 31.1562
L15.7188 0
L6.9375 0
L6.9375 72.4688
L15.7188 72.4688
L15.7188 53.6094
Q15.7188 52 15.6719 50.3906
Q15.625 48.7812 15.5469 47.4062
Q15.4844 46.0469 15.4219 45.0938
Q15.375 44.1406 15.3281 43.7969
z
" id="LiberationSans-68"/>
      <path d="
M51.4219 26.4688
Q51.4219 12.5938 45.3125 5.79688
Q39.2031 -0.984375 27.5938 -0.984375
Q22.0781 -0.984375 17.7188 0.671875
Q13.375 2.34375 10.375 5.76562
Q7.375 9.1875 5.78125 14.3281
Q4.20312 19.4844 4.20312 26.4688
Q4.20312 53.8125 27.875 53.8125
Q34.0312 53.8125 38.5 52.0938
Q42.9688 50.3906 45.8281 46.9688
Q48.6875 43.5625 50.0469 38.4219
Q51.4219 33.2969 51.4219 26.4688
M42.1875 26.4688
Q42.1875 32.625 41.2344 36.625
Q40.2812 40.625 38.4531 43.0156
Q36.625 45.4062 33.9844 46.3594
Q31.3438 47.3125 28.0312 47.3125
Q24.6562 47.3125 21.9375 46.3125
Q19.2344 45.3125 17.3281 42.8906
Q15.4375 40.4844 14.4219 36.4688
Q13.4219 32.4688 13.4219 26.4688
Q13.4219 20.3125 14.5 16.2812
Q15.5781 12.25 17.4531 9.85938
Q19.3438 7.46875 21.9062 6.48438
Q24.4688 5.51562 27.4844 5.51562
Q30.8594 5.51562 33.5938 6.46875
Q36.3281 7.42188 38.2344 9.8125
Q40.1406 12.2031 41.1562 16.25
Q42.1875 20.3125 42.1875 26.4688" id="LiberationSans-6f"/>
      <path id="LiberationSans-20"/>
      <path d="
M61.4219 48.0938
Q61.4219 43.6094 59.9375 39.7188
Q58.4531 35.8438 55.5 32.9844
Q52.5469 30.125 48.0938 28.4688
Q43.6562 26.8125 37.75 26.8125
L17.5312 26.8125
L17.5312 0
L8.20312 0
L8.20312 68.7969
L37.1562 68.7969
Q43.2656 68.7969 47.7969 67.3125
Q52.3438 65.8281 55.375 63.1094
Q58.4062 60.4062 59.9062 56.5625
Q61.4219 52.7344 61.4219 48.0938
M52.0469 48
Q52.0469 54.5469 48.0469 57.9375
Q44.0469 61.3281 36.0312 61.3281
L17.5312 61.3281
L17.5312 34.1875
L36.4219 34.1875
Q44.4844 34.1875 48.2656 37.75
Q52.0469 41.3125 52.0469 48" id="LiberationSans-50"/>
     </defs>
     <g style="fill:#262626;" transform="translate(196.6046875 361.3934375)scale(0.11 -0.11)">
      <use xlink:href="#LiberationSans-50"/>
      <use x="66.69921875" xlink:href="#LiberationSans-68"/>
      <use x="122.314453125" xlink:href="#LiberationSans-72"/>
      <use x="155.615234375" xlink:href="#LiberationSans-65"/>
      <use x="211.23046875" xlink:href="#LiberationSans-64"/>
      <use x="266.845703125" xlink:href="#LiberationSans-20"/>
      <use x="294.62890625" xlink:href="#LiberationSans-73"/>
      <use x="344.62890625" xlink:href="#LiberationSans-63"/>
      <use x="394.62890625" xlink:href="#LiberationSans-6f"/>
      <use x="450.244140625" xlink:href="#LiberationSans-72"/>
      <use x="483.544921875" xlink:href="#LiberationSans-65"/>
     </g>
    </g>
   </g>
   <g id="matplotlib.axis_2">
    <g id="ytick_1">
     <g id="line2d_31">
      <path clip-path="url(#p27b2980692)" d="
M55.125 332.1
L396.9 332.1" style="fill:none;stroke:#cccccc;stroke-linecap:round;"/>
     </g>
     <g id="line2d_32">
      <g>
       <use style="fill:#262626;stroke:#262626;" x="55.125" xlink:href="#m219da94a98" y="332.1"/>
      </g>
     </g>
     <g id="line2d_33">
      <g>
       <use style="fill:#262626;stroke:#262626;" x="396.9" xlink:href="#m219da94a98" y="332.1"/>
      </g>
     </g>
     <g id="text_12">
      <!-- $\mathdefault{10^{-5}}$ -->
      <defs>
       <path d="
M4.4375 22.6562
L4.4375 30.4688
L28.8594 30.4688
L28.8594 22.6562
z
" id="LiberationSans-2d"/>
      </defs>
      <g style="fill:#262626;" transform="translate(29.625 335.225)scale(0.1 -0.1)">
       <use transform="translate(0.0 0.8625)" xlink:href="#LiberationSans-31"/>
       <use transform="translate(55.615234375 0.8625)" xlink:href="#LiberationSans-30"/>
       <use transform="translate(111.23046875 54.8421875)scale(0.7)" xlink:href="#LiberationSans-2d"/>
       <use transform="translate(134.541015625 54.8421875)scale(0.7)" xlink:href="#LiberationSans-35"/>
      </g>
     </g>
    </g>
    <g id="ytick_2">
     <g id="line2d_34">
      <path clip-path="url(#p27b2980692)" d="
M55.125 273.06
L396.9 273.06" style="fill:none;stroke:#cccccc;stroke-linecap:round;"/>
     </g>
     <g id="line2d_35">
      <g>
       <use style="fill:#262626;stroke:#262626;" x="55.125" xlink:href="#m219da94a98" y="273.06"/>
      </g>
     </g>
     <g id="line2d_36">
      <g>
       <use style="fill:#262626;stroke:#262626;" x="396.9" xlink:href="#m219da94a98" y="273.06"/>
      </g>
     </g>
     <g id="text_13">
      <!-- $\mathdefault{10^{-4}}$ -->
      <g style="fill:#262626;" transform="translate(29.625 276.185)scale(0.1 -0.1)">
       <use transform="translate(0.0 0.8625)" xlink:href="#LiberationSans-31"/>
       <use transform="translate(55.615234375 0.8625)" xlink:href="#LiberationSans-30"/>
       <use transform="translate(111.23046875 54.8421875)scale(0.7)" xlink:href="#LiberationSans-2d"/>
       <use transform="translate(134.541015625 54.8421875)scale(0.7)" xlink:href="#LiberationSans-34"/>
      </g>
     </g>
    </g>
    <g id="ytick_3">
     <g id="line2d_37">
      <path clip-path="url(#p27b2980692)" d="
M55.125 214.02
L396.9 214.02" style="fill:none;stroke:#cccccc;stroke-linecap:round;"/>
     </g>
     <g id="line2d_38">
      <g>
       <use style="fill:#262626;stroke:#262626;" x="55.125" xlink:href="#m219da94a98" y="214.02"/>
      </g>
     </g>
     <g id="line2d_39">
      <g>
       <use style="fill:#262626;stroke:#262626;" x="396.9" xlink:href="#m219da94a98" y="214.02"/>
      </g>
     </g>
     <g id="text_14">
      <!-- $\mathdefault{10^{-3}}$ -->
      <g style="fill:#262626;" transform="translate(29.625 217.145)scale(0.1 -0.1)">
       <use transform="translate(0.0 0.140625)" xlink:href="#LiberationSans-31"/>
       <use transform="translate(55.615234375 0.140625)" xlink:href="#LiberationSans-30"/>
       <use transform="translate(111.23046875 54.1203125)scale(0.7)" xlink:href="#LiberationSans-2d"/>
       <use transform="translate(134.541015625 54.1203125)scale(0.7)" xlink:href="#LiberationSans-33"/>
      </g>
     </g>
    </g>
    <g id="ytick_4">
     <g id="line2d_40">
      <path clip-path="url(#p27b2980692)" d="
M55.125 154.98
L396.9 154.98" style="fill:none;stroke:#cccccc;stroke-linecap:round;"/>
     </g>
     <g id="line2d_41">
      <g>
       <use style="fill:#262626;stroke:#262626;" x="55.125" xlink:href="#m219da94a98" y="154.98"/>
      </g>
     </g>
     <g id="line2d_42">
      <g>
       <use style="fill:#262626;stroke:#262626;" x="396.9" xlink:href="#m219da94a98" y="154.98"/>
      </g>
     </g>
     <g id="text_15">
      <!-- $\mathdefault{10^{-2}}$ -->
      <g style="fill:#262626;" transform="translate(29.625 158.105)scale(0.1 -0.1)">
       <use transform="translate(0.0 0.140625)" xlink:href="#LiberationSans-31"/>
       <use transform="translate(55.615234375 0.140625)" xlink:href="#LiberationSans-30"/>
       <use transform="translate(111.23046875 54.1203125)scale(0.7)" xlink:href="#LiberationSans-2d"/>
       <use transform="translate(134.541015625 54.1203125)scale(0.7)" xlink:href="#LiberationSans-32"/>
      </g>
     </g>
    </g>
    <g id="ytick_5">
     <g id="line2d_43">
      <path clip-path="url(#p27b2980692)" d="
M55.125 95.94
L396.9 95.94" style="fill:none;stroke:#cccccc;stroke-linecap:round;"/>
     </g>
     <g id="line2d_44">
      <g>
       <use style="fill:#262626;stroke:#262626;" x="55.125" xlink:href="#m219da94a98" y="95.94"/>
      </g>
     </g>
     <g id="line2d_45">
      <g>
       <use style="fill:#262626;stroke:#262626;" x="396.9" xlink:href="#m219da94a98" y="95.94"/>
      </g>
     </g>
     <g id="text_16">
      <!-- $\mathdefault{10^{-1}}$ -->
      <g style="fill:#262626;" transform="translate(29.625 99.065)scale(0.1 -0.1)">
       <use transform="translate(0.0 0.8625)" xlink:href="#LiberationSans-31"/>
       <use transform="translate(55.615234375 0.8625)" xlink:href="#LiberationSans-30"/>
       <use transform="translate(111.23046875 54.8421875)scale(0.7)" xlink:href="#LiberationSans-2d"/>
       <use transform="translate(134.541015625 54.8421875)scale(0.7)" xlink:href="#LiberationSans-31"/>
      </g>
     </g>
    </g>
    <g id="ytick_6">
     <g id="line2d_46">
      <path clip-path="url(#p27b2980692)" d="
M55.125 36.9
L396.9 36.9" style="fill:none;stroke:#cccccc;stroke-linecap:round;"/>
     </g>
     <g id="line2d_47">
      <g>
       <use style="fill:#262626;stroke:#262626;" x="55.125" xlink:href="#m219da94a98" y="36.9"/>
      </g>
     </g>
     <g id="line2d_48">
      <g>
       <use style="fill:#262626;stroke:#262626;" x="396.9" xlink:href="#m219da94a98" y="36.9"/>
      </g>
     </g>
     <g id="text_17">
      <!-- $\mathdefault{10^{0}}$ -->
      <g style="fill:#262626;" transform="translate(32.025 40.025)scale(0.1 -0.1)">
       <use transform="translate(0.0 0.140625)" xlink:href="#LiberationSans-31"/>
       <use transform="translate(55.615234375 0.140625)" xlink:href="#LiberationSans-30"/>
       <use transform="translate(111.23046875 54.1203125)scale(0.7)" xlink:href="#LiberationSans-30"/>
      </g>
     </g>
    </g>
    <g id="ytick_7">
     <g id="line2d_49">
      <defs>
       <path d="
M0 0
L0 0" id="m8735711441" style="stroke:#262626;stroke-width:0.5;"/>
      </defs>
      <g>
       <use style="fill:#262626;stroke:#262626;stroke-width:0.5;" x="55.125" xlink:href="#m8735711441" y="314.327189056"/>
      </g>
     </g>
     <g id="line2d_50">
      <g>
       <use style="fill:#262626;stroke:#262626;stroke-width:0.5;" x="396.9" xlink:href="#m8735711441" y="314.327189056"/>
      </g>
     </g>
    </g>
    <g id="ytick_8">
     <g id="line2d_51">
      <g>
       <use style="fill:#262626;stroke:#262626;stroke-width:0.5;" x="55.125" xlink:href="#m8735711441" y="303.930761121"/>
      </g>
     </g>
     <g id="line2d_52">
      <g>
       <use style="fill:#262626;stroke:#262626;stroke-width:0.5;" x="396.9" xlink:href="#m8735711441" y="303.930761121"/>
      </g>
     </g>
    </g>
    <g id="ytick_9">
     <g id="line2d_53">
      <g>
       <use style="fill:#262626;stroke:#262626;stroke-width:0.5;" x="55.125" xlink:href="#m8735711441" y="296.554378112"/>
      </g>
     </g>
     <g id="line2d_54">
      <g>
       <use style="fill:#262626;stroke:#262626;stroke-width:0.5;" x="396.9" xlink:href="#m8735711441" y="296.554378112"/>
      </g>
     </g>
    </g>
    <g id="ytick_10">
     <g id="line2d_55">
      <g>
       <use style="fill:#262626;stroke:#262626;stroke-width:0.5;" x="55.125" xlink:href="#m8735711441" y="290.832810944"/>
      </g>
     </g>
     <g id="line2d_56">
      <g>
       <use style="fill:#262626;stroke:#262626;stroke-width:0.5;" x="396.9" xlink:href="#m8735711441" y="290.832810944"/>
      </g>
     </g>
    </g>
    <g id="ytick_11">
     <g id="line2d_57">
      <g>
       <use style="fill:#262626;stroke:#262626;stroke-width:0.5;" x="55.125" xlink:href="#m8735711441" y="286.157950177"/>
      </g>
     </g>
     <g id="line2d_58">
      <g>
       <use style="fill:#262626;stroke:#262626;stroke-width:0.5;" x="396.9" xlink:href="#m8735711441" y="286.157950177"/>
      </g>
     </g>
    </g>
    <g id="ytick_12">
     <g id="line2d_59">
      <g>
       <use style="fill:#262626;stroke:#262626;stroke-width:0.5;" x="55.125" xlink:href="#m8735711441" y="282.205411718"/>
      </g>
     </g>
     <g id="line2d_60">
      <g>
       <use style="fill:#262626;stroke:#262626;stroke-width:0.5;" x="396.9" xlink:href="#m8735711441" y="282.205411718"/>
      </g>
     </g>
    </g>
    <g id="ytick_13">
     <g id="line2d_61">
      <g>
       <use style="fill:#262626;stroke:#262626;stroke-width:0.5;" x="55.125" xlink:href="#m8735711441" y="278.781567168"/>
      </g>
     </g>
     <g id="line2d_62">
      <g>
       <use style="fill:#262626;stroke:#262626;stroke-width:0.5;" x="396.9" xlink:href="#m8735711441" y="278.781567168"/>
      </g>
     </g>
    </g>
    <g id="ytick_14">
     <g id="line2d_63">
      <g>
       <use style="fill:#262626;stroke:#262626;stroke-width:0.5;" x="55.125" xlink:href="#m8735711441" y="275.761522243"/>
      </g>
     </g>
     <g id="line2d_64">
      <g>
       <use style="fill:#262626;stroke:#262626;stroke-width:0.5;" x="396.9" xlink:href="#m8735711441" y="275.761522243"/>
      </g>
     </g>
    </g>
    <g id="ytick_15">
     <g id="line2d_65">
      <g>
       <use style="fill:#262626;stroke:#262626;stroke-width:0.5;" x="55.125" xlink:href="#m8735711441" y="255.287189056"/>
      </g>
     </g>
     <g id="line2d_66">
      <g>
       <use style="fill:#262626;stroke:#262626;stroke-width:0.5;" x="396.9" xlink:href="#m8735711441" y="255.287189056"/>
      </g>
     </g>
    </g>
    <g id="ytick_16">
     <g id="line2d_67">
      <g>
       <use style="fill:#262626;stroke:#262626;stroke-width:0.5;" x="55.125" xlink:href="#m8735711441" y="244.890761121"/>
      </g>
     </g>
     <g id="line2d_68">
      <g>
       <use style="fill:#262626;stroke:#262626;stroke-width:0.5;" x="396.9" xlink:href="#m8735711441" y="244.890761121"/>
      </g>
     </g>
    </g>
    <g id="ytick_17">
     <g id="line2d_69">
      <g>
       <use style="fill:#262626;stroke:#262626;stroke-width:0.5;" x="55.125" xlink:href="#m8735711441" y="237.514378112"/>
      </g>
     </g>
     <g id="line2d_70">
      <g>
       <use style="fill:#262626;stroke:#262626;stroke-width:0.5;" x="396.9" xlink:href="#m8735711441" y="237.514378112"/>
      </g>
     </g>
    </g>
    <g id="ytick_18">
     <g id="line2d_71">
      <g>
       <use style="fill:#262626;stroke:#262626;stroke-width:0.5;" x="55.125" xlink:href="#m8735711441" y="231.792810944"/>
      </g>
     </g>
     <g id="line2d_72">
      <g>
       <use style="fill:#262626;stroke:#262626;stroke-width:0.5;" x="396.9" xlink:href="#m8735711441" y="231.792810944"/>
      </g>
     </g>
    </g>
    <g id="ytick_19">
     <g id="line2d_73">
      <g>
       <use style="fill:#262626;stroke:#262626;stroke-width:0.5;" x="55.125" xlink:href="#m8735711441" y="227.117950177"/>
      </g>
     </g>
     <g id="line2d_74">
      <g>
       <use style="fill:#262626;stroke:#262626;stroke-width:0.5;" x="396.9" xlink:href="#m8735711441" y="227.117950177"/>
      </g>
     </g>
    </g>
    <g id="ytick_20">
     <g id="line2d_75">
      <g>
       <use style="fill:#262626;stroke:#262626;stroke-width:0.5;" x="55.125" xlink:href="#m8735711441" y="223.165411718"/>
      </g>
     </g>
     <g id="line2d_76">
      <g>
       <use style="fill:#262626;stroke:#262626;stroke-width:0.5;" x="396.9" xlink:href="#m8735711441" y="223.165411718"/>
      </g>
     </g>
    </g>
    <g id="ytick_21">
     <g id="line2d_77">
      <g>
       <use style="fill:#262626;stroke:#262626;stroke-width:0.5;" x="55.125" xlink:href="#m8735711441" y="219.741567168"/>
      </g>
     </g>
     <g id="line2d_78">
      <g>
       <use style="fill:#262626;stroke:#262626;stroke-width:0.5;" x="396.9" xlink:href="#m8735711441" y="219.741567168"/>
      </g>
     </g>
    </g>
    <g id="ytick_22">
     <g id="line2d_79">
      <g>
       <use style="fill:#262626;stroke:#262626;stroke-width:0.5;" x="55.125" xlink:href="#m8735711441" y="216.721522243"/>
      </g>
     </g>
     <g id="line2d_80">
      <g>
       <use style="fill:#262626;stroke:#262626;stroke-width:0.5;" x="396.9" xlink:href="#m8735711441" y="216.721522243"/>
      </g>
     </g>
    </g>
    <g id="ytick_23">
     <g id="line2d_81">
      <g>
       <use style="fill:#262626;stroke:#262626;stroke-width:0.5;" x="55.125" xlink:href="#m8735711441" y="196.247189056"/>
      </g>
     </g>
     <g id="line2d_82">
      <g>
       <use style="fill:#262626;stroke:#262626;stroke-width:0.5;" x="396.9" xlink:href="#m8735711441" y="196.247189056"/>
      </g>
     </g>
    </g>
    <g id="ytick_24">
     <g id="line2d_83">
      <g>
       <use style="fill:#262626;stroke:#262626;stroke-width:0.5;" x="55.125" xlink:href="#m8735711441" y="185.850761121"/>
      </g>
     </g>
     <g id="line2d_84">
      <g>
       <use style="fill:#262626;stroke:#262626;stroke-width:0.5;" x="396.9" xlink:href="#m8735711441" y="185.850761121"/>
      </g>
     </g>
    </g>
    <g id="ytick_25">
     <g id="line2d_85">
      <g>
       <use style="fill:#262626;stroke:#262626;stroke-width:0.5;" x="55.125" xlink:href="#m8735711441" y="178.474378112"/>
      </g>
     </g>
     <g id="line2d_86">
      <g>
       <use style="fill:#262626;stroke:#262626;stroke-width:0.5;" x="396.9" xlink:href="#m8735711441" y="178.474378112"/>
      </g>
     </g>
    </g>
    <g id="ytick_26">
     <g id="line2d_87">
      <g>
       <use style="fill:#262626;stroke:#262626;stroke-width:0.5;" x="55.125" xlink:href="#m8735711441" y="172.752810944"/>
      </g>
     </g>
     <g id="line2d_88">
      <g>
       <use style="fill:#262626;stroke:#262626;stroke-width:0.5;" x="396.9" xlink:href="#m8735711441" y="172.752810944"/>
      </g>
     </g>
    </g>
    <g id="ytick_27">
     <g id="line2d_89">
      <g>
       <use style="fill:#262626;stroke:#262626;stroke-width:0.5;" x="55.125" xlink:href="#m8735711441" y="168.077950177"/>
      </g>
     </g>
     <g id="line2d_90">
      <g>
       <use style="fill:#262626;stroke:#262626;stroke-width:0.5;" x="396.9" xlink:href="#m8735711441" y="168.077950177"/>
      </g>
     </g>
    </g>
    <g id="ytick_28">
     <g id="line2d_91">
      <g>
       <use style="fill:#262626;stroke:#262626;stroke-width:0.5;" x="55.125" xlink:href="#m8735711441" y="164.125411718"/>
      </g>
     </g>
     <g id="line2d_92">
      <g>
       <use style="fill:#262626;stroke:#262626;stroke-width:0.5;" x="396.9" xlink:href="#m8735711441" y="164.125411718"/>
      </g>
     </g>
    </g>
    <g id="ytick_29">
     <g id="line2d_93">
      <g>
       <use style="fill:#262626;stroke:#262626;stroke-width:0.5;" x="55.125" xlink:href="#m8735711441" y="160.701567168"/>
      </g>
     </g>
     <g id="line2d_94">
      <g>
       <use style="fill:#262626;stroke:#262626;stroke-width:0.5;" x="396.9" xlink:href="#m8735711441" y="160.701567168"/>
      </g>
     </g>
    </g>
    <g id="ytick_30">
     <g id="line2d_95">
      <g>
       <use style="fill:#262626;stroke:#262626;stroke-width:0.5;" x="55.125" xlink:href="#m8735711441" y="157.681522243"/>
      </g>
     </g>
     <g id="line2d_96">
      <g>
       <use style="fill:#262626;stroke:#262626;stroke-width:0.5;" x="396.9" xlink:href="#m8735711441" y="157.681522243"/>
      </g>
     </g>
    </g>
    <g id="ytick_31">
     <g id="line2d_97">
      <g>
       <use style="fill:#262626;stroke:#262626;stroke-width:0.5;" x="55.125" xlink:href="#m8735711441" y="137.207189056"/>
      </g>
     </g>
     <g id="line2d_98">
      <g>
       <use style="fill:#262626;stroke:#262626;stroke-width:0.5;" x="396.9" xlink:href="#m8735711441" y="137.207189056"/>
      </g>
     </g>
    </g>
    <g id="ytick_32">
     <g id="line2d_99">
      <g>
       <use style="fill:#262626;stroke:#262626;stroke-width:0.5;" x="55.125" xlink:href="#m8735711441" y="126.810761121"/>
      </g>
     </g>
     <g id="line2d_100">
      <g>
       <use style="fill:#262626;stroke:#262626;stroke-width:0.5;" x="396.9" xlink:href="#m8735711441" y="126.810761121"/>
      </g>
     </g>
    </g>
    <g id="ytick_33">
     <g id="line2d_101">
      <g>
       <use style="fill:#262626;stroke:#262626;stroke-width:0.5;" x="55.125" xlink:href="#m8735711441" y="119.434378112"/>
      </g>
     </g>
     <g id="line2d_102">
      <g>
       <use style="fill:#262626;stroke:#262626;stroke-width:0.5;" x="396.9" xlink:href="#m8735711441" y="119.434378112"/>
      </g>
     </g>
    </g>
    <g id="ytick_34">
     <g id="line2d_103">
      <g>
       <use style="fill:#262626;stroke:#262626;stroke-width:0.5;" x="55.125" xlink:href="#m8735711441" y="113.712810944"/>
      </g>
     </g>
     <g id="line2d_104">
      <g>
       <use style="fill:#262626;stroke:#262626;stroke-width:0.5;" x="396.9" xlink:href="#m8735711441" y="113.712810944"/>
      </g>
     </g>
    </g>
    <g id="ytick_35">
     <g id="line2d_105">
      <g>
       <use style="fill:#262626;stroke:#262626;stroke-width:0.5;" x="55.125" xlink:href="#m8735711441" y="109.037950177"/>
      </g>
     </g>
     <g id="line2d_106">
      <g>
       <use style="fill:#262626;stroke:#262626;stroke-width:0.5;" x="396.9" xlink:href="#m8735711441" y="109.037950177"/>
      </g>
     </g>
    </g>
    <g id="ytick_36">
     <g id="line2d_107">
      <g>
       <use style="fill:#262626;stroke:#262626;stroke-width:0.5;" x="55.125" xlink:href="#m8735711441" y="105.085411718"/>
      </g>
     </g>
     <g id="line2d_108">
      <g>
       <use style="fill:#262626;stroke:#262626;stroke-width:0.5;" x="396.9" xlink:href="#m8735711441" y="105.085411718"/>
      </g>
     </g>
    </g>
    <g id="ytick_37">
     <g id="line2d_109">
      <g>
       <use style="fill:#262626;stroke:#262626;stroke-width:0.5;" x="55.125" xlink:href="#m8735711441" y="101.661567168"/>
      </g>
     </g>
     <g id="line2d_110">
      <g>
       <use style="fill:#262626;stroke:#262626;stroke-width:0.5;" x="396.9" xlink:href="#m8735711441" y="101.661567168"/>
      </g>
     </g>
    </g>
    <g id="ytick_38">
     <g id="line2d_111">
      <g>
       <use style="fill:#262626;stroke:#262626;stroke-width:0.5;" x="55.125" xlink:href="#m8735711441" y="98.6415222427"/>
      </g>
     </g>
     <g id="line2d_112">
      <g>
       <use style="fill:#262626;stroke:#262626;stroke-width:0.5;" x="396.9" xlink:href="#m8735711441" y="98.6415222427"/>
      </g>
     </g>
    </g>
    <g id="ytick_39">
     <g id="line2d_113">
      <g>
       <use style="fill:#262626;stroke:#262626;stroke-width:0.5;" x="55.125" xlink:href="#m8735711441" y="78.167189056"/>
      </g>
     </g>
     <g id="line2d_114">
      <g>
       <use style="fill:#262626;stroke:#262626;stroke-width:0.5;" x="396.9" xlink:href="#m8735711441" y="78.167189056"/>
      </g>
     </g>
    </g>
    <g id="ytick_40">
     <g id="line2d_115">
      <g>
       <use style="fill:#262626;stroke:#262626;stroke-width:0.5;" x="55.125" xlink:href="#m8735711441" y="67.7707611214"/>
      </g>
     </g>
     <g id="line2d_116">
      <g>
       <use style="fill:#262626;stroke:#262626;stroke-width:0.5;" x="396.9" xlink:href="#m8735711441" y="67.7707611214"/>
      </g>
     </g>
    </g>
    <g id="ytick_41">
     <g id="line2d_117">
      <g>
       <use style="fill:#262626;stroke:#262626;stroke-width:0.5;" x="55.125" xlink:href="#m8735711441" y="60.394378112"/>
      </g>
     </g>
     <g id="line2d_118">
      <g>
       <use style="fill:#262626;stroke:#262626;stroke-width:0.5;" x="396.9" xlink:href="#m8735711441" y="60.394378112"/>
      </g>
     </g>
    </g>
    <g id="ytick_42">
     <g id="line2d_119">
      <g>
       <use style="fill:#262626;stroke:#262626;stroke-width:0.5;" x="55.125" xlink:href="#m8735711441" y="54.672810944"/>
      </g>
     </g>
     <g id="line2d_120">
      <g>
       <use style="fill:#262626;stroke:#262626;stroke-width:0.5;" x="396.9" xlink:href="#m8735711441" y="54.672810944"/>
      </g>
     </g>
    </g>
    <g id="ytick_43">
     <g id="line2d_121">
      <g>
       <use style="fill:#262626;stroke:#262626;stroke-width:0.5;" x="55.125" xlink:href="#m8735711441" y="49.9979501773"/>
      </g>
     </g>
     <g id="line2d_122">
      <g>
       <use style="fill:#262626;stroke:#262626;stroke-width:0.5;" x="396.9" xlink:href="#m8735711441" y="49.9979501773"/>
      </g>
     </g>
    </g>
    <g id="ytick_44">
     <g id="line2d_123">
      <g>
       <use style="fill:#262626;stroke:#262626;stroke-width:0.5;" x="55.125" xlink:href="#m8735711441" y="46.0454117176"/>
      </g>
     </g>
     <g id="line2d_124">
      <g>
       <use style="fill:#262626;stroke:#262626;stroke-width:0.5;" x="396.9" xlink:href="#m8735711441" y="46.0454117176"/>
      </g>
     </g>
    </g>
    <g id="ytick_45">
     <g id="line2d_125">
      <g>
       <use style="fill:#262626;stroke:#262626;stroke-width:0.5;" x="55.125" xlink:href="#m8735711441" y="42.621567168"/>
      </g>
     </g>
     <g id="line2d_126">
      <g>
       <use style="fill:#262626;stroke:#262626;stroke-width:0.5;" x="396.9" xlink:href="#m8735711441" y="42.621567168"/>
      </g>
     </g>
    </g>
    <g id="ytick_46">
     <g id="line2d_127">
      <g>
       <use style="fill:#262626;stroke:#262626;stroke-width:0.5;" x="55.125" xlink:href="#m8735711441" y="39.6015222427"/>
      </g>
     </g>
     <g id="line2d_128">
      <g>
       <use style="fill:#262626;stroke:#262626;stroke-width:0.5;" x="396.9" xlink:href="#m8735711441" y="39.6015222427"/>
      </g>
     </g>
    </g>
    <g id="text_18">
     <!-- Error rate -->
     <defs>
      <path d="
M8.20312 0
L8.20312 68.7969
L60.4062 68.7969
L60.4062 61.1875
L17.5312 61.1875
L17.5312 39.1094
L57.4688 39.1094
L57.4688 31.5938
L17.5312 31.5938
L17.5312 7.625
L62.4062 7.625
L62.4062 0
z
" id="LiberationSans-45"/>
      <path d="
M20.2188 -0.984375
Q12.25 -0.984375 8.25 3.21875
Q4.25 7.42188 4.25 14.75
Q4.25 19.9688 6.21875 23.3125
Q8.20312 26.6562 11.3906 28.5625
Q14.5938 30.4688 18.6875 31.2031
Q22.7969 31.9375 27.0469 32.0312
L38.9219 32.2344
L38.9219 35.1094
Q38.9219 38.375 38.2344 40.6719
Q37.5469 42.9688 36.125 44.375
Q34.7188 45.7969 32.5938 46.4531
Q30.4688 47.125 27.5938 47.125
Q25.0469 47.125 23 46.75
Q20.9531 46.3906 19.4375 45.4375
Q17.9219 44.4844 16.9844 42.8438
Q16.0625 41.2188 15.7656 38.7188
L6.59375 39.5469
Q7.07812 42.6719 8.4375 45.2812
Q9.8125 47.9062 12.3281 49.7969
Q14.8438 51.7031 18.625 52.75
Q22.4062 53.8125 27.7812 53.8125
Q37.75 53.8125 42.7656 49.2344
Q47.7969 44.6719 47.7969 36.0312
L47.7969 13.2812
Q47.7969 9.375 48.8281 7.39062
Q49.8594 5.42188 52.7344 5.42188
Q53.4688 5.42188 54.2031 5.51562
Q54.9375 5.60938 55.6094 5.76562
L55.6094 0.296875
Q53.9531 -0.09375 52.3125 -0.28125
Q50.6875 -0.484375 48.8281 -0.484375
Q46.3438 -0.484375 44.5625 0.171875
Q42.7812 0.828125 41.6562 2.17188
Q40.5312 3.51562 39.9375 5.48438
Q39.3594 7.46875 39.2031 10.1094
L38.9219 10.1094
Q37.5 7.5625 35.8125 5.51562
Q34.125 3.46875 31.875 2.03125
Q29.6406 0.59375 26.7812 -0.1875
Q23.9219 -0.984375 20.2188 -0.984375
M22.2188 5.60938
Q26.4219 5.60938 29.5625 7.14062
Q32.7188 8.6875 34.7812 11.0781
Q36.8594 13.4844 37.8906 16.3125
Q38.9219 19.1406 38.9219 21.7344
L38.9219 26.0781
L29.2969 25.875
Q26.0781 25.8281 23.1719 25.4062
Q20.2656 25 18.0625 23.7812
Q15.875 22.5625 14.5781 20.3594
Q13.2812 18.1719 13.2812 14.5938
Q13.2812 10.2969 15.5938 7.95312
Q17.9219 5.60938 22.2188 5.60938" id="LiberationSans-61"/>
      <path d="
M27.0469 0.390625
Q25.0469 -0.140625 22.9688 -0.453125
Q20.9062 -0.78125 18.1719 -0.78125
Q7.625 -0.78125 7.625 11.1875
L7.625 46.4375
L1.51562 46.4375
L1.51562 52.8281
L7.95312 52.8281
L10.5469 64.6562
L16.4062 64.6562
L16.4062 52.8281
L26.1719 52.8281
L26.1719 46.4375
L16.4062 46.4375
L16.4062 13.0938
Q16.4062 9.28125 17.6406 7.73438
Q18.8906 6.20312 21.9688 6.20312
Q23.25 6.20312 24.4375 6.39062
Q25.6406 6.59375 27.0469 6.89062
z
" id="LiberationSans-74"/>
     </defs>
     <g style="fill:#262626;" transform="translate(22.3425 207.48140625)rotate(-90.0)scale(0.11 -0.11)">
      <use xlink:href="#LiberationSans-45"/>
      <use x="66.69921875" xlink:href="#LiberationSans-72"/>
      <use x="100.0" xlink:href="#LiberationSans-72"/>
      <use x="133.30078125" xlink:href="#LiberationSans-6f"/>
      <use x="188.916015625" xlink:href="#LiberationSans-72"/>
      <use x="222.216796875" xlink:href="#LiberationSans-20"/>
      <use x="250.0" xlink:href="#LiberationSans-72"/>
      <use x="283.30078125" xlink:href="#LiberationSans-61"/>
      <use x="338.916015625" xlink:href="#LiberationSans-74"/>
      <use x="366.69921875" xlink:href="#LiberationSans-65"/>
     </g>
    </g>
   </g>
   <g id="PathCollection_1">
    <defs>
     <path d="
M0 2.23607
C0.593012 2.23607 1.16182 2.00046 1.58114 1.58114
C2.00046 1.16182 2.23607 0.593012 2.23607 0
C2.23607 -0.593012 2.00046 -1.16182 1.58114 -1.58114
C1.16182 -2.00046 0.593012 -2.23607 0 -2.23607
C-0.593012 -2.23607 -1.16182 -2.00046 -1.58114 -1.58114
C-2.00046 -1.16182 -2.23607 -0.593012 -2.23607 0
C-2.23607 0.593012 -2.00046 1.16182 -1.58114 1.58114
C-1.16182 2.00046 -0.593012 2.23607 0 2.23607
z
" id="mfbdf6358ed" style="stroke:#000000;stroke-width:2.0;"/>
    </defs>
    <g clip-path="url(#p27b2980692)">
     <use style="fill:#0000ff;stroke:#000000;stroke-width:2.0;" x="70.315" xlink:href="#mfbdf6358ed" y="85.7510404982"/>
     <use style="fill:#0000ff;stroke:#000000;stroke-width:2.0;" x="108.29" xlink:href="#mfbdf6358ed" y="85.3817740845"/>
     <use style="fill:#0000ff;stroke:#000000;stroke-width:2.0;" x="115.885" xlink:href="#mfbdf6358ed" y="91.5334943226"/>
     <use style="fill:#0000ff;stroke:#000000;stroke-width:2.0;" x="123.48" xlink:href="#mfbdf6358ed" y="89.04492978"/>
     <use style="fill:#0000ff;stroke:#000000;stroke-width:2.0;" x="131.075" xlink:href="#mfbdf6358ed" y="86.3630208555"/>
     <use style="fill:#0000ff;stroke:#000000;stroke-width:2.0;" x="138.67" xlink:href="#mfbdf6358ed" y="88.0328965124"/>
     <use style="fill:#0000ff;stroke:#000000;stroke-width:2.0;" x="146.265" xlink:href="#mfbdf6358ed" y="112.258500936"/>
     <use style="fill:#0000ff;stroke:#000000;stroke-width:2.0;" x="153.86" xlink:href="#mfbdf6358ed" y="136.689176565"/>
     <use style="fill:#0000ff;stroke:#000000;stroke-width:2.0;" x="161.455" xlink:href="#mfbdf6358ed" y="136.571435507"/>
     <use style="fill:#0000ff;stroke:#000000;stroke-width:2.0;" x="169.05" xlink:href="#mfbdf6358ed" y="136.072573623"/>
     <use style="fill:#0000ff;stroke:#000000;stroke-width:2.0;" x="176.645" xlink:href="#mfbdf6358ed" y="142.756315367"/>
     <use style="fill:#0000ff;stroke:#000000;stroke-width:2.0;" x="184.24" xlink:href="#mfbdf6358ed" y="151.814470474"/>
     <use style="fill:#0000ff;stroke:#000000;stroke-width:2.0;" x="191.835" xlink:href="#mfbdf6358ed" y="156.708455503"/>
     <use style="fill:#0000ff;stroke:#000000;stroke-width:2.0;" x="199.43" xlink:href="#mfbdf6358ed" y="158.717379962"/>
     <use style="fill:#0000ff;stroke:#000000;stroke-width:2.0;" x="207.025" xlink:href="#mfbdf6358ed" y="164.79710725"/>
     <use style="fill:#0000ff;stroke:#000000;stroke-width:2.0;" x="214.62" xlink:href="#mfbdf6358ed" y="158.348171453"/>
     <use style="fill:#0000ff;stroke:#000000;stroke-width:2.0;" x="222.215" xlink:href="#mfbdf6358ed" y="171.66452334"/>
     <use style="fill:#0000ff;stroke:#000000;stroke-width:2.0;" x="229.81" xlink:href="#mfbdf6358ed" y="169.89086922"/>
     <use style="fill:#0000ff;stroke:#000000;stroke-width:2.0;" x="237.405" xlink:href="#mfbdf6358ed" y="173.106482016"/>
     <use style="fill:#0000ff;stroke:#000000;stroke-width:2.0;" x="245.0" xlink:href="#mfbdf6358ed" y="186.019577543"/>
     <use style="fill:#0000ff;stroke:#000000;stroke-width:2.0;" x="252.595" xlink:href="#mfbdf6358ed" y="189.310093535"/>
     <use style="fill:#0000ff;stroke:#000000;stroke-width:2.0;" x="260.19" xlink:href="#mfbdf6358ed" y="185.390244976"/>
     <use style="fill:#0000ff;stroke:#000000;stroke-width:2.0;" x="267.785" xlink:href="#mfbdf6358ed" y="189.98209787"/>
     <use style="fill:#0000ff;stroke:#000000;stroke-width:2.0;" x="275.38" xlink:href="#mfbdf6358ed" y="196.688922571"/>
     <use style="fill:#0000ff;stroke:#000000;stroke-width:2.0;" x="282.975" xlink:href="#mfbdf6358ed" y="197.657900548"/>
     <use style="fill:#0000ff;stroke:#000000;stroke-width:2.0;" x="290.57" xlink:href="#mfbdf6358ed" y="194.712787337"/>
     <use style="fill:#0000ff;stroke:#000000;stroke-width:2.0;" x="298.165" xlink:href="#mfbdf6358ed" y="200.887205391"/>
     <use style="fill:#0000ff;stroke:#000000;stroke-width:2.0;" x="305.76" xlink:href="#mfbdf6358ed" y="204.759935152"/>
     <use style="fill:#0000ff;stroke:#000000;stroke-width:2.0;" x="313.355" xlink:href="#mfbdf6358ed" y="202.316367221"/>
     <use style="fill:#0000ff;stroke:#000000;stroke-width:2.0;" x="320.95" xlink:href="#mfbdf6358ed" y="206.749142777"/>
     <use style="fill:#0000ff;stroke:#000000;stroke-width:2.0;" x="328.545" xlink:href="#mfbdf6358ed" y="208.350826247"/>
     <use style="fill:#0000ff;stroke:#000000;stroke-width:2.0;" x="336.14" xlink:href="#mfbdf6358ed" y="206.497362158"/>
     <use style="fill:#0000ff;stroke:#000000;stroke-width:2.0;" x="343.735" xlink:href="#mfbdf6358ed" y="209.518875235"/>
    </g>
   </g>
   <g id="line2d_129">
    <path clip-path="url(#p27b2980692)" d="
M70.315 85.751
M108.29 85.3818
L115.885 91.5335
L123.48 89.0449
L131.075 86.363
L138.67 88.0329
L146.265 112.259
L153.86 136.689
L161.455 136.571
L169.05 136.073
L176.645 142.756
L184.24 151.814
L191.835 156.708
L199.43 158.717
L207.025 164.797
L214.62 158.348
L222.215 171.665
L229.81 169.891
L237.405 173.106
L245 186.02
L252.595 189.31
L260.19 185.39
L267.785 189.982
L275.38 196.689
L282.975 197.658
L290.57 194.713
L298.165 200.887
L305.76 204.76
L313.355 202.316
L320.95 206.749
L328.545 208.351
L336.14 206.497
L343.735 209.519" style="fill:none;opacity:0.8;stroke:#4c72b0;stroke-linecap:round;stroke-width:2;"/>
   </g>
   <g id="line2d_130">
    <path clip-path="url(#p27b2980692)" d="
M55.125 36.9
L62.72 42.804
L70.315 48.708
L77.91 54.612
L85.505 60.516
L93.1 66.42
L100.695 72.324
L108.29 78.228
L115.885 84.132
L123.48 90.036
L131.075 95.94
L138.67 101.844
L146.265 107.748
L153.86 113.652
L161.455 119.556
L169.05 125.46
L176.645 131.364
L184.24 137.268
L191.835 143.172
L199.43 149.076
L207.025 154.98
L214.62 160.884
L222.215 166.788
L229.81 172.692
L237.405 178.596
L245 184.5
L252.595 190.404
L260.19 196.308
L267.785 202.212
L275.38 208.116
L282.975 214.02
L290.57 219.924
L298.165 225.828
L305.76 231.732
L313.355 237.636
L320.95 243.54
L328.545 249.444
L336.14 255.348
L343.735 261.252
L351.33 267.156
L358.925 273.06
L366.52 278.964
L374.115 284.868
L381.71 290.772
L389.305 296.676" style="fill:none;stroke:#000000;stroke-dasharray:6.000000,6.000000;stroke-dashoffset:0.0;"/>
   </g>
   <g id="patch_3">
    <path d="
M55.125 36.9
L396.9 36.9" style="fill:none;stroke:#cccccc;stroke-linecap:square;stroke-linejoin:miter;"/>
   </g>
   <g id="patch_4">
    <path d="
M396.9 332.1
L396.9 36.9" style="fill:none;stroke:#cccccc;stroke-linecap:square;stroke-linejoin:miter;"/>
   </g>
   <g id="patch_5">
    <path d="
M55.125 332.1
L396.9 332.1" style="fill:none;stroke:#cccccc;stroke-linecap:square;stroke-linejoin:miter;"/>
   </g>
   <g id="patch_6">
    <path d="
M55.125 332.1
L55.125 36.9" style="fill:none;stroke:#cccccc;stroke-linecap:square;stroke-linejoin:miter;"/>
   </g>
  </g>
 </g>
 <defs>
  <clipPath id="p27b2980692">
   <rect height="295.2" width="341.775" x="55.125" y="36.9"/>
  </clipPath>
 </defs>
</svg>
