<?xml version="1.0" encoding="utf-8" standalone="no"?>
<!DOCTYPE svg PUBLIC "-//W3C//DTD SVG 1.1//EN"
  "http://www.w3.org/Graphics/SVG/1.1/DTD/svg11.dtd">
<!-- Created with matplotlib (http://matplotlib.org/) -->
<svg height="360pt" version="1.1" viewBox="0 0 720 360" width="720pt" xmlns="http://www.w3.org/2000/svg" xmlns:xlink="http://www.w3.org/1999/xlink">
 <defs>
  <style type="text/css">
*{stroke-linecap:butt;stroke-linejoin:round;}
  </style>
 </defs>
 <g id="figure_1">
  <g id="patch_1">
   <path d="
M0 360
L720 360
L720 0
L0 0
z
" style="fill:#ffffff;"/>
  </g>
  <g id="axes_1">
   <g id="patch_2">
    <path d="
M90 324
L343.636 324
L343.636 36
L90 36
z
" style="fill:#ffffff;"/>
   </g>
   <g id="matplotlib.axis_1">
    <g id="xtick_1">
     <g id="line2d_1">
      <path clip-path="url(#p5a9eda3c16)" d="
M91.0065 324
L91.0065 36" style="fill:none;stroke:#cccccc;stroke-linecap:round;"/>
     </g>
     <g id="line2d_2">
      <defs>
       <path d="
M0 0
L0 0" id="m219da94a98" style="stroke:#262626;"/>
      </defs>
      <g>
       <use style="fill:#262626;stroke:#262626;" x="91.0064935065" xlink:href="#m219da94a98" y="324.0"/>
      </g>
     </g>
     <g id="line2d_3">
      <g>
       <use style="fill:#262626;stroke:#262626;" x="91.0064935065" xlink:href="#m219da94a98" y="36.0"/>
      </g>
     </g>
     <g id="text_1">
      <!-- 0 -->
      <defs>
       <path d="
M51.7031 34.4219
Q51.7031 24.5156 49.8281 17.75
Q47.9531 10.9844 44.7031 6.8125
Q41.4531 2.64062 37.0625 0.828125
Q32.6719 -0.984375 27.6875 -0.984375
Q22.6562 -0.984375 18.3125 0.828125
Q13.9688 2.64062 10.7656 6.78125
Q7.5625 10.9375 5.73438 17.7031
Q3.90625 24.4688 3.90625 34.4219
Q3.90625 44.8281 5.73438 51.6406
Q7.5625 58.4531 10.7812 62.5
Q14.0156 66.5469 18.4062 68.1875
Q22.7969 69.8281 27.9844 69.8281
Q32.9062 69.8281 37.2188 68.1875
Q41.5469 66.5469 44.7656 62.5
Q48 58.4531 49.8438 51.6406
Q51.7031 44.8281 51.7031 34.4219
M42.7812 34.4219
Q42.7812 42.625 41.7969 48.0625
Q40.8281 53.5156 38.9219 56.7656
Q37.0156 60.0156 34.25 61.3594
Q31.5 62.7031 27.9844 62.7031
Q24.2656 62.7031 21.4375 61.3281
Q18.6094 59.9688 16.6719 56.7188
Q14.75 53.4688 13.7656 48.0156
Q12.7969 42.5781 12.7969 34.4219
Q12.7969 26.5156 13.7969 21.0938
Q14.7969 15.6719 16.7188 12.375
Q18.6562 9.07812 21.4375 7.64062
Q24.2188 6.20312 27.7812 6.20312
Q31.25 6.20312 34.0312 7.64062
Q36.8125 9.07812 38.7344 12.375
Q40.6719 15.6719 41.7188 21.0938
Q42.7812 26.5156 42.7812 34.4219" id="LiberationSans-30"/>
      </defs>
      <g style="fill:#262626;" transform="translate(88.6166497565 338.246875)scale(0.1 -0.1)">
       <use xlink:href="#LiberationSans-30"/>
      </g>
     </g>
    </g>
    <g id="xtick_2">
     <g id="line2d_4">
      <path clip-path="url(#p5a9eda3c16)" d="
M141.331 324
L141.331 36" style="fill:none;stroke:#cccccc;stroke-linecap:round;"/>
     </g>
     <g id="line2d_5">
      <g>
       <use style="fill:#262626;stroke:#262626;" x="141.331168831" xlink:href="#m219da94a98" y="324.0"/>
      </g>
     </g>
     <g id="line2d_6">
      <g>
       <use style="fill:#262626;stroke:#262626;" x="141.331168831" xlink:href="#m219da94a98" y="36.0"/>
      </g>
     </g>
     <g id="text_2">
      <!-- 50 -->
      <defs>
       <path d="
M51.4219 22.4062
Q51.4219 17.2344 49.8594 12.9375
Q48.2969 8.64062 45.2188 5.53125
Q42.1406 2.4375 37.5781 0.71875
Q33.0156 -0.984375 27 -0.984375
Q21.5781 -0.984375 17.5469 0.28125
Q13.5312 1.5625 10.7344 3.78125
Q7.95312 6 6.3125 8.98438
Q4.6875 11.9688 4 15.375
L12.8906 16.4062
Q13.4219 14.4531 14.3906 12.625
Q15.375 10.7969 17.0625 9.34375
Q18.75 7.90625 21.2188 7.04688
Q23.6875 6.20312 27.2031 6.20312
Q30.6094 6.20312 33.3906 7.25
Q36.1875 8.29688 38.1562 10.3438
Q40.1406 12.4062 41.2031 15.375
Q42.2812 18.3594 42.2812 22.2188
Q42.2812 25.3906 41.25 28.0469
Q40.2344 30.7188 38.3281 32.6406
Q36.4219 34.5781 33.6562 35.6406
Q30.9062 36.7188 27.3906 36.7188
Q25.2031 36.7188 23.3438 36.3281
Q21.4844 35.9375 19.8906 35.25
Q18.3125 34.5781 17.0156 33.6719
Q15.7188 32.7656 14.5938 31.7812
L6 31.7812
L8.29688 68.7969
L47.4062 68.7969
L47.4062 61.3281
L16.3125 61.3281
L14.9844 39.5
Q17.3281 41.3125 20.8438 42.5938
Q24.3594 43.8906 29.2031 43.8906
Q34.3281 43.8906 38.4219 42.3281
Q42.5312 40.7656 45.4062 37.9062
Q48.2969 35.0625 49.8594 31.1094
Q51.4219 27.1562 51.4219 22.4062" id="LiberationSans-35"/>
      </defs>
      <g style="fill:#262626;" transform="translate(136.165543831 338.246875)scale(0.1 -0.1)">
       <use xlink:href="#LiberationSans-35"/>
       <use x="55.615234375" xlink:href="#LiberationSans-30"/>
      </g>
     </g>
    </g>
    <g id="xtick_3">
     <g id="line2d_7">
      <path clip-path="url(#p5a9eda3c16)" d="
M191.656 324
L191.656 36" style="fill:none;stroke:#cccccc;stroke-linecap:round;"/>
     </g>
     <g id="line2d_8">
      <g>
       <use style="fill:#262626;stroke:#262626;" x="191.655844156" xlink:href="#m219da94a98" y="324.0"/>
      </g>
     </g>
     <g id="line2d_9">
      <g>
       <use style="fill:#262626;stroke:#262626;" x="191.655844156" xlink:href="#m219da94a98" y="36.0"/>
      </g>
     </g>
     <g id="text_3">
      <!-- 100 -->
      <defs>
       <path d="
M7.625 0
L7.625 7.46875
L25.1406 7.46875
L25.1406 60.4062
L9.625 49.3125
L9.625 57.625
L25.875 68.7969
L33.9844 68.7969
L33.9844 7.46875
L50.7344 7.46875
L50.7344 0
z
" id="LiberationSans-31"/>
      </defs>
      <g style="fill:#262626;" transform="translate(183.891000406 338.246875)scale(0.1 -0.1)">
       <use xlink:href="#LiberationSans-31"/>
       <use x="55.615234375" xlink:href="#LiberationSans-30"/>
       <use x="111.23046875" xlink:href="#LiberationSans-30"/>
      </g>
     </g>
    </g>
    <g id="xtick_4">
     <g id="line2d_10">
      <path clip-path="url(#p5a9eda3c16)" d="
M241.981 324
L241.981 36" style="fill:none;stroke:#cccccc;stroke-linecap:round;"/>
     </g>
     <g id="line2d_11">
      <g>
       <use style="fill:#262626;stroke:#262626;" x="241.980519481" xlink:href="#m219da94a98" y="324.0"/>
      </g>
     </g>
     <g id="line2d_12">
      <g>
       <use style="fill:#262626;stroke:#262626;" x="241.980519481" xlink:href="#m219da94a98" y="36.0"/>
      </g>
     </g>
     <g id="text_4">
      <!-- 150 -->
      <g style="fill:#262626;" transform="translate(234.215675731 338.246875)scale(0.1 -0.1)">
       <use xlink:href="#LiberationSans-31"/>
       <use x="55.615234375" xlink:href="#LiberationSans-35"/>
       <use x="111.23046875" xlink:href="#LiberationSans-30"/>
      </g>
     </g>
    </g>
    <g id="xtick_5">
     <g id="line2d_13">
      <path clip-path="url(#p5a9eda3c16)" d="
M292.305 324
L292.305 36" style="fill:none;stroke:#cccccc;stroke-linecap:round;"/>
     </g>
     <g id="line2d_14">
      <g>
       <use style="fill:#262626;stroke:#262626;" x="292.305194805" xlink:href="#m219da94a98" y="324.0"/>
      </g>
     </g>
     <g id="line2d_15">
      <g>
       <use style="fill:#262626;stroke:#262626;" x="292.305194805" xlink:href="#m219da94a98" y="36.0"/>
      </g>
     </g>
     <g id="text_5">
      <!-- 200 -->
      <defs>
       <path d="
M5.03125 0
L5.03125 6.20312
Q7.51562 11.9219 11.1094 16.2812
Q14.7031 20.6562 18.6562 24.1875
Q22.6094 27.7344 26.4844 30.7656
Q30.375 33.7969 33.5 36.8125
Q36.625 39.8438 38.5469 43.1562
Q40.4844 46.4844 40.4844 50.6875
Q40.4844 53.6094 39.5938 55.8281
Q38.7188 58.0625 37.0625 59.5625
Q35.4062 61.0781 33.0781 61.8281
Q30.7656 62.5938 27.9375 62.5938
Q25.2969 62.5938 22.9688 61.8594
Q20.6562 61.1406 18.8438 59.6719
Q17.0469 58.2031 15.8906 56.0312
Q14.75 53.8594 14.4062 50.9844
L5.42188 51.8125
Q5.85938 55.5156 7.46875 58.7812
Q9.07812 62.0625 11.9062 64.5312
Q14.75 67 18.7188 68.4062
Q22.7031 69.8281 27.9375 69.8281
Q33.0625 69.8281 37.0625 68.6094
Q41.0625 67.3906 43.8125 64.9844
Q46.5781 62.5938 48.0469 59.0781
Q49.5156 55.5625 49.5156 50.9844
Q49.5156 47.5156 48.2656 44.3906
Q47.0156 41.2656 44.9375 38.4219
Q42.875 35.5938 40.1406 32.9531
Q37.4062 30.3281 34.4219 27.8125
Q31.4531 25.2969 28.4219 22.8281
Q25.3906 20.3594 22.7188 17.8594
Q20.0625 15.375 17.9688 12.8125
Q15.875 10.25 14.7031 7.46875
L50.5938 7.46875
L50.5938 0
z
" id="LiberationSans-32"/>
      </defs>
      <g style="fill:#262626;" transform="translate(284.410663555 338.246875)scale(0.1 -0.1)">
       <use xlink:href="#LiberationSans-32"/>
       <use x="55.615234375" xlink:href="#LiberationSans-30"/>
       <use x="111.23046875" xlink:href="#LiberationSans-30"/>
      </g>
     </g>
    </g>
    <g id="xtick_6">
     <g id="line2d_16">
      <path clip-path="url(#p5a9eda3c16)" d="
M342.63 324
L342.63 36" style="fill:none;stroke:#cccccc;stroke-linecap:round;"/>
     </g>
     <g id="line2d_17">
      <g>
       <use style="fill:#262626;stroke:#262626;" x="342.62987013" xlink:href="#m219da94a98" y="324.0"/>
      </g>
     </g>
     <g id="line2d_18">
      <g>
       <use style="fill:#262626;stroke:#262626;" x="342.62987013" xlink:href="#m219da94a98" y="36.0"/>
      </g>
     </g>
     <g id="text_6">
      <!-- 250 -->
      <g style="fill:#262626;" transform="translate(334.73533888 338.246875)scale(0.1 -0.1)">
       <use xlink:href="#LiberationSans-32"/>
       <use x="55.615234375" xlink:href="#LiberationSans-35"/>
       <use x="111.23046875" xlink:href="#LiberationSans-30"/>
      </g>
     </g>
    </g>
    <g id="text_7">
     <!-- Position [bp] -->
     <defs>
      <path d="
M46.3906 14.5938
Q46.3906 10.8906 44.9375 7.98438
Q43.5 5.07812 40.7656 3.09375
Q38.0312 1.125 34.0469 0.0625
Q30.0781 -0.984375 24.9531 -0.984375
Q20.3594 -0.984375 16.6719 -0.265625
Q12.9844 0.4375 10.2031 2
Q7.42188 3.5625 5.53125 6.125
Q3.65625 8.6875 2.78125 12.4062
L10.5469 13.9219
Q11.6719 9.67188 15.1875 7.6875
Q18.7031 5.71875 24.9531 5.71875
Q27.7812 5.71875 30.1406 6.10938
Q32.5156 6.5 34.2188 7.45312
Q35.9375 8.40625 36.8906 9.98438
Q37.8438 11.5781 37.8438 13.9219
Q37.8438 16.3125 36.7188 17.8438
Q35.5938 19.3906 33.5938 20.4062
Q31.5938 21.4375 28.7344 22.1875
Q25.875 22.9531 22.4688 23.875
Q19.2812 24.7031 16.1562 25.7344
Q13.0312 26.7656 10.5156 28.4375
Q8.01562 30.125 6.45312 32.6094
Q4.89062 35.1094 4.89062 38.875
Q4.89062 46.0938 10.0312 49.875
Q15.1875 53.6562 25.0469 53.6562
Q33.7969 53.6562 38.9375 50.5781
Q44.0938 47.5156 45.4531 40.7188
L37.5469 39.75
Q37.1094 41.7969 35.9375 43.1875
Q34.7656 44.5781 33.1094 45.4375
Q31.4531 46.2969 29.375 46.6562
Q27.2969 47.0156 25.0469 47.0156
Q19.0938 47.0156 16.25 45.2031
Q13.4219 43.4062 13.4219 39.75
Q13.4219 37.5938 14.4688 36.2031
Q15.5312 34.8125 17.4062 33.8594
Q19.2812 32.9062 21.9219 32.2031
Q24.5625 31.5 27.7344 30.7188
Q29.8281 30.1719 32.0312 29.5625
Q34.2344 28.9531 36.2969 28.0938
Q38.375 27.25 40.2031 26.0938
Q42.0469 24.9531 43.4062 23.3438
Q44.7812 21.7344 45.5781 19.5781
Q46.3906 17.4375 46.3906 14.5938" id="LiberationSans-73"/>
      <path d="
M51.4219 26.6562
Q51.4219 20.6562 50.4375 15.5781
Q49.4688 10.5 47.1875 6.82812
Q44.9219 3.17188 41.1875 1.09375
Q37.4531 -0.984375 31.9844 -0.984375
Q26.3125 -0.984375 22.0625 1.17188
Q17.8281 3.32812 15.5781 8.20312
L15.3281 8.20312
Q15.375 8.10938 15.4062 7.32812
Q15.4375 6.54688 15.4531 5.375
Q15.4844 4.20312 15.5 2.75
Q15.5312 1.3125 15.5312 -0.09375
L15.5312 -20.75
L6.73438 -20.75
L6.73438 42.0469
Q6.73438 43.9531 6.70312 45.7031
Q6.6875 47.4688 6.64062 48.9062
Q6.59375 50.3438 6.54688 51.3594
Q6.5 52.3906 6.45312 52.8281
L14.9375 52.8281
Q14.9844 52.6875 15.0625 51.7969
Q15.1406 50.9219 15.2031 49.6719
Q15.2812 48.4375 15.3594 47.0156
Q15.4375 45.6094 15.4375 44.3438
L15.625 44.3438
Q16.8438 46.875 18.4062 48.6562
Q19.9688 50.4375 21.9688 51.5781
Q23.9688 52.7344 26.4375 53.25
Q28.9062 53.7656 31.9844 53.7656
Q37.4531 53.7656 41.1875 51.8125
Q44.9219 49.8594 47.1875 46.3125
Q49.4688 42.7812 50.4375 37.7656
Q51.4219 32.7656 51.4219 26.6562
M42.1875 26.4688
Q42.1875 31.3438 41.5938 35.1562
Q41.0156 38.9688 39.5781 41.5938
Q38.1406 44.2344 35.7344 45.5938
Q33.3438 46.9688 29.7344 46.9688
Q26.8125 46.9688 24.2188 46.1406
Q21.625 45.3125 19.7031 42.9688
Q17.7812 40.625 16.6562 36.5
Q15.5312 32.375 15.5312 25.7812
Q15.5312 20.1719 16.4531 16.2812
Q17.3906 12.4062 19.1719 10.0156
Q20.9531 7.625 23.5781 6.5625
Q26.2188 5.51562 29.6406 5.51562
Q33.2969 5.51562 35.7188 6.92188
Q38.1406 8.34375 39.5781 11.0312
Q41.0156 13.7188 41.5938 17.5938
Q42.1875 21.4844 42.1875 26.4688" id="LiberationSans-70"/>
      <path d="
M51.4219 26.6562
Q51.4219 -0.984375 31.9844 -0.984375
Q25.9844 -0.984375 22 1.1875
Q18.0156 3.375 15.5312 8.20312
L15.4375 8.20312
Q15.4375 6.9375 15.3594 5.5625
Q15.2812 4.20312 15.2031 3.03125
Q15.1406 1.85938 15.0625 1.03125
Q14.9844 0.203125 14.9375 0
L6.45312 0
Q6.5 0.4375 6.54688 1.48438
Q6.59375 2.54688 6.64062 4
Q6.6875 5.46875 6.70312 7.21875
Q6.73438 8.98438 6.73438 10.8906
L6.73438 72.4688
L15.5312 72.4688
L15.5312 51.8125
Q15.5312 50.3438 15.5 49
Q15.4844 47.6562 15.4375 46.625
Q15.375 45.4062 15.3281 44.3438
L15.5312 44.3438
Q17.9688 49.4219 22 51.6094
Q26.0312 53.8125 31.9844 53.8125
Q42 53.8125 46.7031 47.0625
Q51.4219 40.3281 51.4219 26.6562
M42.1875 26.375
Q42.1875 31.8438 41.5 35.75
Q40.8281 39.6562 39.3125 42.1562
Q37.7969 44.6719 35.4531 45.8438
Q33.1094 47.0156 29.7344 47.0156
Q26.2656 47.0156 23.6094 45.8906
Q20.9531 44.7812 19.1719 42.2812
Q17.3906 39.7969 16.4531 35.7344
Q15.5312 31.6875 15.5312 25.8281
Q15.5312 20.1719 16.4531 16.3125
Q17.3906 12.4531 19.1719 10.0312
Q20.9531 7.625 23.5781 6.5625
Q26.2188 5.51562 29.6406 5.51562
Q32.8594 5.51562 35.2031 6.64062
Q37.5469 7.76562 39.1094 10.25
Q40.6719 12.75 41.4219 16.7188
Q42.1875 20.7031 42.1875 26.375" id="LiberationSans-62"/>
      <path d="
M27.0469 0.390625
Q25.0469 -0.140625 22.9688 -0.453125
Q20.9062 -0.78125 18.1719 -0.78125
Q7.625 -0.78125 7.625 11.1875
L7.625 46.4375
L1.51562 46.4375
L1.51562 52.8281
L7.95312 52.8281
L10.5469 64.6562
L16.4062 64.6562
L16.4062 52.8281
L26.1719 52.8281
L26.1719 46.4375
L16.4062 46.4375
L16.4062 13.0938
Q16.4062 9.28125 17.6406 7.73438
Q18.8906 6.20312 21.9688 6.20312
Q23.25 6.20312 24.4375 6.39062
Q25.6406 6.59375 27.0469 6.89062
z
" id="LiberationSans-74"/>
      <path d="
M0.78125 -20.75
L0.78125 -14.4531
L12.1562 -14.4531
L12.1562 66.1562
L0.78125 66.1562
L0.78125 72.4688
L20.6562 72.4688
L20.6562 -20.75
z
" id="LiberationSans-5d"/>
      <path d="
M6.6875 64.0625
L6.6875 72.4688
L15.4844 72.4688
L15.4844 64.0625
z

M6.6875 0
L6.6875 52.8281
L15.4844 52.8281
L15.4844 0
z
" id="LiberationSans-69"/>
      <path d="
M7.125 -20.75
L7.125 72.4688
L27 72.4688
L27 66.1562
L15.625 66.1562
L15.625 -14.4531
L27 -14.4531
L27 -20.75
z
" id="LiberationSans-5b"/>
      <path d="
M40.2812 0
L40.2812 33.5
Q40.2812 37.3594 39.7188 39.9375
Q39.1562 42.5312 37.8906 44.1094
Q36.625 45.7031 34.5469 46.3594
Q32.4688 47.0156 29.3906 47.0156
Q26.2656 47.0156 23.75 45.9219
Q21.2344 44.8281 19.4531 42.75
Q17.6719 40.6719 16.6875 37.625
Q15.7188 34.5781 15.7188 30.6094
L15.7188 0
L6.9375 0
L6.9375 41.5469
Q6.9375 43.2188 6.90625 45.0469
Q6.89062 46.875 6.82812 48.5
Q6.78125 50.1406 6.73438 51.3125
Q6.6875 52.4844 6.64062 52.8281
L14.9375 52.8281
Q14.9844 52.5938 15.0312 51.5156
Q15.0938 50.4375 15.1562 49.0469
Q15.2344 47.6562 15.2812 46.2188
Q15.3281 44.7812 15.3281 43.7969
L15.4844 43.7969
Q16.75 46.0938 18.2656 47.9531
Q19.7812 49.8125 21.7812 51.0938
Q23.7812 52.3906 26.3594 53.0938
Q28.9531 53.8125 32.375 53.8125
Q36.7656 53.8125 39.9375 52.7344
Q43.1094 51.6562 45.1562 49.4062
Q47.2188 47.1719 48.1719 43.625
Q49.125 40.0938 49.125 35.2031
L49.125 0
z
" id="LiberationSans-6e"/>
      <path d="
M51.4219 26.4688
Q51.4219 12.5938 45.3125 5.79688
Q39.2031 -0.984375 27.5938 -0.984375
Q22.0781 -0.984375 17.7188 0.671875
Q13.375 2.34375 10.375 5.76562
Q7.375 9.1875 5.78125 14.3281
Q4.20312 19.4844 4.20312 26.4688
Q4.20312 53.8125 27.875 53.8125
Q34.0312 53.8125 38.5 52.0938
Q42.9688 50.3906 45.8281 46.9688
Q48.6875 43.5625 50.0469 38.4219
Q51.4219 33.2969 51.4219 26.4688
M42.1875 26.4688
Q42.1875 32.625 41.2344 36.625
Q40.2812 40.625 38.4531 43.0156
Q36.625 45.4062 33.9844 46.3594
Q31.3438 47.3125 28.0312 47.3125
Q24.6562 47.3125 21.9375 46.3125
Q19.2344 45.3125 17.3281 42.8906
Q15.4375 40.4844 14.4219 36.4688
Q13.4219 32.4688 13.4219 26.4688
Q13.4219 20.3125 14.5 16.2812
Q15.5781 12.25 17.4531 9.85938
Q19.3438 7.46875 21.9062 6.48438
Q24.4688 5.51562 27.4844 5.51562
Q30.8594 5.51562 33.5938 6.46875
Q36.3281 7.42188 38.2344 9.8125
Q40.1406 12.2031 41.1562 16.25
Q42.1875 20.3125 42.1875 26.4688" id="LiberationSans-6f"/>
      <path id="LiberationSans-20"/>
      <path d="
M61.4219 48.0938
Q61.4219 43.6094 59.9375 39.7188
Q58.4531 35.8438 55.5 32.9844
Q52.5469 30.125 48.0938 28.4688
Q43.6562 26.8125 37.75 26.8125
L17.5312 26.8125
L17.5312 0
L8.20312 0
L8.20312 68.7969
L37.1562 68.7969
Q43.2656 68.7969 47.7969 67.3125
Q52.3438 65.8281 55.375 63.1094
Q58.4062 60.4062 59.9062 56.5625
Q61.4219 52.7344 61.4219 48.0938
M52.0469 48
Q52.0469 54.5469 48.0469 57.9375
Q44.0469 61.3281 36.0312 61.3281
L17.5312 61.3281
L17.5312 34.1875
L36.4219 34.1875
Q44.4844 34.1875 48.2656 37.75
Q52.0469 41.3125 52.0469 48" id="LiberationSans-50"/>
     </defs>
     <g style="fill:#262626;" transform="translate(178.795056818 355.4675)scale(0.14 -0.14)">
      <use xlink:href="#LiberationSans-50"/>
      <use x="66.69921875" xlink:href="#LiberationSans-6f"/>
      <use x="122.314453125" xlink:href="#LiberationSans-73"/>
      <use x="172.314453125" xlink:href="#LiberationSans-69"/>
      <use x="194.53125" xlink:href="#LiberationSans-74"/>
      <use x="222.314453125" xlink:href="#LiberationSans-69"/>
      <use x="244.53125" xlink:href="#LiberationSans-6f"/>
      <use x="300.146484375" xlink:href="#LiberationSans-6e"/>
      <use x="355.76171875" xlink:href="#LiberationSans-20"/>
      <use x="383.544921875" xlink:href="#LiberationSans-5b"/>
      <use x="411.328125" xlink:href="#LiberationSans-62"/>
      <use x="466.943359375" xlink:href="#LiberationSans-70"/>
      <use x="522.55859375" xlink:href="#LiberationSans-5d"/>
     </g>
    </g>
   </g>
   <g id="matplotlib.axis_2">
    <g id="ytick_1">
     <g id="line2d_19">
      <path clip-path="url(#p5a9eda3c16)" d="
M90 321.176
L343.636 321.176" style="fill:none;stroke:#cccccc;stroke-linecap:round;"/>
     </g>
     <g id="line2d_20">
      <g>
       <use style="fill:#262626;stroke:#262626;" x="90.0" xlink:href="#m219da94a98" y="321.176470588"/>
      </g>
     </g>
     <g id="line2d_21">
      <g>
       <use style="fill:#262626;stroke:#262626;" x="343.636363636" xlink:href="#m219da94a98" y="321.176470588"/>
      </g>
     </g>
     <g id="text_8">
      <!-- 0 -->
      <g style="fill:#262626;" transform="translate(78.2203125 323.762408088)scale(0.1 -0.1)">
       <use xlink:href="#LiberationSans-30"/>
      </g>
     </g>
    </g>
    <g id="ytick_2">
     <g id="line2d_22">
      <path clip-path="url(#p5a9eda3c16)" d="
M90 264.706
L343.636 264.706" style="fill:none;stroke:#cccccc;stroke-linecap:round;"/>
     </g>
     <g id="line2d_23">
      <g>
       <use style="fill:#262626;stroke:#262626;" x="90.0" xlink:href="#m219da94a98" y="264.705882353"/>
      </g>
     </g>
     <g id="line2d_24">
      <g>
       <use style="fill:#262626;stroke:#262626;" x="343.636363636" xlink:href="#m219da94a98" y="264.705882353"/>
      </g>
     </g>
     <g id="text_9">
      <!-- 20 -->
      <g style="fill:#262626;" transform="translate(72.771875 267.291819853)scale(0.1 -0.1)">
       <use xlink:href="#LiberationSans-32"/>
       <use x="55.615234375" xlink:href="#LiberationSans-30"/>
      </g>
     </g>
    </g>
    <g id="ytick_3">
     <g id="line2d_25">
      <path clip-path="url(#p5a9eda3c16)" d="
M90 208.235
L343.636 208.235" style="fill:none;stroke:#cccccc;stroke-linecap:round;"/>
     </g>
     <g id="line2d_26">
      <g>
       <use style="fill:#262626;stroke:#262626;" x="90.0" xlink:href="#m219da94a98" y="208.235294118"/>
      </g>
     </g>
     <g id="line2d_27">
      <g>
       <use style="fill:#262626;stroke:#262626;" x="343.636363636" xlink:href="#m219da94a98" y="208.235294118"/>
      </g>
     </g>
     <g id="text_10">
      <!-- 40 -->
      <defs>
       <path d="
M43.0156 15.5781
L43.0156 0
L34.7188 0
L34.7188 15.5781
L2.29688 15.5781
L2.29688 22.4062
L33.7969 68.7969
L43.0156 68.7969
L43.0156 22.5156
L52.6875 22.5156
L52.6875 15.5781
z

M34.7188 58.8906
Q34.625 58.6406 34.2344 57.9375
Q33.8438 57.2344 33.3438 56.3438
Q32.8594 55.4688 32.3438 54.5625
Q31.8438 53.6562 31.4531 53.0781
L13.8125 27.0938
Q13.5781 26.7031 13.1094 26.0625
Q12.6406 25.4375 12.1562 24.7812
Q11.6719 24.125 11.1719 23.4844
Q10.6875 22.8594 10.4062 22.5156
L34.7188 22.5156
z
" id="LiberationSans-34"/>
      </defs>
      <g style="fill:#262626;" transform="translate(72.4984375 210.821231618)scale(0.1 -0.1)">
       <use xlink:href="#LiberationSans-34"/>
       <use x="55.615234375" xlink:href="#LiberationSans-30"/>
      </g>
     </g>
    </g>
    <g id="ytick_4">
     <g id="line2d_28">
      <path clip-path="url(#p5a9eda3c16)" d="
M90 151.765
L343.636 151.765" style="fill:none;stroke:#cccccc;stroke-linecap:round;"/>
     </g>
     <g id="line2d_29">
      <g>
       <use style="fill:#262626;stroke:#262626;" x="90.0" xlink:href="#m219da94a98" y="151.764705882"/>
      </g>
     </g>
     <g id="line2d_30">
      <g>
       <use style="fill:#262626;stroke:#262626;" x="343.636363636" xlink:href="#m219da94a98" y="151.764705882"/>
      </g>
     </g>
     <g id="text_11">
      <!-- 60 -->
      <defs>
       <path d="
M51.2188 22.5156
Q51.2188 17.3281 49.7812 13
Q48.3438 8.6875 45.5312 5.57812
Q42.7188 2.48438 38.5625 0.75
Q34.4219 -0.984375 29 -0.984375
Q23 -0.984375 18.5 1.3125
Q14.0156 3.60938 11.0312 7.92188
Q8.0625 12.25 6.5625 18.5312
Q5.07812 24.8125 5.07812 32.8125
Q5.07812 42 6.76562 48.9219
Q8.45312 55.8594 11.625 60.5
Q14.7969 65.1406 19.3594 67.4844
Q23.9219 69.8281 29.6875 69.8281
Q33.2031 69.8281 36.2812 69.0938
Q39.3594 68.3594 41.875 66.7188
Q44.3906 65.0938 46.2812 62.4062
Q48.1875 59.7188 49.3125 55.8125
L40.9219 54.2969
Q39.5469 58.7344 36.5469 60.7188
Q33.5469 62.7031 29.5938 62.7031
Q25.9844 62.7031 23.0469 60.9844
Q20.125 59.2812 18.0625 55.875
Q16.0156 52.4844 14.9062 47.3594
Q13.8125 42.2344 13.8125 35.4062
Q16.2188 39.8438 20.5625 42.1562
Q24.9062 44.4844 30.5156 44.4844
Q35.2031 44.4844 39.0156 42.9688
Q42.8281 41.4531 45.5312 38.5938
Q48.25 35.75 49.7344 31.6719
Q51.2188 27.5938 51.2188 22.5156
M42.2812 22.125
Q42.2812 25.6875 41.4062 28.5625
Q40.5312 31.4531 38.7656 33.4688
Q37.0156 35.5 34.4219 36.5938
Q31.8438 37.7031 28.4219 37.7031
Q26.0312 37.7031 23.5781 36.9844
Q21.1406 36.2812 19.1562 34.6875
Q17.1875 33.1094 15.9375 30.5156
Q14.7031 27.9375 14.7031 24.2188
Q14.7031 20.4062 15.6719 17.1094
Q16.6562 13.8125 18.4844 11.375
Q20.3125 8.9375 22.8906 7.51562
Q25.4844 6.10938 28.7188 6.10938
Q31.8906 6.10938 34.4062 7.20312
Q36.9219 8.29688 38.6719 10.375
Q40.4375 12.4531 41.3594 15.4219
Q42.2812 18.4062 42.2812 22.125" id="LiberationSans-36"/>
      </defs>
      <g style="fill:#262626;" transform="translate(72.7765625 154.350643382)scale(0.1 -0.1)">
       <use xlink:href="#LiberationSans-36"/>
       <use x="55.615234375" xlink:href="#LiberationSans-30"/>
      </g>
     </g>
    </g>
    <g id="ytick_5">
     <g id="line2d_31">
      <path clip-path="url(#p5a9eda3c16)" d="
M90 95.2941
L343.636 95.2941" style="fill:none;stroke:#cccccc;stroke-linecap:round;"/>
     </g>
     <g id="line2d_32">
      <g>
       <use style="fill:#262626;stroke:#262626;" x="90.0" xlink:href="#m219da94a98" y="95.2941176471"/>
      </g>
     </g>
     <g id="line2d_33">
      <g>
       <use style="fill:#262626;stroke:#262626;" x="343.636363636" xlink:href="#m219da94a98" y="95.2941176471"/>
      </g>
     </g>
     <g id="text_12">
      <!-- 80 -->
      <defs>
       <path d="
M51.2656 19.1875
Q51.2656 14.7969 49.875 11.1094
Q48.4844 7.42188 45.625 4.73438
Q42.7812 2.04688 38.3281 0.53125
Q33.8906 -0.984375 27.8281 -0.984375
Q21.7812 -0.984375 17.3594 0.53125
Q12.9375 2.04688 10.0312 4.70312
Q7.125 7.375 5.73438 11.0625
Q4.34375 14.75 4.34375 19.0938
Q4.34375 22.8594 5.48438 25.7812
Q6.64062 28.7188 8.5625 30.8281
Q10.5 32.9531 12.9688 34.25
Q15.4375 35.5469 18.0625 35.9844
L18.0625 36.1875
Q15.1875 36.8594 12.9062 38.375
Q10.6406 39.8906 9.09375 42.0156
Q7.5625 44.1406 6.75 46.7188
Q5.95312 49.3125 5.95312 52.2031
Q5.95312 55.8125 7.34375 59
Q8.73438 62.2031 11.4688 64.625
Q14.2031 67.0469 18.25 68.4375
Q22.3125 69.8281 27.6406 69.8281
Q33.25 69.8281 37.375 68.4062
Q41.5 67 44.2031 64.5781
Q46.9219 62.1562 48.2344 58.9375
Q49.5625 55.7188 49.5625 52.0938
Q49.5625 49.2656 48.75 46.6719
Q47.9531 44.0938 46.4062 41.9688
Q44.875 39.8438 42.5938 38.3438
Q40.3281 36.8594 37.3594 36.2812
L37.3594 36.0781
Q40.3281 35.5938 42.8594 34.2969
Q45.4062 33.0156 47.2656 30.8906
Q49.125 28.7656 50.1875 25.8281
Q51.2656 22.9062 51.2656 19.1875
M40.4375 51.6094
Q40.4375 54.2031 39.7656 56.3438
Q39.1094 58.5 37.5938 60.0312
Q36.0781 61.5781 33.6406 62.4219
Q31.2031 63.2812 27.6406 63.2812
Q24.1719 63.2812 21.7812 62.4219
Q19.3906 61.5781 17.8438 60.0312
Q16.3125 58.5 15.625 56.3438
Q14.9375 54.2031 14.9375 51.6094
Q14.9375 49.5625 15.4688 47.4062
Q16.0156 45.2656 17.4219 43.5
Q18.8438 41.75 21.3281 40.625
Q23.8281 39.5 27.7344 39.5
Q31.8906 39.5 34.4062 40.625
Q36.9219 41.75 38.25 43.5
Q39.5938 45.2656 40.0156 47.4062
Q40.4375 49.5625 40.4375 51.6094
M42.1406 20.0156
Q42.1406 22.5156 41.4531 24.8281
Q40.7656 27.1562 39.1094 28.9375
Q37.4531 30.7188 34.6406 31.8125
Q31.8438 32.9062 27.6406 32.9062
Q23.7812 32.9062 21.0625 31.8125
Q18.3594 30.7188 16.6719 28.9062
Q14.9844 27.0938 14.2031 24.7188
Q13.4219 22.3594 13.4219 19.8281
Q13.4219 16.6562 14.2031 14.0312
Q14.9844 11.4219 16.6875 9.54688
Q18.4062 7.67188 21.1875 6.64062
Q23.9688 5.60938 27.9375 5.60938
Q31.9375 5.60938 34.6719 6.64062
Q37.4062 7.67188 39.0625 9.54688
Q40.7188 11.4219 41.4219 14.0781
Q42.1406 16.75 42.1406 20.0156" id="LiberationSans-38"/>
      </defs>
      <g style="fill:#262626;" transform="translate(72.703125 97.8800551471)scale(0.1 -0.1)">
       <use xlink:href="#LiberationSans-38"/>
       <use x="55.615234375" xlink:href="#LiberationSans-30"/>
      </g>
     </g>
    </g>
    <g id="ytick_6">
     <g id="line2d_34">
      <path clip-path="url(#p5a9eda3c16)" d="
M90 38.8235
L343.636 38.8235" style="fill:none;stroke:#cccccc;stroke-linecap:round;"/>
     </g>
     <g id="line2d_35">
      <g>
       <use style="fill:#262626;stroke:#262626;" x="90.0" xlink:href="#m219da94a98" y="38.8235294118"/>
      </g>
     </g>
     <g id="line2d_36">
      <g>
       <use style="fill:#262626;stroke:#262626;" x="343.636363636" xlink:href="#m219da94a98" y="38.8235294118"/>
      </g>
     </g>
     <g id="text_13">
      <!-- 100 -->
      <g style="fill:#262626;" transform="translate(67.4703125 41.4094669118)scale(0.1 -0.1)">
       <use xlink:href="#LiberationSans-31"/>
       <use x="55.615234375" xlink:href="#LiberationSans-30"/>
       <use x="111.23046875" xlink:href="#LiberationSans-30"/>
      </g>
     </g>
    </g>
    <g id="text_14">
     <!-- Percentage of bases above quality x -->
     <defs>
      <path d="
M13.4844 24.5625
Q13.4844 20.4062 14.3281 16.9062
Q15.1875 13.4219 16.9688 10.9062
Q18.75 8.40625 21.5312 7
Q24.3125 5.60938 28.2188 5.60938
Q33.9375 5.60938 37.375 7.90625
Q40.8281 10.2031 42.0469 13.7188
L49.75 11.5312
Q48.9219 9.32812 47.4375 7.10938
Q45.9531 4.89062 43.4531 3.09375
Q40.9688 1.3125 37.2344 0.15625
Q33.5 -0.984375 28.2188 -0.984375
Q16.5 -0.984375 10.375 6
Q4.25 12.9844 4.25 26.7656
Q4.25 34.1875 6.09375 39.3281
Q7.95312 44.4844 11.1719 47.7031
Q14.4062 50.9219 18.7031 52.3594
Q23 53.8125 27.875 53.8125
Q34.5156 53.8125 38.9844 51.6562
Q43.4531 49.5156 46.1562 45.7188
Q48.875 41.9375 50.0156 36.8125
Q51.1719 31.6875 51.1719 25.7344
L51.1719 24.5625
z

M42.0938 31.2969
Q41.3594 39.6562 37.8438 43.4844
Q34.3281 47.3125 27.7344 47.3125
Q25.5312 47.3125 23.1094 46.6094
Q20.7031 45.9062 18.6562 44.0938
Q16.6094 42.2812 15.1875 39.1719
Q13.7656 36.0781 13.5781 31.2969
z
" id="LiberationSans-65"/>
      <path d="
M17.625 46.4375
L17.625 0
L8.84375 0
L8.84375 46.4375
L1.42188 46.4375
L1.42188 52.8281
L8.84375 52.8281
L8.84375 58.7969
Q8.84375 61.6719 9.375 64.1406
Q9.90625 66.6094 11.3438 68.4375
Q12.7969 70.2656 15.2812 71.3125
Q17.7812 72.3594 21.7344 72.3594
Q23.2969 72.3594 24.9688 72.2188
Q26.6562 72.0781 27.9375 71.7812
L27.9375 65.0938
Q27.0938 65.2344 26 65.3594
Q24.9062 65.4844 24.0312 65.4844
Q22.0781 65.4844 20.8281 64.9375
Q19.5781 64.4062 18.875 63.4062
Q18.1719 62.4062 17.8906 60.9375
Q17.625 59.4688 17.625 57.5625
L17.625 52.8281
L27.9375 52.8281
L27.9375 46.4375
z
" id="LiberationSans-66"/>
      <path d="
M26.7656 -20.75
Q22.2188 -20.75 18.7031 -19.8125
Q15.1875 -18.8906 12.6875 -17.1562
Q10.2031 -15.4375 8.64062 -13.0312
Q7.07812 -10.6406 6.39062 -7.71875
L15.2344 -6.45312
Q16.1094 -10.1094 19.1094 -12.0781
Q22.125 -14.0625 27 -14.0625
Q29.9844 -14.0625 32.4219 -13.2344
Q34.8594 -12.4062 36.5625 -10.5625
Q38.2812 -8.73438 39.2031 -5.79688
Q40.1406 -2.875 40.1406 1.3125
L40.1406 9.8125
L40.0469 9.8125
Q39.0625 7.8125 37.625 5.98438
Q36.1875 4.15625 34.1094 2.73438
Q32.0312 1.3125 29.2969 0.453125
Q26.5625 -0.390625 23.0469 -0.390625
Q18.0156 -0.390625 14.4219 1.29688
Q10.8438 2.98438 8.5625 6.34375
Q6.29688 9.71875 5.25 14.7188
Q4.20312 19.7344 4.20312 26.3125
Q4.20312 32.6719 5.25 37.75
Q6.29688 42.8281 8.65625 46.3594
Q11.0312 49.9062 14.8125 51.7812
Q18.6094 53.6562 24.0312 53.6562
Q29.6406 53.6562 33.7656 51.0938
Q37.8906 48.5312 40.1406 43.7969
L40.2344 43.7969
Q40.2344 45.0156 40.2969 46.5312
Q40.375 48.0469 40.4531 49.3906
Q40.5312 50.7344 40.625 51.7031
Q40.7188 52.6875 40.8281 52.8281
L49.1719 52.8281
Q49.125 52.3906 49.0781 51.3438
Q49.0312 50.2969 48.9688 48.8281
Q48.9219 47.3594 48.8906 45.5781
Q48.875 43.7969 48.875 41.8906
L48.875 1.51562
Q48.875 -9.57812 43.4219 -15.1562
Q37.9844 -20.75 26.7656 -20.75
M40.1406 26.4219
Q40.1406 31.9375 38.9375 35.8594
Q37.75 39.7969 35.7969 42.2812
Q33.8438 44.7812 31.3281 45.9531
Q28.8125 47.125 26.1719 47.125
Q22.7969 47.125 20.375 45.9531
Q17.9688 44.7812 16.375 42.2656
Q14.7969 39.75 14.0312 35.8125
Q13.2812 31.8906 13.2812 26.4219
Q13.2812 20.7031 14.0312 16.8125
Q14.7969 12.9375 16.3594 10.5469
Q17.9219 8.15625 20.3125 7.125
Q22.7031 6.10938 26.0312 6.10938
Q28.6562 6.10938 31.1719 7.21875
Q33.6875 8.34375 35.6875 10.7812
Q37.7031 13.2344 38.9219 17.0938
Q40.1406 20.9531 40.1406 26.4219" id="LiberationSans-67"/>
      <path d="
M20.2188 -0.984375
Q12.25 -0.984375 8.25 3.21875
Q4.25 7.42188 4.25 14.75
Q4.25 19.9688 6.21875 23.3125
Q8.20312 26.6562 11.3906 28.5625
Q14.5938 30.4688 18.6875 31.2031
Q22.7969 31.9375 27.0469 32.0312
L38.9219 32.2344
L38.9219 35.1094
Q38.9219 38.375 38.2344 40.6719
Q37.5469 42.9688 36.125 44.375
Q34.7188 45.7969 32.5938 46.4531
Q30.4688 47.125 27.5938 47.125
Q25.0469 47.125 23 46.75
Q20.9531 46.3906 19.4375 45.4375
Q17.9219 44.4844 16.9844 42.8438
Q16.0625 41.2188 15.7656 38.7188
L6.59375 39.5469
Q7.07812 42.6719 8.4375 45.2812
Q9.8125 47.9062 12.3281 49.7969
Q14.8438 51.7031 18.625 52.75
Q22.4062 53.8125 27.7812 53.8125
Q37.75 53.8125 42.7656 49.2344
Q47.7969 44.6719 47.7969 36.0312
L47.7969 13.2812
Q47.7969 9.375 48.8281 7.39062
Q49.8594 5.42188 52.7344 5.42188
Q53.4688 5.42188 54.2031 5.51562
Q54.9375 5.60938 55.6094 5.76562
L55.6094 0.296875
Q53.9531 -0.09375 52.3125 -0.28125
Q50.6875 -0.484375 48.8281 -0.484375
Q46.3438 -0.484375 44.5625 0.171875
Q42.7812 0.828125 41.6562 2.17188
Q40.5312 3.51562 39.9375 5.48438
Q39.3594 7.46875 39.2031 10.1094
L38.9219 10.1094
Q37.5 7.5625 35.8125 5.51562
Q34.125 3.46875 31.875 2.03125
Q29.6406 0.59375 26.7812 -0.1875
Q23.9219 -0.984375 20.2188 -0.984375
M22.2188 5.60938
Q26.4219 5.60938 29.5625 7.14062
Q32.7188 8.6875 34.7812 11.0781
Q36.8594 13.4844 37.8906 16.3125
Q38.9219 19.1406 38.9219 21.7344
L38.9219 26.0781
L29.2969 25.875
Q26.0781 25.8281 23.1719 25.4062
Q20.2656 25 18.0625 23.7812
Q15.875 22.5625 14.5781 20.3594
Q13.2812 18.1719 13.2812 14.5938
Q13.2812 10.2969 15.5938 7.95312
Q17.9219 5.60938 22.2188 5.60938" id="LiberationSans-61"/>
      <path d="
M15.3281 52.8281
L15.3281 19.3438
Q15.3281 15.4844 15.8906 12.8906
Q16.4531 10.2969 17.7188 8.70312
Q19 7.125 21.0625 6.46875
Q23.1406 5.8125 26.2188 5.8125
Q29.3438 5.8125 31.8594 6.90625
Q34.375 8.01562 36.1562 10.0781
Q37.9375 12.1562 38.9062 15.2031
Q39.8906 18.2656 39.8906 22.2188
L39.8906 52.8281
L48.6875 52.8281
L48.6875 11.2812
Q48.6875 9.625 48.7031 7.78125
Q48.7344 5.95312 48.7812 4.3125
Q48.8281 2.6875 48.875 1.51562
Q48.9219 0.34375 48.9688 0
L40.6719 0
Q40.625 0.25 40.5781 1.3125
Q40.5312 2.39062 40.4531 3.78125
Q40.375 5.17188 40.3281 6.60938
Q40.2812 8.0625 40.2812 9.03125
L40.1406 9.03125
Q38.875 6.73438 37.3594 4.875
Q35.8438 3.03125 33.8438 1.73438
Q31.8438 0.4375 29.25 -0.265625
Q26.6562 -0.984375 23.25 -0.984375
Q18.8438 -0.984375 15.6719 0.09375
Q12.5 1.17188 10.4531 3.42188
Q8.40625 5.67188 7.45312 9.1875
Q6.5 12.7031 6.5 17.625
L6.5 52.8281
z
" id="LiberationSans-75"/>
      <path d="
M13.4219 26.6562
Q13.4219 22.125 14.0781 18.3125
Q14.75 14.5 16.3125 11.7344
Q17.875 8.98438 20.4375 7.46875
Q23 5.95312 26.7656 5.95312
Q31.4531 5.95312 34.5938 8.48438
Q37.75 11.0312 38.4844 16.3125
L47.3594 15.7188
Q46.9219 12.4531 45.4531 9.42188
Q44 6.39062 41.4844 4.09375
Q38.9688 1.8125 35.3438 0.40625
Q31.7344 -0.984375 27 -0.984375
Q20.7969 -0.984375 16.4531 1.10938
Q12.1094 3.21875 9.39062 6.90625
Q6.6875 10.5938 5.46875 15.5938
Q4.25 20.6094 4.25 26.4688
Q4.25 31.7812 5.125 35.8594
Q6 39.9375 7.59375 42.9844
Q9.1875 46.0469 11.3281 48.125
Q13.4844 50.2031 15.9844 51.4375
Q18.5 52.6875 21.2812 53.25
Q24.0781 53.8125 26.9062 53.8125
Q31.3438 53.8125 34.8125 52.5938
Q38.2812 51.375 40.7969 49.25
Q43.3125 47.125 44.875 44.2344
Q46.4375 41.3594 47.0781 38.0312
L38.0312 37.3594
Q37.3594 41.75 34.5625 44.3281
Q31.7812 46.9219 26.6562 46.9219
Q22.9062 46.9219 20.3906 45.6719
Q17.875 44.4375 16.3125 41.9219
Q14.75 39.4062 14.0781 35.5938
Q13.4219 31.7812 13.4219 26.6562" id="LiberationSans-63"/>
      <path d="
M29.5 0
Q27.6406 -4.78125 25.7031 -8.60938
Q23.7812 -12.4531 21.3906 -15.1562
Q19 -17.875 16.0625 -19.3125
Q13.1406 -20.75 9.32812 -20.75
Q7.67188 -20.75 6.25 -20.6562
Q4.82812 -20.5625 3.26562 -20.2188
L3.26562 -13.625
Q4.20312 -13.7656 5.375 -13.8438
Q6.54688 -13.9219 7.375 -13.9219
Q11.2344 -13.9219 14.5469 -11.0312
Q17.875 -8.15625 20.3594 -1.85938
L21.1875 0.25
L0.25 52.8281
L9.625 52.8281
L20.75 23.6406
Q21.2344 22.3125 21.9844 20.1094
Q22.75 17.9219 23.5 15.7188
Q24.2656 13.5312 24.8438 11.7656
Q25.4375 10.0156 25.5312 9.57812
Q25.6875 10.1094 26.25 11.6875
Q26.8125 13.2812 27.5156 15.2344
Q28.2188 17.1875 28.9531 19.1875
Q29.6875 21.1875 30.1719 22.6562
L40.5312 52.8281
L49.8125 52.8281
z
" id="LiberationSans-79"/>
      <path d="
M39.1094 0
L24.9062 21.6875
L10.5938 0
L1.125 0
L19.9219 27.1562
L2 52.8281
L11.7188 52.8281
L24.9062 32.2812
L37.9844 52.8281
L47.7969 52.8281
L29.8906 27.25
L48.9219 0
z
" id="LiberationSans-78"/>
      <path d="
M23.6406 -0.984375
Q13.5781 -0.984375 8.89062 5.79688
Q4.20312 12.5938 4.20312 26.1719
Q4.20312 39.9375 9 46.875
Q13.8125 53.8125 23.6406 53.8125
Q26.9062 53.8125 29.4219 53.2188
Q31.9375 52.6406 33.9062 51.4844
Q35.8906 50.3438 37.375 48.625
Q38.875 46.9219 40.0938 44.625
L40.1875 44.625
Q40.1875 45.8438 40.25 47.3281
Q40.3281 48.8281 40.4062 50.1406
Q40.4844 51.4688 40.5781 52.4219
Q40.6719 53.375 40.7656 53.5156
L49.2188 53.5156
Q49.125 52.6875 49 49.1719
Q48.875 45.6562 48.875 39.1094
L48.875 -20.75
L40.0938 -20.75
L40.0938 0.6875
Q40.0938 1.95312 40.1094 3.3125
Q40.1406 4.6875 40.1875 5.90625
Q40.2344 7.28125 40.2812 8.6875
L40.1875 8.6875
Q38.9219 6.20312 37.375 4.375
Q35.8438 2.54688 33.8438 1.34375
Q31.8438 0.140625 29.3281 -0.421875
Q26.8125 -0.984375 23.6406 -0.984375
M40.0938 27.0469
Q40.0938 32.8125 39.0938 36.7188
Q38.0938 40.625 36.25 42.9688
Q34.4219 45.3125 31.8125 46.3125
Q29.2031 47.3125 25.9844 47.3125
Q22.6094 47.3125 20.2188 46.0625
Q17.8281 44.8281 16.3281 42.2656
Q14.8438 39.7031 14.125 35.7656
Q13.4219 31.8438 13.4219 26.4688
Q13.4219 21.1875 14.0781 17.2812
Q14.75 13.375 16.2344 10.8281
Q17.7188 8.29688 20.0938 7.04688
Q22.4688 5.8125 25.875 5.8125
Q28.8125 5.8125 31.3906 6.71875
Q33.9844 7.625 35.9062 9.98438
Q37.8438 12.3594 38.9688 16.4844
Q40.0938 20.6094 40.0938 27.0469" id="LiberationSans-71"/>
      <path d="
M6.9375 0
L6.9375 40.5312
Q6.9375 42.1875 6.90625 43.9219
Q6.89062 45.6562 6.82812 47.2656
Q6.78125 48.875 6.73438 50.2812
Q6.6875 51.7031 6.64062 52.8281
L14.9375 52.8281
Q14.9844 51.7031 15.0625 50.2656
Q15.1406 48.8281 15.2031 47.3125
Q15.2812 45.7969 15.2969 44.4062
Q15.3281 43.0156 15.3281 42.0469
L15.5312 42.0469
Q16.4531 45.0625 17.5 47.2812
Q18.5625 49.5156 19.9688 50.9531
Q21.3906 52.3906 23.3438 53.0938
Q25.2969 53.8125 28.0781 53.8125
Q29.1562 53.8125 30.125 53.6406
Q31.1094 53.4688 31.6406 53.3281
L31.6406 45.2656
Q30.7656 45.5156 29.5938 45.625
Q28.4219 45.75 26.9531 45.75
Q23.9219 45.75 21.7969 44.375
Q19.6719 43.0156 18.3281 40.5938
Q17 38.1875 16.3594 34.8438
Q15.7188 31.5 15.7188 27.5469
L15.7188 0
z
" id="LiberationSans-72"/>
      <path d="
M6.73438 0
L6.73438 72.4688
L15.5312 72.4688
L15.5312 0
z
" id="LiberationSans-6c"/>
      <path d="
M29.9375 0
L19.5312 0
L0.34375 52.8281
L9.71875 52.8281
L21.3438 18.4531
Q21.6875 17.3906 22.1406 15.8438
Q22.6094 14.3125 23.0938 12.6406
Q23.5781 10.9844 24 9.4375
Q24.4219 7.90625 24.7031 6.89062
Q25 7.90625 25.4531 9.4375
Q25.9219 10.9844 26.4062 12.5938
Q26.9062 14.2031 27.4219 15.7344
Q27.9375 17.2812 28.3281 18.3594
L40.3281 52.8281
L49.6562 52.8281
z
" id="LiberationSans-76"/>
     </defs>
     <g style="fill:#262626;" transform="translate(59.5653125 292.7678125)rotate(-90.0)scale(0.14 -0.14)">
      <use xlink:href="#LiberationSans-50"/>
      <use x="66.69921875" xlink:href="#LiberationSans-65"/>
      <use x="122.314453125" xlink:href="#LiberationSans-72"/>
      <use x="155.615234375" xlink:href="#LiberationSans-63"/>
      <use x="205.615234375" xlink:href="#LiberationSans-65"/>
      <use x="261.23046875" xlink:href="#LiberationSans-6e"/>
      <use x="316.845703125" xlink:href="#LiberationSans-74"/>
      <use x="344.62890625" xlink:href="#LiberationSans-61"/>
      <use x="400.244140625" xlink:href="#LiberationSans-67"/>
      <use x="455.859375" xlink:href="#LiberationSans-65"/>
      <use x="511.474609375" xlink:href="#LiberationSans-20"/>
      <use x="539.2578125" xlink:href="#LiberationSans-6f"/>
      <use x="594.873046875" xlink:href="#LiberationSans-66"/>
      <use x="622.65625" xlink:href="#LiberationSans-20"/>
      <use x="650.439453125" xlink:href="#LiberationSans-62"/>
      <use x="706.0546875" xlink:href="#LiberationSans-61"/>
      <use x="761.669921875" xlink:href="#LiberationSans-73"/>
      <use x="811.669921875" xlink:href="#LiberationSans-65"/>
      <use x="867.28515625" xlink:href="#LiberationSans-73"/>
      <use x="917.28515625" xlink:href="#LiberationSans-20"/>
      <use x="945.068359375" xlink:href="#LiberationSans-61"/>
      <use x="1000.68359375" xlink:href="#LiberationSans-62"/>
      <use x="1056.29882812" xlink:href="#LiberationSans-6f"/>
      <use x="1111.9140625" xlink:href="#LiberationSans-76"/>
      <use x="1161.9140625" xlink:href="#LiberationSans-65"/>
      <use x="1217.52929688" xlink:href="#LiberationSans-20"/>
      <use x="1245.3125" xlink:href="#LiberationSans-71"/>
      <use x="1300.92773438" xlink:href="#LiberationSans-75"/>
      <use x="1356.54296875" xlink:href="#LiberationSans-61"/>
      <use x="1412.15820312" xlink:href="#LiberationSans-6c"/>
      <use x="1434.375" xlink:href="#LiberationSans-69"/>
      <use x="1456.59179688" xlink:href="#LiberationSans-74"/>
      <use x="1484.375" xlink:href="#LiberationSans-79"/>
      <use x="1534.375" xlink:href="#LiberationSans-20"/>
      <use x="1562.15820312" xlink:href="#LiberationSans-78"/>
     </g>
    </g>
   </g>
   <g id="line2d_37">
    <path clip-path="url(#p5a9eda3c16)" d="
M91.0065 38.8235
L161.461 38.9224
L171.526 38.9647
L182.597 39.0635
L206.753 39.5012
L215.812 40.1082
L217.825 40.2918
L222.857 40.7435
L224.87 41.0118
L230.909 41.6188
L232.922 42.0847
L234.935 42.2682
L241.981 43.3835
L245 43.7224
L252.045 44.9506
L253.052 45.3176
L255.065 45.7271
L256.071 46.0659
L257.078 46.2494
L258.084 46.6306
L260.097 46.9129
L262.11 47.3224
L264.123 47.9153
L271.169 49.7506
L273.182 50.3435
L278.214 51.4165
L279.221 51.8682
L280.227 61.1859
L281.234 52.4471
L284.253 53.3365
L288.279 54.4094
L291.299 55.5106
L292.305 55.7224
L295.325 56.7953
L297.338 57.2471
L307.403 60.3671
L308.409 60.8047
L309.416 61.0588
L310.422 61.5388
L312.435 62.2165
L315.455 63.2753
L317.468 63.84
L318.474 64.2494
L321.494 65.7459
L324.513 67.0165
L326.526 68.3576
L328.539 69.3176
L331.558 71.3224
L335.584 75.1341
L337.597 77.9435
L338.604 79.5953
L339.61 82.0659
L340.617 85.9765
L341.623 101.732
L341.623 101.732" style="fill:none;stroke:#222222;stroke-linecap:round;stroke-width:2;"/>
   </g>
   <g id="line2d_38">
    <path clip-path="url(#p5a9eda3c16)" d="
M91.0065 57.4165
L92.013 52.0235
L93.0195 51.1624
L94.026 49.4965
L95.0325 56.6824
L96.039 59.9012
L97.0455 59.2094
L99.0584 58.6094
L100.065 57.5082
L101.071 58.8988
L102.078 57.8541
L103.084 59.2941
L104.091 59.7812
L105.097 60.6071
L106.104 59.6259
L107.11 59.04
L108.117 59.9294
L109.123 57.5718
L110.13 57.6918
L111.136 57.1976
L112.143 56.8518
L113.149 57.3318
L114.156 56.7318
L115.162 57.5012
L116.169 56.8588
L117.175 56.5482
L118.182 56.76
L119.188 57.3459
L120.195 61.2918
L121.201 61.7647
L122.208 58.2
L123.214 57.3247
L125.227 56.4071
L126.234 57.8047
L127.24 58.2353
L129.253 56.8094
L132.273 56.3718
L133.279 56.4424
L135.292 59.1176
L136.299 56.7106
L137.305 55.8424
L138.312 56.9224
L139.318 57.7412
L140.325 59.3435
L141.331 56.2235
L142.338 57.5365
L143.344 56.3647
L144.351 59.28
L145.357 57.1553
L146.364 56.0259
L147.37 55.92
L148.377 56.2376
L149.383 56.7106
L150.39 56.7176
L151.396 59.9365
L152.403 57.4024
L153.409 56.5624
L154.416 56.6259
L155.422 57.5012
L156.429 56.8588
L158.442 56.1035
L159.448 55.9906
L160.455 57.1694
L161.461 57.4588
L162.468 56.7106
L163.474 63.9106
L164.481 57.5435
L165.487 56.8588
L166.494 57.6494
L167.5 58.92
L168.506 55.6235
L169.513 55.3553
L170.519 60.7341
L171.526 58.68
L172.532 58.4471
L173.539 57.3318
L174.545 57.84
L175.552 57.3741
L176.558 57.4729
L177.565 56.8518
L178.571 57.7976
L179.578 62.5129
L180.584 58.2071
L181.591 57.8259
L182.597 57.1129
L183.604 57.1624
L184.61 56.8729
L185.617 55.7012
L186.623 58.4965
L187.63 57.7765
L188.636 58.4824
L190.649 56.6824
L192.662 57.4094
L193.669 57.7694
L194.675 57.3671
L195.682 57.4729
L196.688 64.3059
L197.695 57.0988
L198.701 58.1647
L199.708 57.8188
L200.714 58.3059
L201.721 57.9318
L202.727 60.0918
L203.734 55.6518
L204.74 72.1906
L205.747 63.5647
L206.753 59.1529
L207.76 58.0941
L208.766 58.6165
L209.773 58.7576
L210.779 58.56
L211.786 61.0306
L212.792 58.7718
L213.799 59.0118
L214.805 60.3812
L215.812 59.9153
L216.818 59.8306
L217.825 60.0282
L218.831 61.1294
L219.838 59.8165
L220.844 60.7059
L221.851 61.0729
L222.857 60.8329
L223.864 59.3788
L225.877 63.9529
L226.883 60.9318
L227.89 61.2
L228.896 62.0188
L229.903 60.8188
L230.909 61.4259
L231.916 66.0424
L232.922 67.4682
L234.935 61.6941
L235.942 62.8094
L236.948 62.3294
L237.955 62.8941
L238.961 62.6541
L239.968 62.0612
L240.974 63.1482
L241.981 62.9929
L242.987 64.9835
L243.994 65.6894
L245 70.0094
L246.006 64.4329
L247.013 82.7576
L248.019 65.9153
L249.026 63.9953
L251.039 66.3529
L252.045 65.7318
L253.052 65.9435
L254.058 66.7906
L255.065 67.1718
L256.071 67.0165
L257.078 66.3388
L258.084 67.9765
L259.091 66.5224
L260.097 67.6235
L261.104 66.8471
L262.11 71.4071
L263.117 67.3976
L264.123 67.8494
L266.136 67.9059
L268.149 68.88
L269.156 75.5153
L270.162 69.9812
L271.169 69.3035
L272.175 70.1506
L273.182 69.1906
L275.195 70.6588
L276.201 71.4918
L277.208 72.7906
L278.214 69.2753
L279.221 71.6612
L280.227 79.1294
L281.234 72.1271
L282.24 71.52
L283.247 73.1153
L284.253 71.8729
L285.26 71.5906
L286.266 74.4
L287.273 73.9765
L288.279 74.6541
L289.286 73.8918
L290.292 73.6376
L291.299 73.7506
L292.305 72.8047
L293.312 75.0212
L294.318 75.8259
L296.331 75.1624
L297.338 74.6682
L298.344 76.1082
L299.351 75.4447
L300.357 76.7294
L301.364 77.6894
L302.37 78.1835
L303.377 74.7106
L304.383 79.0165
L305.39 77.8165
L306.396 81.1624
L307.403 77.4353
L308.409 78.4941
L309.416 77.8729
L310.422 81.5576
L311.429 78.3812
L312.435 79.7365
L313.442 91.1576
L314.448 87.9388
L315.455 82.4329
L316.461 81.6
L317.468 81.3318
L318.474 81.4306
L319.481 82.0941
L320.487 84.0282
L321.494 84.2965
L322.5 83.6753
L323.506 82.2212
L324.513 83.3788
L325.519 84.2118
L326.526 85.5106
L327.532 84.7765
L328.539 85.6376
L329.545 87.1341
L330.552 87.7271
L331.558 86.0188
L332.565 88.3059
L333.571 88.6729
L334.578 90.7624
L335.584 87.7835
L336.591 90.0282
L337.597 91.2706
L338.604 91.5671
L339.61 93.0353
L340.617 94.2918
L341.623 129.416
L341.623 129.416" style="fill:none;stroke:#182d61;stroke-linecap:round;stroke-width:2;"/>
   </g>
   <g id="line2d_39">
    <path clip-path="url(#p5a9eda3c16)" d="
M91.0065 75.2329
L92.013 66.6635
L94.026 59.9576
L95.0325 66.5718
L96.039 63.1976
L97.0455 61.7576
L98.0519 61.6588
L99.0584 61.3553
L100.065 60.4024
L101.071 62.1882
L103.084 59.9082
L104.091 60.4447
L105.097 61.6376
L106.104 60.3106
L107.11 59.5765
L108.117 60.6424
L109.123 57.9812
L110.13 58.3271
L112.143 57.3318
L113.149 57.9812
L114.156 57.3106
L115.162 58.0306
L116.169 57.4518
L117.175 57.1765
L118.182 57.4871
L119.188 58.1647
L120.195 62.7953
L121.201 63.3176
L122.208 58.9482
L124.221 57.3671
L125.227 57.1129
L126.234 58.5882
L127.24 59.1388
L128.247 58.3341
L129.253 57.36
L130.26 57.2753
L131.266 56.9153
L132.273 57.1482
L133.279 56.9788
L134.286 58.8282
L135.292 60.0212
L136.299 57.3106
L137.305 56.5341
L139.318 58.5882
L140.325 60.3459
L141.331 56.8588
L142.338 58.44
L143.344 56.9859
L144.351 60.5082
L145.357 58.1082
L146.364 56.7459
L147.37 56.6894
L148.377 57.0071
L149.383 57.4871
L150.39 57.4165
L151.396 61.0871
L152.403 58.2071
L153.409 57.4447
L154.416 57.5435
L155.422 58.32
L156.429 57.7835
L157.435 57.4941
L158.442 56.9788
L159.448 57.0776
L160.455 58.1647
L161.461 58.5388
L162.468 57.9388
L163.474 66.8824
L164.481 59.0047
L165.487 58.1435
L166.494 59.0541
L167.5 60.4094
L168.506 57.0282
L169.513 56.9365
L170.519 62.6471
L171.526 61.0518
L172.532 60.8329
L173.539 59.1318
L174.545 59.6682
L175.552 59.3012
L176.558 59.4776
L177.565 59.1318
L178.571 59.9647
L179.578 65.4706
L180.584 60.8118
L181.591 60.4659
L182.597 59.5129
L183.604 59.6824
L184.61 59.2659
L185.617 58.4541
L186.623 60.9812
L187.63 59.9647
L188.636 60.9529
L189.643 60.2612
L190.649 59.2941
L191.656 59.6965
L192.662 59.7529
L193.669 60.1906
L194.675 60.0918
L195.682 60.4165
L196.688 67.7435
L197.695 60.5294
L198.701 61.0659
L199.708 60.8118
L200.714 61.2706
L201.721 60.8259
L202.727 62.9929
L203.734 58.9694
L204.74 75.9882
L205.747 68.1388
L206.753 63.6918
L207.76 61.7788
L208.766 62.3365
L209.773 62.2094
L210.779 62.3576
L211.786 65.2729
L212.792 62.64
L213.799 63.0847
L214.805 64.2424
L216.818 64.7647
L217.825 64.6871
L218.831 65.7318
L219.838 64.2918
L220.844 65.3718
L221.851 65.8518
L222.857 65.8729
L223.864 64.6518
L224.87 66.8753
L225.877 69.5294
L226.883 66.6
L228.896 67.4118
L229.903 66.7553
L230.909 66.7553
L231.916 72.3741
L232.922 74.28
L233.929 71.8871
L234.935 67.8706
L235.942 68.6612
L236.948 68.4
L237.955 68.9788
L238.961 68.7318
L239.968 68.0329
L240.974 69.0424
L241.981 68.3365
L242.987 71.2024
L243.994 72.2188
L245 77.9082
L246.006 73.0447
L247.013 94.3482
L248.019 77.9224
L249.026 72.72
L250.032 71.9294
L251.039 73.2212
L252.045 72.6282
L253.052 73.2635
L254.058 74.0965
L255.065 74.2094
L256.071 73.92
L257.078 73.3341
L258.084 75.0494
L259.091 73.7788
L260.097 75.0635
L261.104 74.3082
L262.11 79.7718
L263.117 76.4259
L264.123 76.3059
L265.13 75.48
L266.136 75.7059
L268.149 77.4424
L269.156 88.0729
L270.162 83.0329
L271.169 79.6024
L272.175 78.6424
L273.182 77.9647
L274.188 79.1506
L275.195 79.2565
L276.201 81.4094
L277.208 82.4188
L278.214 79.7082
L279.221 81.3176
L280.227 88.6871
L281.234 86.8871
L282.24 87.3741
L284.253 81.7906
L285.26 81.6776
L286.266 85.2918
L287.273 84.3459
L288.279 85.1224
L289.286 84.9176
L290.292 84.2824
L292.305 83.3082
L293.312 85.3341
L294.318 86.5835
L295.325 86.4635
L297.338 84.9035
L298.344 86.6682
L299.351 86.28
L300.357 87.2259
L301.364 88.5035
L302.37 88.6659
L303.377 85.8282
L304.383 92.4424
L306.396 92.6259
L307.403 89.2235
L308.409 88.9271
L309.416 88.3906
L310.422 92.5835
L311.429 89.5129
L312.435 90.9388
L313.442 110.492
L314.448 114.155
L315.455 100.419
L316.461 94.8282
L317.468 92.4071
L318.474 91.6024
L319.481 92.6753
L320.487 95.6965
L321.494 95.4847
L322.5 94.44
L323.506 92.8376
L324.513 93.6424
L325.519 94.1718
L326.526 95.3012
L327.532 95.6329
L328.539 96.2259
L330.552 98.2376
L331.558 95.7318
L332.565 98.2941
L333.571 99.1835
L334.578 101.852
L335.584 98.8165
L336.591 100.094
L338.604 100.024
L339.61 100.511
L340.617 100.715
L341.623 148.821
L341.623 148.821" style="fill:none;stroke:#0d38a0;stroke-linecap:round;stroke-width:2;"/>
   </g>
   <g id="line2d_40">
    <path clip-path="url(#p5a9eda3c16)" d="
M91.0065 316.094
L92.013 312.529
L94.026 307.002
L95.0325 307.419
L96.039 111.12
L97.0455 108.021
L98.0519 110.506
L99.0584 114.233
L100.065 114.487
L101.071 121.666
L102.078 117.995
L103.084 79.1012
L104.091 81.1624
L105.097 82.3341
L106.104 80.7035
L107.11 79.4965
L108.117 80.7247
L109.123 77.1106
L111.136 76.4471
L112.143 75.6212
L113.149 76.0941
L114.156 73.0235
L115.162 76.0235
L116.169 75.4376
L117.175 74.6612
L118.182 74.3082
L119.188 75.5435
L120.195 82.0729
L121.201 83.7741
L122.208 79.1012
L123.214 76.6235
L124.221 74.4776
L125.227 74.6188
L126.234 75.1624
L127.24 76.5671
L128.247 76.7647
L129.253 75.3882
L130.26 75.0706
L131.266 73.6518
L132.273 73.8776
L133.279 73.9765
L134.286 76.7224
L135.292 78.1341
L136.299 73.3482
L137.305 72.0918
L138.312 73.0235
L139.318 74.8447
L140.325 77.8659
L141.331 73.6518
L142.338 74.5553
L143.344 73.1365
L144.351 77.2871
L145.357 75.5012
L146.364 72.6988
L148.377 72.1412
L149.383 73.0165
L150.39 72.1835
L151.396 77.3788
L152.403 74.6188
L153.409 73.2494
L154.416 72.5718
L155.422 73.1859
L157.435 72.4235
L158.442 71.9082
L159.448 72.4518
L160.455 73.4824
L161.461 73.1082
L162.468 73.1788
L163.474 85.7576
L164.481 78.8118
L165.487 73.8282
L166.494 74.7812
L167.5 76.0376
L168.506 72.0353
L169.513 70.9059
L170.519 78.9176
L171.526 78.2612
L172.532 76.6024
L173.539 75.3671
L174.545 74.9506
L175.552 74.1176
L176.558 74.3788
L177.565 73.8635
L178.571 74.2729
L179.578 82.2
L180.584 77.8588
L182.597 74.5624
L183.604 73.8706
L184.61 72.9953
L185.617 71.8941
L186.623 75.4306
L187.63 75.1694
L188.636 75.48
L189.643 76.3412
L190.649 74.5624
L191.656 74.8165
L192.662 73.6518
L193.669 74.8306
L194.675 74.5976
L195.682 75.1553
L196.688 85.6447
L197.695 78.4518
L198.701 76.3553
L199.708 75.3388
L200.714 75.7694
L201.721 75.5224
L202.727 78.2612
L203.734 73.7929
L204.74 96.5788
L206.753 82.4471
L207.76 77.9294
L208.766 77.8729
L209.773 77.1247
L210.779 76.7506
L211.786 79.6235
L212.792 77.7953
L213.799 77.1741
L214.805 78.3529
L215.812 79.0094
L216.818 79.0941
L217.825 79.5106
L218.831 80.0612
L219.838 78.5929
L220.844 80.4353
L221.851 80.3929
L222.857 80.9153
L223.864 78.3388
L224.87 81.3741
L225.877 85.9553
L226.883 83.9294
L227.89 82.8776
L228.896 82.5035
L229.903 82.0094
L230.909 83.0824
L231.916 89.5412
L232.922 92.2729
L233.929 91.8494
L234.935 85.0165
L236.948 84.48
L237.955 84.7765
L238.961 84.2753
L239.968 84.5153
L240.974 84.5082
L241.981 84.24
L242.987 88.3694
L243.994 89.8447
L245 98.2729
L246.006 94.1082
L247.013 119.146
L249.026 93.3176
L250.032 90.4024
L251.039 91.0729
L252.045 90.3953
L253.052 90.3953
L254.058 91.2988
L255.065 91.6376
L256.071 90.8188
L257.078 90.6635
L258.084 92.5765
L259.091 90.0071
L260.097 92.3929
L261.104 90.4941
L262.11 96.9035
L263.117 93.7129
L264.123 91.6376
L265.13 91.4682
L266.136 90.7341
L267.143 93.0212
L268.149 94.0376
L269.156 106.475
L270.162 102.494
L271.169 96.6847
L272.175 96.1624
L273.182 94.6729
L274.188 95.4918
L275.195 95.2376
L276.201 98.2024
L277.208 99
L278.214 95.2094
L279.221 97.9976
L280.227 103.694
L281.234 102.381
L282.24 103.962
L283.247 102.268
L284.253 97.9412
L285.26 97.5318
L286.266 102.798
L287.273 102.099
L288.279 101.993
L289.286 100.871
L290.292 100.087
L291.299 100.151
L292.305 100.842
L294.318 103.849
L295.325 105.261
L296.331 103.348
L297.338 103.009
L298.344 104.661
L299.351 104.259
L300.357 106.871
L301.364 107.689
L302.37 108.064
L303.377 104.456
L304.383 112.038
L305.39 113.421
L306.396 115.475
L307.403 110.224
L309.416 107.774
L310.422 114.318
L311.429 110.633
L312.435 112.638
L313.442 133.228
L314.448 141.487
L315.455 129.106
L316.461 118.602
L317.468 115.087
L318.474 114.36
L319.481 114.395
L320.487 119.104
L321.494 118.736
L322.5 115.729
L323.506 115.108
L325.519 116.188
L326.526 118.129
L328.539 119.082
L330.552 122.845
L331.558 119.809
L332.565 123.275
L333.571 123.007
L334.578 126.339
L335.584 124.666
L336.591 125.682
L337.597 124.518
L338.604 123.925
L339.61 124.179
L340.617 123.734
L341.623 195.233
L341.623 195.233" style="fill:none;stroke:#0343df;stroke-linecap:round;stroke-width:2;"/>
   </g>
   <g id="patch_3">
    <path d="
M90 36
L343.636 36" style="fill:none;stroke:#cccccc;stroke-linecap:square;stroke-linejoin:miter;"/>
   </g>
   <g id="patch_4">
    <path d="
M343.636 324
L343.636 36" style="fill:none;stroke:#cccccc;stroke-linecap:square;stroke-linejoin:miter;"/>
   </g>
   <g id="patch_5">
    <path d="
M90 324
L343.636 324" style="fill:none;stroke:#cccccc;stroke-linecap:square;stroke-linejoin:miter;"/>
   </g>
   <g id="patch_6">
    <path d="
M90 324
L90 36" style="fill:none;stroke:#cccccc;stroke-linecap:square;stroke-linejoin:miter;"/>
   </g>
   <g id="text_15">
    <!-- Read1 -->
    <defs>
     <path d="
M40.0938 8.5
Q37.6406 3.42188 33.6094 1.21875
Q29.5938 -0.984375 23.6406 -0.984375
Q13.625 -0.984375 8.90625 5.75
Q4.20312 12.5 4.20312 26.1719
Q4.20312 53.8125 23.6406 53.8125
Q29.6406 53.8125 33.6406 51.6094
Q37.6406 49.4219 40.0938 44.625
L40.1875 44.625
Q40.1875 45.125 40.1562 46.1719
Q40.1406 47.2188 40.1094 48.3594
Q40.0938 49.5156 40.0938 50.5312
Q40.0938 51.5625 40.0938 52
L40.0938 72.4688
L48.875 72.4688
L48.875 10.8906
Q48.875 8.98438 48.8906 7.21875
Q48.9219 5.46875 48.9688 4
Q49.0312 2.54688 49.0781 1.48438
Q49.125 0.4375 49.1719 0
L40.7656 0
Q40.6719 0.484375 40.5938 1.39062
Q40.5312 2.29688 40.4531 3.46875
Q40.375 4.64062 40.3281 5.9375
Q40.2812 7.23438 40.2812 8.5
z

M13.4219 26.4688
Q13.4219 21 14.1094 17.0938
Q14.7969 13.1875 16.3125 10.6719
Q17.8281 8.15625 20.1719 6.98438
Q22.5156 5.8125 25.875 5.8125
Q29.3438 5.8125 32 6.9375
Q34.6719 8.0625 36.4531 10.5781
Q38.2344 13.0938 39.1562 17.1406
Q40.0938 21.1875 40.0938 27.0469
Q40.0938 32.6719 39.1562 36.5469
Q38.2344 40.4375 36.4219 42.8281
Q34.625 45.2188 32 46.2656
Q29.3906 47.3125 25.9844 47.3125
Q22.75 47.3125 20.4062 46.1875
Q18.0625 45.0625 16.5 42.5781
Q14.9375 40.0938 14.1719 36.1094
Q13.4219 32.125 13.4219 26.4688" id="LiberationSans-64"/>
     <path d="
M56.8438 0
L38.9688 28.5625
L17.5312 28.5625
L17.5312 0
L8.20312 0
L8.20312 68.7969
L40.5781 68.7969
Q46.4375 68.7969 50.9531 67.4531
Q55.4688 66.1094 58.5469 63.5625
Q61.625 61.0312 63.2344 57.375
Q64.8438 53.7188 64.8438 49.125
Q64.8438 45.8438 63.8906 42.6719
Q62.9375 39.5 60.8906 36.8594
Q58.8438 34.2344 55.6562 32.3281
Q52.4844 30.4219 48.0469 29.6406
L67.5781 0
z

M55.4688 49.0312
Q55.4688 52.1562 54.3906 54.4375
Q53.3281 56.7344 51.2656 58.2656
Q49.2188 59.8125 46.2812 60.5625
Q43.3594 61.3281 39.6562 61.3281
L17.5312 61.3281
L17.5312 35.9375
L40.0469 35.9375
Q44.0469 35.9375 46.9688 36.9375
Q49.9062 37.9375 51.7812 39.6875
Q53.6562 41.4531 54.5625 43.8438
Q55.4688 46.2344 55.4688 49.0312" id="LiberationSans-52"/>
    </defs>
    <g style="fill:#262626;" transform="translate(194.291931818 31.0)scale(0.16 -0.16)">
     <use xlink:href="#LiberationSans-52"/>
     <use x="72.216796875" xlink:href="#LiberationSans-65"/>
     <use x="127.83203125" xlink:href="#LiberationSans-61"/>
     <use x="183.447265625" xlink:href="#LiberationSans-64"/>
     <use x="239.0625" xlink:href="#LiberationSans-31"/>
    </g>
   </g>
   <g id="legend_1">
    <g id="line2d_41">
     <path d="
M187.857 266.438
L207.857 266.438" style="fill:none;stroke:#222222;stroke-linecap:round;stroke-width:2;"/>
    </g>
    <g id="line2d_42"/>
    <g id="text_16">
     <!-- Q = 10 -->
     <defs>
      <path d="
M4.89062 41.7969
L4.89062 49.0312
L53.4688 49.0312
L53.4688 41.7969
z

M4.89062 16.7969
L4.89062 24.0312
L53.4688 24.0312
L53.4688 16.7969
z
" id="LiberationSans-3d"/>
      <path d="
M73 34.7188
Q73 27.4375 71.1094 21.4062
Q69.2344 15.375 65.6875 10.8281
Q62.1562 6.29688 57 3.4375
Q51.8594 0.59375 45.3125 -0.296875
Q46.3438 -3.42188 47.625 -5.60938
Q48.9219 -7.8125 50.5781 -9.20312
Q52.25 -10.5938 54.2656 -11.25
Q56.2969 -11.9219 58.7969 -11.9219
Q60.1562 -11.9219 61.7188 -11.7188
Q63.2812 -11.5312 64.4062 -11.2812
L64.4062 -17.8281
Q62.5469 -18.2656 60.3281 -18.5781
Q58.1094 -18.8906 55.7188 -18.8906
Q51.5156 -18.8906 48.3906 -17.6406
Q45.2656 -16.4062 42.8906 -14.0781
Q40.5312 -11.7656 38.8125 -8.39062
Q37.1094 -5.03125 35.7969 -0.78125
Q28.0781 -0.390625 22.2344 2.40625
Q16.4062 5.21875 12.5156 9.9375
Q8.64062 14.6562 6.6875 20.9688
Q4.73438 27.2969 4.73438 34.7188
Q4.73438 42.7812 6.98438 49.2656
Q9.23438 55.7656 13.5781 60.3281
Q17.9219 64.8906 24.2969 67.3594
Q30.6719 69.8281 38.9219 69.8281
Q47.125 69.8281 53.4844 67.3281
Q59.8594 64.8438 64.1719 60.25
Q68.5 55.6719 70.75 49.1719
Q73 42.6719 73 34.7188
M63.4844 34.7188
Q63.4844 40.9219 61.8906 46
Q60.2969 51.0781 57.2031 54.6875
Q54.1094 58.2969 49.5156 60.25
Q44.9219 62.2031 38.9219 62.2031
Q32.7656 62.2031 28.125 60.25
Q23.4844 58.2969 20.375 54.6875
Q17.2812 51.0781 15.7344 46
Q14.2031 40.9219 14.2031 34.7188
Q14.2031 28.5156 15.7969 23.3594
Q17.3906 18.2188 20.4844 14.4844
Q23.5781 10.75 28.1875 8.67188
Q32.8125 6.59375 38.8125 6.59375
Q45.2656 6.59375 49.9219 8.6875
Q54.5938 10.7969 57.5938 14.5312
Q60.5938 18.2656 62.0312 23.4375
Q63.4844 28.6094 63.4844 34.7188" id="LiberationSans-51"/>
     </defs>
     <g style="fill:#262626;" transform="translate(215.857244318 269.9375)scale(0.1 -0.1)">
      <use xlink:href="#LiberationSans-51"/>
      <use x="77.783203125" xlink:href="#LiberationSans-20"/>
      <use x="105.56640625" xlink:href="#LiberationSans-3d"/>
      <use x="163.96484375" xlink:href="#LiberationSans-20"/>
      <use x="191.748046875" xlink:href="#LiberationSans-31"/>
      <use x="247.36328125" xlink:href="#LiberationSans-30"/>
     </g>
    </g>
    <g id="line2d_43">
     <path d="
M187.857 280.766
L207.857 280.766" style="fill:none;stroke:#182d61;stroke-linecap:round;stroke-width:2;"/>
    </g>
    <g id="line2d_44"/>
    <g id="text_17">
     <!-- Q = 20 -->
     <g style="fill:#262626;" transform="translate(215.857244318 284.265625)scale(0.1 -0.1)">
      <use xlink:href="#LiberationSans-51"/>
      <use x="77.783203125" xlink:href="#LiberationSans-20"/>
      <use x="105.56640625" xlink:href="#LiberationSans-3d"/>
      <use x="163.96484375" xlink:href="#LiberationSans-20"/>
      <use x="191.748046875" xlink:href="#LiberationSans-32"/>
      <use x="247.36328125" xlink:href="#LiberationSans-30"/>
     </g>
    </g>
    <g id="line2d_45">
     <path d="
M187.857 295.094
L207.857 295.094" style="fill:none;stroke:#0d38a0;stroke-linecap:round;stroke-width:2;"/>
    </g>
    <g id="line2d_46"/>
    <g id="text_18">
     <!-- Q = 30 -->
     <defs>
      <path d="
M51.2188 19
Q51.2188 14.2656 49.6719 10.5469
Q48.1406 6.84375 45.1875 4.26562
Q42.2344 1.70312 37.8594 0.359375
Q33.5 -0.984375 27.875 -0.984375
Q21.4844 -0.984375 17.1094 0.609375
Q12.75 2.20312 9.90625 4.8125
Q7.07812 7.42188 5.65625 10.7656
Q4.25 14.1094 3.8125 17.6719
L12.8906 18.5
Q13.2812 15.7656 14.3281 13.5156
Q15.375 11.2812 17.1875 9.67188
Q19 8.0625 21.625 7.17188
Q24.2656 6.29688 27.875 6.29688
Q34.5156 6.29688 38.2969 9.5625
Q42.0938 12.8438 42.0938 19.2812
Q42.0938 23.0938 40.4062 25.4062
Q38.7188 27.7344 36.2031 29.0312
Q33.6875 30.3281 30.7344 30.7656
Q27.7812 31.2031 25.2969 31.2031
L20.3125 31.2031
L20.3125 38.8125
L25.0938 38.8125
Q27.5938 38.8125 30.2656 39.3281
Q32.9531 39.8438 35.1719 41.1875
Q37.4062 42.5312 38.8438 44.8281
Q40.2812 47.125 40.2812 50.6875
Q40.2812 56.2031 37.0312 59.3906
Q33.7969 62.5938 27.3906 62.5938
Q21.5781 62.5938 17.9844 59.6094
Q14.4062 56.6406 13.8125 51.2188
L4.98438 51.9062
Q5.51562 56.4531 7.46875 59.8125
Q9.42188 63.1875 12.4219 65.4062
Q15.4375 67.625 19.2812 68.7188
Q23.1406 69.8281 27.4844 69.8281
Q33.25 69.8281 37.3906 68.375
Q41.5469 66.9375 44.1875 64.4688
Q46.8281 62.0156 48.0625 58.6875
Q49.3125 55.375 49.3125 51.6094
Q49.3125 48.5781 48.4844 45.9375
Q47.6562 43.3125 45.8906 41.2031
Q44.1406 39.1094 41.4219 37.5938
Q38.7188 36.0781 34.9062 35.2969
L34.9062 35.1094
Q39.0625 34.6719 42.1406 33.2188
Q45.2188 31.7812 47.2188 29.625
Q49.2188 27.4844 50.2188 24.75
Q51.2188 22.0156 51.2188 19" id="LiberationSans-33"/>
     </defs>
     <g style="fill:#262626;" transform="translate(215.857244318 298.59375)scale(0.1 -0.1)">
      <use xlink:href="#LiberationSans-51"/>
      <use x="77.783203125" xlink:href="#LiberationSans-20"/>
      <use x="105.56640625" xlink:href="#LiberationSans-3d"/>
      <use x="163.96484375" xlink:href="#LiberationSans-20"/>
      <use x="191.748046875" xlink:href="#LiberationSans-33"/>
      <use x="247.36328125" xlink:href="#LiberationSans-30"/>
     </g>
    </g>
    <g id="line2d_47">
     <path d="
M187.857 309.422
L207.857 309.422" style="fill:none;stroke:#0343df;stroke-linecap:round;stroke-width:2;"/>
    </g>
    <g id="line2d_48"/>
    <g id="text_19">
     <!-- Q = 35 -->
     <g style="fill:#262626;" transform="translate(215.857244318 312.921875)scale(0.1 -0.1)">
      <use xlink:href="#LiberationSans-51"/>
      <use x="77.783203125" xlink:href="#LiberationSans-20"/>
      <use x="105.56640625" xlink:href="#LiberationSans-3d"/>
      <use x="163.96484375" xlink:href="#LiberationSans-20"/>
      <use x="191.748046875" xlink:href="#LiberationSans-33"/>
      <use x="247.36328125" xlink:href="#LiberationSans-35"/>
     </g>
    </g>
   </g>
  </g>
  <g id="axes_2">
   <g id="patch_7">
    <path d="
M394.364 324
L648 324
L648 36
L394.364 36
z
" style="fill:#ffffff;"/>
   </g>
   <g id="matplotlib.axis_3">
    <g id="xtick_7">
     <g id="line2d_49">
      <path clip-path="url(#p82906e24e1)" d="
M395.37 324
L395.37 36" style="fill:none;stroke:#cccccc;stroke-linecap:round;"/>
     </g>
     <g id="line2d_50">
      <g>
       <use style="fill:#262626;stroke:#262626;" x="395.37012987" xlink:href="#m219da94a98" y="324.0"/>
      </g>
     </g>
     <g id="line2d_51">
      <g>
       <use style="fill:#262626;stroke:#262626;" x="395.37012987" xlink:href="#m219da94a98" y="36.0"/>
      </g>
     </g>
     <g id="text_20">
      <!-- 0 -->
      <g style="fill:#262626;" transform="translate(392.98028612 338.246875)scale(0.1 -0.1)">
       <use xlink:href="#LiberationSans-30"/>
      </g>
     </g>
    </g>
    <g id="xtick_8">
     <g id="line2d_52">
      <path clip-path="url(#p82906e24e1)" d="
M445.695 324
L445.695 36" style="fill:none;stroke:#cccccc;stroke-linecap:round;"/>
     </g>
     <g id="line2d_53">
      <g>
       <use style="fill:#262626;stroke:#262626;" x="445.694805195" xlink:href="#m219da94a98" y="324.0"/>
      </g>
     </g>
     <g id="line2d_54">
      <g>
       <use style="fill:#262626;stroke:#262626;" x="445.694805195" xlink:href="#m219da94a98" y="36.0"/>
      </g>
     </g>
     <g id="text_21">
      <!-- 50 -->
      <g style="fill:#262626;" transform="translate(440.529180195 338.246875)scale(0.1 -0.1)">
       <use xlink:href="#LiberationSans-35"/>
       <use x="55.615234375" xlink:href="#LiberationSans-30"/>
      </g>
     </g>
    </g>
    <g id="xtick_9">
     <g id="line2d_55">
      <path clip-path="url(#p82906e24e1)" d="
M496.019 324
L496.019 36" style="fill:none;stroke:#cccccc;stroke-linecap:round;"/>
     </g>
     <g id="line2d_56">
      <g>
       <use style="fill:#262626;stroke:#262626;" x="496.019480519" xlink:href="#m219da94a98" y="324.0"/>
      </g>
     </g>
     <g id="line2d_57">
      <g>
       <use style="fill:#262626;stroke:#262626;" x="496.019480519" xlink:href="#m219da94a98" y="36.0"/>
      </g>
     </g>
     <g id="text_22">
      <!-- 100 -->
      <g style="fill:#262626;" transform="translate(488.254636769 338.246875)scale(0.1 -0.1)">
       <use xlink:href="#LiberationSans-31"/>
       <use x="55.615234375" xlink:href="#LiberationSans-30"/>
       <use x="111.23046875" xlink:href="#LiberationSans-30"/>
      </g>
     </g>
    </g>
    <g id="xtick_10">
     <g id="line2d_58">
      <path clip-path="url(#p82906e24e1)" d="
M546.344 324
L546.344 36" style="fill:none;stroke:#cccccc;stroke-linecap:round;"/>
     </g>
     <g id="line2d_59">
      <g>
       <use style="fill:#262626;stroke:#262626;" x="546.344155844" xlink:href="#m219da94a98" y="324.0"/>
      </g>
     </g>
     <g id="line2d_60">
      <g>
       <use style="fill:#262626;stroke:#262626;" x="546.344155844" xlink:href="#m219da94a98" y="36.0"/>
      </g>
     </g>
     <g id="text_23">
      <!-- 150 -->
      <g style="fill:#262626;" transform="translate(538.579312094 338.246875)scale(0.1 -0.1)">
       <use xlink:href="#LiberationSans-31"/>
       <use x="55.615234375" xlink:href="#LiberationSans-35"/>
       <use x="111.23046875" xlink:href="#LiberationSans-30"/>
      </g>
     </g>
    </g>
    <g id="xtick_11">
     <g id="line2d_61">
      <path clip-path="url(#p82906e24e1)" d="
M596.669 324
L596.669 36" style="fill:none;stroke:#cccccc;stroke-linecap:round;"/>
     </g>
     <g id="line2d_62">
      <g>
       <use style="fill:#262626;stroke:#262626;" x="596.668831169" xlink:href="#m219da94a98" y="324.0"/>
      </g>
     </g>
     <g id="line2d_63">
      <g>
       <use style="fill:#262626;stroke:#262626;" x="596.668831169" xlink:href="#m219da94a98" y="36.0"/>
      </g>
     </g>
     <g id="text_24">
      <!-- 200 -->
      <g style="fill:#262626;" transform="translate(588.774299919 338.246875)scale(0.1 -0.1)">
       <use xlink:href="#LiberationSans-32"/>
       <use x="55.615234375" xlink:href="#LiberationSans-30"/>
       <use x="111.23046875" xlink:href="#LiberationSans-30"/>
      </g>
     </g>
    </g>
    <g id="xtick_12">
     <g id="line2d_64">
      <path clip-path="url(#p82906e24e1)" d="
M646.994 324
L646.994 36" style="fill:none;stroke:#cccccc;stroke-linecap:round;"/>
     </g>
     <g id="line2d_65">
      <g>
       <use style="fill:#262626;stroke:#262626;" x="646.993506494" xlink:href="#m219da94a98" y="324.0"/>
      </g>
     </g>
     <g id="line2d_66">
      <g>
       <use style="fill:#262626;stroke:#262626;" x="646.993506494" xlink:href="#m219da94a98" y="36.0"/>
      </g>
     </g>
     <g id="text_25">
      <!-- 250 -->
      <g style="fill:#262626;" transform="translate(639.098975244 338.246875)scale(0.1 -0.1)">
       <use xlink:href="#LiberationSans-32"/>
       <use x="55.615234375" xlink:href="#LiberationSans-35"/>
       <use x="111.23046875" xlink:href="#LiberationSans-30"/>
      </g>
     </g>
    </g>
    <g id="text_26">
     <!-- Position [bp] -->
     <g style="fill:#262626;" transform="translate(483.158693182 355.4675)scale(0.14 -0.14)">
      <use xlink:href="#LiberationSans-50"/>
      <use x="66.69921875" xlink:href="#LiberationSans-6f"/>
      <use x="122.314453125" xlink:href="#LiberationSans-73"/>
      <use x="172.314453125" xlink:href="#LiberationSans-69"/>
      <use x="194.53125" xlink:href="#LiberationSans-74"/>
      <use x="222.314453125" xlink:href="#LiberationSans-69"/>
      <use x="244.53125" xlink:href="#LiberationSans-6f"/>
      <use x="300.146484375" xlink:href="#LiberationSans-6e"/>
      <use x="355.76171875" xlink:href="#LiberationSans-20"/>
      <use x="383.544921875" xlink:href="#LiberationSans-5b"/>
      <use x="411.328125" xlink:href="#LiberationSans-62"/>
      <use x="466.943359375" xlink:href="#LiberationSans-70"/>
      <use x="522.55859375" xlink:href="#LiberationSans-5d"/>
     </g>
    </g>
   </g>
   <g id="matplotlib.axis_4">
    <g id="ytick_7">
     <g id="line2d_67">
      <path clip-path="url(#p82906e24e1)" d="
M394.364 321.176
L648 321.176" style="fill:none;stroke:#cccccc;stroke-linecap:round;"/>
     </g>
     <g id="line2d_68">
      <g>
       <use style="fill:#262626;stroke:#262626;" x="394.363636364" xlink:href="#m219da94a98" y="321.176470588"/>
      </g>
     </g>
     <g id="line2d_69">
      <g>
       <use style="fill:#262626;stroke:#262626;" x="648.0" xlink:href="#m219da94a98" y="321.176470588"/>
      </g>
     </g>
    </g>
    <g id="ytick_8">
     <g id="line2d_70">
      <path clip-path="url(#p82906e24e1)" d="
M394.364 264.706
L648 264.706" style="fill:none;stroke:#cccccc;stroke-linecap:round;"/>
     </g>
     <g id="line2d_71">
      <g>
       <use style="fill:#262626;stroke:#262626;" x="394.363636364" xlink:href="#m219da94a98" y="264.705882353"/>
      </g>
     </g>
     <g id="line2d_72">
      <g>
       <use style="fill:#262626;stroke:#262626;" x="648.0" xlink:href="#m219da94a98" y="264.705882353"/>
      </g>
     </g>
    </g>
    <g id="ytick_9">
     <g id="line2d_73">
      <path clip-path="url(#p82906e24e1)" d="
M394.364 208.235
L648 208.235" style="fill:none;stroke:#cccccc;stroke-linecap:round;"/>
     </g>
     <g id="line2d_74">
      <g>
       <use style="fill:#262626;stroke:#262626;" x="394.363636364" xlink:href="#m219da94a98" y="208.235294118"/>
      </g>
     </g>
     <g id="line2d_75">
      <g>
       <use style="fill:#262626;stroke:#262626;" x="648.0" xlink:href="#m219da94a98" y="208.235294118"/>
      </g>
     </g>
    </g>
    <g id="ytick_10">
     <g id="line2d_76">
      <path clip-path="url(#p82906e24e1)" d="
M394.364 151.765
L648 151.765" style="fill:none;stroke:#cccccc;stroke-linecap:round;"/>
     </g>
     <g id="line2d_77">
      <g>
       <use style="fill:#262626;stroke:#262626;" x="394.363636364" xlink:href="#m219da94a98" y="151.764705882"/>
      </g>
     </g>
     <g id="line2d_78">
      <g>
       <use style="fill:#262626;stroke:#262626;" x="648.0" xlink:href="#m219da94a98" y="151.764705882"/>
      </g>
     </g>
    </g>
    <g id="ytick_11">
     <g id="line2d_79">
      <path clip-path="url(#p82906e24e1)" d="
M394.364 95.2941
L648 95.2941" style="fill:none;stroke:#cccccc;stroke-linecap:round;"/>
     </g>
     <g id="line2d_80">
      <g>
       <use style="fill:#262626;stroke:#262626;" x="394.363636364" xlink:href="#m219da94a98" y="95.2941176471"/>
      </g>
     </g>
     <g id="line2d_81">
      <g>
       <use style="fill:#262626;stroke:#262626;" x="648.0" xlink:href="#m219da94a98" y="95.2941176471"/>
      </g>
     </g>
    </g>
    <g id="ytick_12">
     <g id="line2d_82">
      <path clip-path="url(#p82906e24e1)" d="
M394.364 38.8235
L648 38.8235" style="fill:none;stroke:#cccccc;stroke-linecap:round;"/>
     </g>
     <g id="line2d_83">
      <g>
       <use style="fill:#262626;stroke:#262626;" x="394.363636364" xlink:href="#m219da94a98" y="38.8235294118"/>
      </g>
     </g>
     <g id="line2d_84">
      <g>
       <use style="fill:#262626;stroke:#262626;" x="648.0" xlink:href="#m219da94a98" y="38.8235294118"/>
      </g>
     </g>
    </g>
   </g>
   <g id="line2d_85">
    <path clip-path="url(#p82906e24e1)" d="
M395.37 38.8376
L420.532 38.9365
L428.584 38.9506
L436.636 39.0494
L442.675 39.12
L450.727 39.2047
L456.766 39.2894
L461.799 39.3741
L468.844 39.5718
L481.929 39.8541
L501.052 40.7294
L506.084 41.2094
L509.104 41.4776
L511.117 41.7318
L514.136 42.0847
L519.169 42.7624
L528.227 44.6824
L530.24 45.1624
L542.318 48.6635
L544.331 49.3271
L548.357 50.5694
L556.409 53.4353
L559.429 54.9176
L560.435 55.2706
L562.448 56.2729
L565.468 57.3459
L568.487 58.6165
L570.5 59.6471
L574.526 61.2282
L578.552 62.8659
L581.571 64.2494
L582.578 64.6165
L586.604 66.5224
L588.617 67.3835
L593.649 69.8118
L596.669 71.4353
L605.727 76.2071
L607.74 77.1106
L615.792 81.9953
L616.799 82.7576
L618.812 83.9435
L620.825 85.3976
L621.831 85.9341
L624.851 88.0941
L629.883 92.88
L634.916 98.7953
L635.922 100.108
L636.929 101.929
L639.948 108.536
L640.955 111.261
L641.961 114.395
L642.968 118.391
L643.974 123.967
L644.981 132.748
L645.987 160.08
L645.987 160.08" style="fill:none;stroke:#222222;stroke-linecap:round;stroke-width:2;"/>
   </g>
   <g id="line2d_86">
    <path clip-path="url(#p82906e24e1)" d="
M395.37 177.896
L396.377 142.899
L397.383 130.828
L398.39 110.047
L399.396 107.802
L400.403 72.9035
L401.409 69.96
L402.416 83.0047
L403.422 68.0188
L404.429 65.4706
L405.435 66.0635
L406.442 64.6659
L407.448 64.0729
L408.455 65.2588
L409.461 64.0447
L410.468 64.2565
L411.474 64.3341
L412.481 64.6518
L413.487 67.4965
L414.494 63.1624
L415.5 62.2306
L416.506 72.0494
L418.519 63.4306
L419.526 64.4965
L420.532 73.6518
L421.539 66.8612
L422.545 65.6753
L423.552 68.5976
L424.558 70.4047
L425.565 70.0588
L426.571 64.8282
L427.578 64.1859
L428.584 65.9859
L429.591 65.6471
L430.597 66.1835
L431.604 68.2165
L432.61 66.84
L433.617 69.8259
L434.623 65.0329
L435.63 66.1059
L436.636 65.4494
L437.643 70.1859
L438.649 70.1224
L441.669 72.9176
L442.675 72.8894
L443.682 71.9435
L444.688 73.4894
L445.695 74.2518
L446.701 74.64
L447.708 74.4353
L448.714 72.5788
L449.721 73.9271
L450.727 74.1388
L451.734 73.5318
L452.74 74.64
L453.747 74.5624
L454.753 72.9741
L455.76 73.9553
L456.766 75.4165
L457.773 76.0235
L458.779 73.1718
L459.786 72.5224
L460.792 73.8847
L461.799 76.0941
L463.812 69.6776
L464.818 74.4988
L465.825 72.4447
L466.831 72.4871
L467.838 73.56
L468.844 73.0941
L470.857 73.5741
L471.864 72.5365
L472.87 72.9953
L473.877 74.0753
L474.883 72.6706
L475.89 72.7271
L476.896 69.9318
L477.903 72.3953
L478.909 73.0729
L479.916 74.9224
L480.922 72.4094
L481.929 72.8894
L482.935 73.6588
L483.942 77.4635
L484.948 72.9953
L485.955 72.3529
L486.961 74.2094
L487.968 79.8776
L488.974 76.0518
L489.981 73.9341
L491.994 74.1106
L493 74.9365
L494.006 75.0212
L495.013 72.1553
L496.019 84.5365
L497.026 75.9671
L498.032 76.9976
L499.039 76.0094
L500.045 75.2824
L501.052 75.48
L502.058 76.7859
L503.065 75.4871
L504.071 79.0518
L505.078 76.6094
L506.084 75.7412
L507.091 77.0047
L508.097 76.6376
L509.104 76.6094
L510.11 83.8659
L511.117 78.2824
L512.123 77.7459
L513.13 78.2682
L514.136 77.5341
L515.143 79.6659
L516.149 87.2612
L517.156 79.92
L518.162 84.7341
L519.169 78.9741
L520.175 78.8612
L521.182 79.8494
L522.188 80.4141
L523.195 79.9482
L524.201 83.6612
L525.208 79.6094
L526.214 83.4918
L527.221 80.2447
L528.227 81.2894
L529.234 80.3153
L530.24 81.7976
L531.247 80.9224
L532.253 84.6353
L533.26 87.5435
L534.266 88.5318
L535.273 83.52
L537.286 83.4918
L538.292 82.1224
L540.305 86.5835
L541.312 83.7741
L542.318 86.8094
L543.325 85.0588
L544.331 85.8494
L545.338 86.0612
L546.344 87.5012
L547.351 87.5153
L548.357 86.8659
L549.364 88.7435
L550.37 87.1059
L551.377 87.9812
L552.383 88.6165
L553.39 90.6635
L554.396 87.0353
L555.403 91.8494
L556.409 91.5529
L557.416 89.8447
L558.422 87.5012
L559.429 91.5388
L560.435 93.9671
L561.442 93.3459
L562.448 94.9412
L563.455 92.8376
L564.461 93.36
L565.468 91.9341
L566.474 93.2188
L567.481 93.9106
L568.487 94.2776
L569.494 100.729
L570.5 97.5953
L571.506 95.8306
L572.513 96.9035
L573.519 97.1859
L574.526 97.7929
L575.532 98.0471
L576.539 96.2965
L577.545 96.6212
L578.552 101.111
L579.558 99.2471
L580.565 99.7129
L581.571 98.9082
L582.578 101.294
L583.584 101.012
L584.591 101.125
L585.597 102.254
L586.604 102.268
L587.61 102.776
L588.617 103.609
L589.623 104.626
L590.63 103.864
L591.636 102.861
L592.643 103.708
L593.649 105.346
L594.656 105.755
L595.662 105.911
L596.669 107.379
L597.675 109.214
L598.682 107.139
L599.688 108.593
L600.695 108.748
L601.701 111.487
L602.708 113.125
L603.714 110.922
L604.721 111.699
L605.727 111.416
L606.734 112.856
L607.74 112.362
L608.747 113.591
L609.753 121.694
L610.76 116.555
L611.766 114.791
L612.773 115.539
L613.779 116.513
L614.786 116.527
L615.792 116.358
L616.799 117.854
L617.805 128.936
L618.812 121.793
L619.818 120.974
L620.825 120.988
L621.831 121.327
L622.838 119.831
L623.844 121.722
L624.851 123.148
L625.857 123.515
L626.864 124.306
L627.87 124.56
L628.877 125.139
L629.883 126.014
L630.89 128.216
L631.896 129.995
L632.903 130.235
L633.909 131.224
L634.916 131.534
L635.922 130.969
L636.929 132
L637.935 135.882
L638.942 139.158
L639.948 138.311
L641.961 139.779
L643.974 145.087
L644.981 150.776
L645.987 206.767
L645.987 206.767" style="fill:none;stroke:#182d61;stroke-linecap:round;stroke-width:2;"/>
   </g>
   <g id="line2d_87">
    <path clip-path="url(#p82906e24e1)" d="
M395.37 225.24
L396.377 211.687
L397.383 195.798
L398.39 170.139
L399.396 158.689
L400.403 79.5953
L401.409 74.6824
L402.416 89.7176
L403.422 72.7976
L404.429 69.6706
L405.435 70.8353
L406.442 68.8518
L407.448 64.5812
L408.455 65.6753
L409.461 64.5106
L410.468 64.7929
L411.474 64.8282
L412.481 65.1812
L413.487 68.1812
L414.494 63.5859
L415.5 62.7106
L416.506 73.3059
L417.513 68.2588
L418.519 63.8894
L419.526 64.9906
L420.532 75.5435
L421.539 67.7365
L422.545 66.4518
L423.552 70.3835
L424.558 71.8518
L425.565 71.2729
L426.571 65.5976
L427.578 64.7576
L428.584 66.9035
L429.591 66.5294
L430.597 66.9106
L431.604 69.2047
L432.61 67.4965
L433.617 70.9765
L434.623 65.8376
L435.63 66.7765
L436.636 66.2047
L437.643 71.3435
L438.649 71.5059
L439.656 72.6565
L440.662 73.5106
L441.669 74.5553
L442.675 74.4918
L443.682 73.4471
L444.688 75.48
L445.695 76.2
L446.701 76.4329
L447.708 76.1082
L448.714 74.3435
L449.721 75.6212
L450.727 76.0518
L451.734 75.5576
L452.74 76.7435
L453.747 76.4471
L454.753 75.0424
L455.76 76.1365
L456.766 77.4353
L457.773 78.2188
L458.779 75.4094
L459.786 74.3929
L460.792 76.1859
L461.799 78.3388
L462.805 75.2753
L463.812 71.7953
L464.818 76.8635
L465.825 75.1482
L466.831 74.8871
L467.838 75.9388
L468.844 75.5718
L469.851 75.6918
L470.857 76.3906
L471.864 75.6282
L472.87 76.0941
L473.877 77.3082
L474.883 75.8894
L475.89 76.2494
L476.896 72.9176
L477.903 75.4871
L478.909 76.8282
L479.916 78.5788
L480.922 76.1435
L481.929 76.56
L482.935 78.0565
L483.942 81.9741
L484.948 77.4
L485.955 77.04
L486.961 78.6706
L487.968 84.5788
L488.974 81.0776
L489.981 78.7694
L490.987 78.7765
L491.994 78.9529
L493 79.6306
L494.006 79.8071
L495.013 76.7012
L496.019 90.6282
L497.026 81.4235
L498.032 82.2494
L499.039 80.6047
L500.045 80.2376
L501.052 80.3576
L502.058 81.9671
L503.065 80.5976
L504.071 85.0024
L505.078 82.0376
L506.084 81.3529
L507.091 82.5388
L508.097 82.8141
L509.104 82.4894
L510.11 90.2047
L511.117 85.2494
L512.123 84.3812
L513.13 84.8259
L514.136 84.2471
L515.143 86.1529
L516.149 96.3106
L517.156 88.8635
L518.162 92.7882
L519.169 87.8612
L520.175 86.7388
L521.182 87.2612
L522.188 87.4871
L523.195 87.5788
L524.201 92.4988
L525.208 88.1576
L526.214 91.9835
L527.221 89.4212
L528.227 90.6212
L529.234 89.0329
L530.24 89.7388
L531.247 89.7035
L532.253 94.1435
L534.266 99.6918
L535.273 94.3129
L536.279 93.2965
L537.286 92.7882
L538.292 91.32
L539.299 93.3459
L540.305 96.4659
L541.312 94.4047
L542.318 96.9882
L543.325 95.2094
L544.331 95.8024
L545.338 95.2518
L546.344 97.4188
L547.351 98.04
L548.357 97.7506
L549.364 99.7482
L550.37 97.6941
L551.377 98.1035
L552.383 99.1835
L553.39 101.456
L554.396 98.6682
L555.403 103.624
L556.409 103.327
L557.416 101.626
L558.422 98.9506
L560.435 105.805
L561.442 106.391
L562.448 109.193
L563.455 106.624
L564.461 106.673
L565.468 105.353
L566.474 106.144
L567.481 107.478
L568.487 108.282
L569.494 117.028
L570.5 113.365
L571.506 111.247
L572.513 112.115
L573.519 112.045
L575.532 113.471
L576.539 111.946
L577.545 112.327
L578.552 118.235
L579.558 116.958
L580.565 116.605
L581.571 116.033
L582.578 117.085
L583.584 117.946
L584.591 117.854
L585.597 119.259
L586.604 120.205
L587.61 120.96
L588.617 121.186
L589.623 122.322
L591.636 120.918
L592.643 121.871
L593.649 124.885
L594.656 125.647
L595.662 125.407
L596.669 126.402
L597.675 128.224
L598.682 127.666
L599.688 127.92
L600.695 127.68
L601.701 133.158
L602.708 137.802
L603.714 136.235
L604.721 133.927
L605.727 132.247
L606.734 132.473
L607.74 133.009
L608.747 135.028
L609.753 149.555
L610.76 148.969
L611.766 140.365
L612.773 137.449
L613.779 136.793
L614.786 136.976
L615.792 137.351
L616.799 138.416
L617.805 162.021
L618.812 159.826
L619.818 149.936
L620.825 144.304
L621.831 142.934
L622.838 140.866
L623.844 141.184
L624.851 144.085
L625.857 143.887
L626.864 144.755
L627.87 144.826
L628.877 145.673
L629.883 145.955
L631.896 151.645
L632.903 151.256
L633.909 152.591
L634.916 152.816
L635.922 150.678
L636.929 151.645
L637.935 155.682
L638.942 162.614
L639.948 162.96
L640.955 159.508
L641.961 156.861
L642.968 157.426
L643.974 159.226
L644.981 163.814
L645.987 236.358
L645.987 236.358" style="fill:none;stroke:#0d38a0;stroke-linecap:round;stroke-width:2;"/>
   </g>
   <g id="line2d_88">
    <path clip-path="url(#p82906e24e1)" d="
M395.37 321.169
L399.396 321.176
L400.403 161.569
L401.409 139.659
L402.416 159.346
L403.422 139.482
L404.429 130.969
L405.435 135.692
L406.442 129.438
L407.448 89.2871
L408.455 90.0847
L409.461 87.3882
L410.468 88.1082
L411.474 89.0541
L412.481 90.1976
L413.487 94.0871
L414.494 87.1482
L415.5 84.7906
L416.506 100.885
L417.513 96.4941
L418.519 88.2282
L419.526 88.8353
L420.532 102.473
L421.539 94.6871
L422.545 91.2706
L424.558 101.351
L425.565 99.9318
L426.571 91.8918
L427.578 88.32
L428.584 91.9765
L429.591 92.2024
L430.597 90.7341
L431.604 94.4188
L432.61 92.6824
L433.617 96.0424
L434.623 90.9741
L435.63 90.8471
L436.636 89.3718
L437.643 102.734
L438.649 104.231
L439.656 101.104
L440.662 101.816
L442.675 105.678
L443.682 103.652
L444.688 106.016
L445.695 106.955
L446.701 108.071
L447.708 106.369
L448.714 104.054
L449.721 106.228
L450.727 106.701
L451.734 106.461
L452.74 107.506
L453.747 106.038
L454.753 105.882
L456.766 109.786
L457.773 110.456
L458.779 106.793
L459.786 105.381
L461.799 109.031
L462.805 106.2
L463.812 101.88
L464.818 106.842
L465.825 104.887
L466.831 103.708
L467.838 104.344
L468.844 104.061
L469.851 104.435
L470.857 105.558
L471.864 105.593
L472.87 103.807
L473.877 104.456
L474.883 102.748
L475.89 102.628
L476.896 99.0706
L477.903 101.965
L478.909 104.125
L479.916 105.918
L480.922 102.84
L481.929 103.793
L482.935 104.209
L483.942 111.424
L484.948 105.289
L485.955 104.174
L486.961 105.438
L487.968 113.118
L488.974 110.661
L489.981 109.122
L490.987 105.536
L491.994 105.212
L493 105.579
L494.006 107.167
L495.013 103.249
L496.019 122.922
L497.026 114.148
L498.032 109.44
L499.039 108.769
L500.045 106.525
L501.052 108.36
L502.058 108.981
L503.065 108.007
L504.071 113.746
L505.078 109.998
L506.084 108.466
L507.091 109.355
L508.097 109.391
L509.104 109.186
L510.11 120.176
L511.117 117.6
L512.123 112.687
L513.13 112.532
L514.136 111.551
L515.143 112.864
L516.149 130.285
L517.156 125.301
L518.162 124.066
L519.169 121.193
L520.175 115.892
L521.182 114.812
L522.188 115.602
L523.195 114.798
L524.201 121.151
L525.208 116.28
L526.214 120.967
L527.221 118.532
L528.227 118.412
L529.234 115.687
L530.24 117.529
L531.247 117.459
L532.253 122.732
L534.266 131.181
L535.273 127.807
L536.279 122.816
L537.286 120.374
L538.292 118.489
L539.299 122.365
L540.305 125.188
L541.312 124.701
L542.318 128.435
L543.325 125.336
L544.331 125.393
L545.338 125.012
L546.344 126.282
L547.351 128.753
L548.357 128.718
L549.364 131.266
L550.37 128.4
L551.377 129.176
L552.383 129.791
L553.39 130.793
L554.396 129.064
L555.403 134.393
L556.409 134.139
L557.416 132.833
L558.422 128.852
L560.435 136.256
L561.442 137.936
L562.448 141.148
L563.455 138.092
L564.461 138.12
L565.468 135.918
L566.474 136.038
L567.481 136.426
L568.487 136.391
L569.494 147.198
L570.5 143.16
L571.506 140.831
L573.519 141.36
L574.526 141.967
L575.532 141.939
L576.539 140.88
L577.545 140.548
L578.552 146.492
L579.558 145.673
L580.565 145.299
L581.571 143.569
L582.578 146.04
L583.584 145.595
L584.591 146.089
L585.597 147.628
L586.604 148.038
L587.61 149.873
L588.617 149.548
L589.623 151.934
L590.63 150.889
L591.636 150.452
L592.643 150.776
L593.649 155.266
L595.662 155.492
L596.669 156.748
L597.675 158.224
L598.682 158.492
L599.688 158.972
L600.695 158.576
L601.701 165.028
L602.708 170.336
L603.714 169.384
L604.721 167.252
L605.727 165.395
L606.734 165.078
L607.74 166.355
L608.747 169.299
L609.753 183.565
L610.76 183.353
L612.773 174.198
L613.779 172.998
L614.786 173.746
L615.792 173.739
L616.799 175.553
L617.805 199.489
L618.812 199.405
L619.818 191.245
L620.825 184.144
L622.838 179.005
L623.844 179.047
L624.851 181.588
L625.857 181.066
L626.864 183.388
L627.87 182.781
L629.883 185.273
L630.89 189.586
L632.903 191.802
L633.909 193.087
L634.916 192.494
L635.922 190.991
L636.929 191.816
L637.935 195.254
L638.942 202.193
L639.948 202.842
L640.955 199.736
L641.961 197.781
L642.968 196.101
L643.974 198.318
L644.981 201.402
L645.987 272.365
L645.987 272.365" style="fill:none;stroke:#0343df;stroke-linecap:round;stroke-width:2;"/>
   </g>
   <g id="patch_8">
    <path d="
M394.364 36
L648 36" style="fill:none;stroke:#cccccc;stroke-linecap:square;stroke-linejoin:miter;"/>
   </g>
   <g id="patch_9">
    <path d="
M648 324
L648 36" style="fill:none;stroke:#cccccc;stroke-linecap:square;stroke-linejoin:miter;"/>
   </g>
   <g id="patch_10">
    <path d="
M394.364 324
L648 324" style="fill:none;stroke:#cccccc;stroke-linecap:square;stroke-linejoin:miter;"/>
   </g>
   <g id="patch_11">
    <path d="
M394.364 324
L394.364 36" style="fill:none;stroke:#cccccc;stroke-linecap:square;stroke-linejoin:miter;"/>
   </g>
   <g id="text_27">
    <!-- Read2 -->
    <g style="fill:#262626;" transform="translate(498.666818182 31.0)scale(0.16 -0.16)">
     <use xlink:href="#LiberationSans-52"/>
     <use x="72.216796875" xlink:href="#LiberationSans-65"/>
     <use x="127.83203125" xlink:href="#LiberationSans-61"/>
     <use x="183.447265625" xlink:href="#LiberationSans-64"/>
     <use x="239.0625" xlink:href="#LiberationSans-32"/>
    </g>
   </g>
   <g id="legend_2">
    <g id="line2d_89">
     <path d="
M492.221 266.438
L512.221 266.438" style="fill:none;stroke:#222222;stroke-linecap:round;stroke-width:2;"/>
    </g>
    <g id="line2d_90"/>
    <g id="text_28">
     <!-- Q = 10 -->
     <g style="fill:#262626;" transform="translate(520.220880682 269.9375)scale(0.1 -0.1)">
      <use xlink:href="#LiberationSans-51"/>
      <use x="77.783203125" xlink:href="#LiberationSans-20"/>
      <use x="105.56640625" xlink:href="#LiberationSans-3d"/>
      <use x="163.96484375" xlink:href="#LiberationSans-20"/>
      <use x="191.748046875" xlink:href="#LiberationSans-31"/>
      <use x="247.36328125" xlink:href="#LiberationSans-30"/>
     </g>
    </g>
    <g id="line2d_91">
     <path d="
M492.221 280.766
L512.221 280.766" style="fill:none;stroke:#182d61;stroke-linecap:round;stroke-width:2;"/>
    </g>
    <g id="line2d_92"/>
    <g id="text_29">
     <!-- Q = 20 -->
     <g style="fill:#262626;" transform="translate(520.220880682 284.265625)scale(0.1 -0.1)">
      <use xlink:href="#LiberationSans-51"/>
      <use x="77.783203125" xlink:href="#LiberationSans-20"/>
      <use x="105.56640625" xlink:href="#LiberationSans-3d"/>
      <use x="163.96484375" xlink:href="#LiberationSans-20"/>
      <use x="191.748046875" xlink:href="#LiberationSans-32"/>
      <use x="247.36328125" xlink:href="#LiberationSans-30"/>
     </g>
    </g>
    <g id="line2d_93">
     <path d="
M492.221 295.094
L512.221 295.094" style="fill:none;stroke:#0d38a0;stroke-linecap:round;stroke-width:2;"/>
    </g>
    <g id="line2d_94"/>
    <g id="text_30">
     <!-- Q = 30 -->
     <g style="fill:#262626;" transform="translate(520.220880682 298.59375)scale(0.1 -0.1)">
      <use xlink:href="#LiberationSans-51"/>
      <use x="77.783203125" xlink:href="#LiberationSans-20"/>
      <use x="105.56640625" xlink:href="#LiberationSans-3d"/>
      <use x="163.96484375" xlink:href="#LiberationSans-20"/>
      <use x="191.748046875" xlink:href="#LiberationSans-33"/>
      <use x="247.36328125" xlink:href="#LiberationSans-30"/>
     </g>
    </g>
    <g id="line2d_95">
     <path d="
M492.221 309.422
L512.221 309.422" style="fill:none;stroke:#0343df;stroke-linecap:round;stroke-width:2;"/>
    </g>
    <g id="line2d_96"/>
    <g id="text_31">
     <!-- Q = 35 -->
     <g style="fill:#262626;" transform="translate(520.220880682 312.921875)scale(0.1 -0.1)">
      <use xlink:href="#LiberationSans-51"/>
      <use x="77.783203125" xlink:href="#LiberationSans-20"/>
      <use x="105.56640625" xlink:href="#LiberationSans-3d"/>
      <use x="163.96484375" xlink:href="#LiberationSans-20"/>
      <use x="191.748046875" xlink:href="#LiberationSans-33"/>
      <use x="247.36328125" xlink:href="#LiberationSans-35"/>
     </g>
    </g>
   </g>
  </g>
 </g>
 <defs>
  <clipPath id="p5a9eda3c16">
   <rect height="288.0" width="253.636363636" x="90.0" y="36.0"/>
  </clipPath>
  <clipPath id="p82906e24e1">
   <rect height="288.0" width="253.636363636" x="394.363636364" y="36.0"/>
  </clipPath>
 </defs>
</svg>
